<svg xmlns="http://www.w3.org/2000/svg" width="24px" height="24px" viewBox="0 0 24 21" version="1.1">
    <path stroke="none" fill-rule="nonzero" fill="rgb(100%,52.941176%,35.686275%)" fill-opacity="1" d="M 15.074219 0 L 8.90625 0 C 8.695312 0 8.535156 0.167969 8.535156 0.367188 C 8.410156 6.09375 5.378906 11.539062 0.175781 15.390625 C 0.015625 15.511719 -0.0234375 15.746094 0.0898438 15.914062 L 3.699219 20.847656 C 3.824219 21.011719 4.058594 21.046875 4.230469 20.929688 C 7.496094 18.535156 10.117188 15.652344 11.996094 12.453125 C 13.886719 15.652344 16.507812 18.535156 19.761719 20.929688 C 19.933594 21.046875 20.167969 21.011719 20.292969 20.847656 L 23.902344 15.914062 C 24.027344 15.746094 23.988281 15.523438 23.816406 15.390625 C 18.597656 11.539062 15.582031 6.105469 15.457031 0.367188 C 15.445312 0.167969 15.273438 0 15.074219 0 Z M 15.074219 0 "/>
</svg>
