<svg width="30" height="30" viewBox="0 0 30 30" fill="none" xmlns="http://www.w3.org/2000/svg">
<g id="back icon" clip-path="url(#clip0_6040_21248)">
<path id="Vector" d="M23.7502 14.1668H7.12558L13.4914 8.10343C13.8247 7.78593 13.8377 7.25843 13.5202 6.9251C13.2031 6.59218 12.6756 6.57885 12.3418 6.89635L5.07183 13.8214C4.75725 14.1364 4.5835 14.5547 4.5835 15.0001C4.5835 15.4451 4.75725 15.8639 5.08641 16.1926L12.3422 23.1034C12.5035 23.2572 12.7102 23.3334 12.9168 23.3334C13.1368 23.3334 13.3568 23.2468 13.5206 23.0747C13.8381 22.7414 13.8252 22.2143 13.4918 21.8968L7.09933 15.8334H23.7502C24.2102 15.8334 24.5835 15.4601 24.5835 15.0001C24.5835 14.5401 24.2102 14.1668 23.7502 14.1668Z" fill="white"/>
</g>
<defs>
<clipPath id="clip0_6040_21248">
<rect width="30" height="30" fill="white"/>
</clipPath>
</defs>
</svg>
