<svg xmlns="http://www.w3.org/2000/svg" width="24px" height="24px" viewBox="0 0 24 24" version="1.1">
    <linearGradient id="braavos-icon-linear0" gradientUnits="userSpaceOnUse" x1="100.367" y1="17" x2="100.367"
                    y2="59.4641"
                    gradientTransform="matrix(0.12,0,0,0.12,0,0)">
        <stop offset="0" style="stop-color:rgb(96.862745%,79.607843%,36.078431%);stop-opacity:1;"/>
        <stop offset="1" style="stop-color:rgb(74.117647%,53.333333%,0%);stop-opacity:1;"/>
    </linearGradient>
    <linearGradient id="braavos-icon-linear1" gradientUnits="userSpaceOnUse" x1="100" y1="90.7212" x2="100" y2="183.306"
                    gradientTransform="matrix(0.12,0,0,0.12,0,0)">
        <stop offset="0" style="stop-color:rgb(96.862745%,79.607843%,36.078431%);stop-opacity:1;"/>
        <stop offset="1" style="stop-color:rgb(74.117647%,53.333333%,0%);stop-opacity:1;"/>
    </linearGradient>
    <linearGradient id="braavos-icon-linear2" gradientUnits="userSpaceOnUse" x1="100.356" y1="62.8823" x2="100.356"
                    y2="100.282"
                    gradientTransform="matrix(0.12,0,0,0.12,0,0)">
        <stop offset="0" style="stop-color:rgb(96.862745%,79.607843%,36.078431%);stop-opacity:1;"/>
        <stop offset="1" style="stop-color:rgb(74.117647%,53.333333%,0%);stop-opacity:1;"/>
    </linearGradient>
    <g id="braavos-icon-surface1">
        <path style=" stroke:none;fill-rule:evenodd;fill:url(#braavos-icon-linear0);"
              d="M 15.898438 4.351562 C 15.839844 4.347656 15.78125 4.34375 15.722656 4.34375 C 14.160156 4.34375 12.890625 5.589844 12.863281 7.136719 C 12.328125 7.035156 11.773438 7.027344 11.226562 7.121094 C 11.1875 5.582031 9.921875 4.34375 8.363281 4.34375 C 8.304688 4.34375 8.246094 4.347656 8.1875 4.351562 C 8.921875 2.976562 10.371094 2.039062 12.042969 2.039062 C 13.714844 2.039062 15.167969 2.976562 15.898438 4.351562 Z M 15.898438 4.351562 "/>
        <path style=" stroke:none;fill-rule:evenodd;fill:url(#braavos-icon-linear1);"
              d="M 5.261719 12.914062 L 12 10.886719 L 18.902344 12.964844 C 19 13.234375 19.050781 13.425781 19.070312 13.5 C 19.074219 13.527344 19.078125 13.550781 19.082031 13.578125 C 19.105469 13.886719 19.246094 15.902344 19.1875 17.234375 C 19.152344 18.035156 19.09375 19.230469 19.082031 19.464844 C 19.078125 19.496094 19.078125 19.519531 19.082031 19.550781 C 19.101562 19.871094 19.136719 21.996094 16.820312 21.996094 C 14.769531 21.996094 14.289062 20.988281 14.199219 20.734375 C 14.1875 20.695312 14.183594 20.65625 14.183594 20.613281 L 14.183594 18.644531 C 14.183594 18.433594 14.300781 18.238281 14.488281 18.140625 C 14.84375 17.949219 15.128906 17.789062 15.414062 17.625 C 15.777344 17.417969 16.136719 17.214844 16.648438 16.949219 C 17.664062 16.421875 17.777344 15.03125 17.777344 15.03125 C 17.777344 15.03125 16.28125 14.644531 15.363281 14.796875 C 14.675781 14.914062 13.734375 15.429688 13.3125 15.675781 C 13.167969 15.761719 13.074219 15.90625 13.050781 16.074219 L 12.71875 18.492188 C 12.679688 18.769531 12.441406 18.976562 12.160156 18.976562 L 11.941406 18.976562 C 11.65625 18.976562 11.414062 18.761719 11.382812 18.476562 L 11.121094 16.101562 C 11.101562 15.917969 10.996094 15.757812 10.835938 15.675781 C 10.367188 15.425781 9.347656 14.921875 8.636719 14.796875 C 7.632812 14.625 6.226562 15.03125 6.226562 15.03125 C 6.226562 15.03125 6.726562 16.324219 7.355469 16.949219 C 7.933594 17.523438 9.042969 17.964844 9.644531 18.167969 C 9.882812 18.253906 10.046875 18.472656 10.046875 18.726562 L 10.046875 20.519531 C 10.046875 20.621094 10.019531 20.722656 9.957031 20.804688 C 9.699219 21.136719 8.875 21.996094 7.324219 21.996094 C 5.332031 21.996094 4.9375 19.847656 4.898438 19.566406 C 4.894531 19.546875 4.890625 19.527344 4.890625 19.503906 C 4.890625 19.300781 4.875 18.109375 4.816406 17.234375 C 4.726562 15.859375 5.042969 13.746094 5.074219 13.554688 C 5.074219 13.542969 5.078125 13.535156 5.078125 13.523438 C 5.09375 13.464844 5.148438 13.242188 5.261719 12.914062 Z M 5.261719 12.914062 "/>
        <path style=" stroke:none;fill-rule:evenodd;fill:url(#braavos-icon-linear2);"
              d="M 18.121094 12.035156 C 18.144531 11.894531 18.15625 11.75 18.15625 11.609375 C 18.15625 9.363281 15.417969 7.546875 12.042969 7.546875 C 8.667969 7.546875 5.929688 9.363281 5.929688 11.609375 C 5.929688 11.75 5.941406 11.894531 5.960938 12.035156 L 12.042969 10.203125 Z M 18.121094 12.035156 "/>
    </g>
</svg>
