<svg width="106" height="106" viewBox="0 0 106 106" fill="none" xmlns="http://www.w3.org/2000/svg">
<g id="Frame" clip-path="url(#clip0_6418_5775)">
<g id="Group">
<g id="Layer 1">
<g id="Group_2">
<path id="Vector" d="M73.5808 101.606C70.858 104.941 65.3038 106.529 61.2355 105.139C57.1672 103.749 50.5418 103.864 46.5244 105.388C42.5007 106.912 36.8956 105.515 34.0644 102.276C31.2331 99.0366 25.443 95.8228 21.2025 95.1341C16.9557 94.4454 12.8044 90.4281 11.9691 86.2067C11.1401 81.9853 7.72856 76.3101 4.39992 73.5872C1.0649 70.8643 -0.522902 65.3102 0.86722 61.2419C2.25734 57.1736 2.14256 50.5482 0.618529 46.5308C-0.905504 42.5071 0.497371 36.902 3.73674 34.0707C6.97611 31.2395 10.19 25.4494 10.8787 21.2089C11.5673 16.9684 15.5847 12.8108 19.806 11.9755C24.0274 11.1401 29.7027 7.73494 32.4255 4.4063C35.142 1.06491 40.6961 -0.522892 44.7645 0.86723C48.8328 2.25735 55.4582 2.14257 59.4755 0.618538C63.4992 -0.905495 69.1044 0.497381 71.9356 3.73037C74.7669 6.96974 80.5569 10.1836 84.7974 10.8723C89.0443 11.561 93.1956 15.5783 94.0309 19.7997C94.8599 24.0211 98.2714 29.6963 101.6 32.4192C104.929 35.142 106.523 40.6961 105.133 44.7645C103.743 48.8328 103.857 55.4582 105.381 59.4755C106.905 63.4992 105.503 69.1044 102.27 71.9356C99.0303 74.7669 95.8164 80.5569 95.1277 84.7974C94.439 89.0443 90.4217 93.1956 86.2003 94.0309C81.9789 94.8663 76.3037 98.2714 73.5808 101.6V101.606Z" fill="url(#paint0_linear_6418_5775)"/>
<path id="Vector_2" d="M102.623 54.1275C103.245 26.7212 81.5319 3.99981 54.1256 3.37787C26.7193 2.75593 3.99793 24.469 3.37599 51.8753C2.75406 79.2816 24.4671 102.003 51.8734 102.625C79.2797 103.247 102.001 81.5338 102.623 54.1275Z" fill="url(#paint1_linear_6418_5775)"/>
<path id="Vector_3" d="M101.887 53.0033C101.887 80.0022 79.9958 101.893 52.9969 101.893C25.9979 101.893 4.11304 80.0022 4.11304 53.0033C4.11304 26.0043 25.9979 4.11304 52.9969 4.11304C79.9958 4.11304 101.887 25.9979 101.887 53.0033Z" fill="url(#paint2_radial_6418_5775)"/>
<path id="Vector_4" d="M100.098 54.0702C100.689 28.0581 80.0804 6.49264 54.0683 5.90234C28.0563 5.31204 6.49079 25.9205 5.90049 51.9325C5.31019 77.9446 25.9186 99.51 51.9307 100.1C77.9427 100.691 99.5082 80.0822 100.098 54.0702Z" fill="url(#paint3_linear_6418_5775)"/>
<path id="Vector_5" d="M96.3 69.0115C105.145 45.101 92.9316 18.5476 69.021 9.70278C45.1105 0.857995 18.5571 13.0712 9.71228 36.9818C0.867499 60.8923 13.0807 87.4457 36.9913 96.2905C60.9018 105.135 87.4552 92.9221 96.3 69.0115Z" fill="url(#paint4_linear_6418_5775)"/>
<path id="Vector_6" d="M53.4192 85.7161C71.4843 85.4796 85.9372 70.6433 85.7008 52.5782C85.4643 34.5131 70.6279 20.0602 52.5629 20.2967C34.4978 20.5331 20.0449 35.3695 20.2813 53.4346C20.5178 71.4996 35.3542 85.9526 53.4192 85.7161Z" fill="url(#paint5_radial_6418_5775)"/>
<path id="Vector_7" d="M84.3192 53.0033C84.3192 70.2969 70.2968 84.3193 52.9968 84.3193C35.6968 84.3193 21.6808 70.2969 21.6808 53.0033C21.6808 35.7096 35.7032 21.6873 52.9968 21.6873C70.2904 21.6873 84.3192 35.7096 84.3192 53.0033Z" fill="url(#paint6_linear_6418_5775)"/>
<path id="Vector_8" style="mix-blend-mode:screen" d="M33.5287 77.5215C38.8086 68.5813 45.2108 60.2661 52.6333 52.8373C60.126 45.3446 68.5241 38.8914 77.5662 33.586C71.8272 26.3357 62.9636 21.6807 52.9968 21.6807C35.7032 21.6807 21.6808 35.703 21.6808 52.9967C21.6808 62.9316 26.3103 71.7825 33.5287 77.5215Z" fill="url(#paint7_radial_6418_5775)"/>
<g id="Group_3">
<path id="Vector_9" d="M16.1968 55.7515L13.8821 54.3805L11.5673 55.7515L12.154 53.1243L10.1326 51.3452L12.8108 51.0965L13.8821 48.6223L14.947 51.0965L17.6252 51.3452L15.6102 53.1243L16.1968 55.7515Z" fill="url(#paint8_radial_6418_5775)"/>
<path id="Vector_10" d="M95.37 55.7515L93.0553 54.3805L90.7405 55.7515L91.3272 53.1243L89.3058 51.3452L91.984 51.0965L93.0489 48.6223L94.1202 51.0965L96.7984 51.3452L94.777 53.1243L95.37 55.7515Z" fill="url(#paint9_radial_6418_5775)"/>
<path id="Vector_11" d="M55.0642 16.1292L52.7495 14.7582L50.4348 16.1292L51.0214 13.502L49 11.7229L51.6782 11.4742L52.7431 9L53.8144 11.4742L56.4926 11.7229L54.4712 13.502L55.0642 16.1292Z" fill="url(#paint10_radial_6418_5775)"/>
<path id="Vector_12" d="M55.0642 96.1292L52.7495 94.7582L50.4348 96.1292L51.0214 93.502L49 91.7229L51.6782 91.4742L52.7431 89L53.8144 91.4742L56.4926 91.7229L54.4712 93.502L55.0642 96.1292Z" fill="url(#paint11_radial_6418_5775)"/>
</g>
</g>
</g>
</g>
<g id="CLAIMED">
<path d="M31.0961 66.1592C30.2675 66.1592 29.5615 65.8709 28.9782 65.2941C28.4015 64.7108 28.1132 64.0082 28.1132 63.1862V56.3851C28.1132 55.5565 28.4048 54.8538 28.9882 54.2771C29.5715 53.6938 30.2741 53.4021 31.0961 53.4021C31.9247 53.4021 32.6274 53.6938 33.2041 54.2771C33.7808 54.8604 34.0691 55.5631 34.0691 56.3851V57.8069H32.1203V56.3453C32.1203 56.047 32.0142 55.7918 31.8021 55.5797C31.59 55.3675 31.3348 55.2615 31.0365 55.2615C30.7382 55.2615 30.483 55.3675 30.2708 55.5797C30.0653 55.7918 29.9626 56.047 29.9626 56.3453V63.1663C29.9626 63.4646 30.0653 63.7198 30.2708 63.9319C30.483 64.1374 30.7382 64.2402 31.0365 64.2402C31.3348 64.2402 31.59 64.1374 31.8021 63.9319C32.0142 63.7198 32.1203 63.4646 32.1203 63.1663V61.4461H34.0691V63.1862C34.0691 64.0148 33.7775 64.7174 33.1941 65.2941C32.6108 65.8709 31.9115 66.1592 31.0961 66.1592Z" fill="black"/>
<path d="M40.7261 66.0001H35.6053V53.5413H37.4846V64.1308H40.7261V66.0001Z" fill="black"/>
<path d="M44.4336 63.1365L43.9763 66.0001H42.0175L44.1354 53.5413H46.7206L48.8086 66.0001H46.8399L46.3925 63.1365H44.4336ZM45.418 56.395L44.722 61.3069H46.114L45.418 56.395Z" fill="black"/>
<path d="M52.2639 66.0001H50.3846V53.5413H52.2639V66.0001Z" fill="black"/>
<path d="M55.8186 66.0001H53.9393V53.5314H56.6339L58.3839 62.4703L60.0643 53.5314H62.6595V66.0001H60.7802V58.1649L59.1496 66.0001H57.6382L55.8186 58.1848V66.0001Z" fill="black"/>
<path d="M64.33 66.0001V53.5314H69.6794V55.4106H66.2092V58.8211H68.7447V60.7103H66.2092V64.1209H69.6794V66.0001H64.33Z" fill="black"/>
<path d="M76.8807 63.0172C76.8807 63.8391 76.5924 64.5418 76.0157 65.1251C75.439 65.7084 74.743 66.0001 73.9276 66.0001H70.9745V53.5314H73.9276C74.7496 53.5314 75.4456 53.823 76.0157 54.4064C76.5924 54.9897 76.8807 55.689 76.8807 56.5044V63.0172ZM72.8538 64.1407H73.9873C74.2856 64.1407 74.5375 64.0347 74.743 63.8226C74.9484 63.6038 75.0512 63.3486 75.0512 63.0569V56.5342C75.0512 56.2359 74.9451 55.9807 74.733 55.7686C74.5275 55.5565 74.2789 55.4504 73.9873 55.4504H72.8538V64.1407Z" fill="black"/>
</g>
<g id="NFT">
<path d="M43.7789 34.5312L46.2647 42.9034V34.5312H48.144V47H46.1255L43.5403 39.0156V47H41.661V34.5312H43.7789Z" fill="black"/>
<path d="M51.7024 47H49.8231V34.5312H55.1726V36.4105H51.7024V39.821H54.2379V41.7102H51.7024V47Z" fill="black"/>
<path d="M58.4662 36.4205H56.4677V34.5412H62.3341V36.4205H60.3455V47H58.4662V36.4205Z" fill="black"/>
</g>
</g>
<defs>
<linearGradient id="paint0_linear_6418_5775" x1="-0.573915" y1="53.0032" x2="109.737" y2="53.0032" gradientUnits="userSpaceOnUse">
<stop stop-color="#EEBE47"/>
<stop offset="0.12" stop-color="#F8DB76"/>
<stop offset="0.21" stop-color="#FFEE96"/>
<stop offset="0.45" stop-color="#A2621E"/>
<stop offset="0.67" stop-color="#EEA54C"/>
<stop offset="1" stop-color="#EEBE47"/>
</linearGradient>
<linearGradient id="paint1_linear_6418_5775" x1="91.5238" y1="91.5776" x2="-4.2352" y2="-4.18146" gradientUnits="userSpaceOnUse">
<stop stop-color="#EEBE47"/>
<stop offset="0.12" stop-color="#F8DB76"/>
<stop offset="0.21" stop-color="#FFEE96"/>
<stop offset="0.45" stop-color="#A2621E"/>
<stop offset="0.67" stop-color="#EEA54C"/>
<stop offset="1" stop-color="#EEBE47"/>
</linearGradient>
<radialGradient id="paint2_radial_6418_5775" cx="0" cy="0" r="1" gradientUnits="userSpaceOnUse" gradientTransform="translate(36.2835 18.2885) scale(94.5921 94.5921)">
<stop stop-color="#304053"/>
<stop offset="0.23" stop-color="#2C3C4F"/>
<stop offset="0.52" stop-color="#0D1D30"/>
<stop offset="1" stop-color="#060D29"/>
</radialGradient>
<linearGradient id="paint3_linear_6418_5775" x1="88.954" y1="82.9435" x2="17.8409" y2="23.7995" gradientUnits="userSpaceOnUse">
<stop stop-color="#EEBE47"/>
<stop offset="0.12" stop-color="#F8DB76"/>
<stop offset="0.21" stop-color="#FFEE96"/>
<stop offset="0.45" stop-color="#A2621E"/>
<stop offset="0.67" stop-color="#EEA54C"/>
<stop offset="1" stop-color="#EEBE47"/>
</linearGradient>
<linearGradient id="paint4_linear_6418_5775" x1="27.0599" y1="14.3736" x2="80.3947" y2="93.7827" gradientUnits="userSpaceOnUse">
<stop stop-color="#EEBE47"/>
<stop offset="0.12" stop-color="#F8DB76"/>
<stop offset="0.21" stop-color="#FFEE96"/>
<stop offset="0.45" stop-color="#A2621E"/>
<stop offset="0.67" stop-color="#EEA54C"/>
<stop offset="1" stop-color="#EEBE47"/>
</linearGradient>
<radialGradient id="paint5_radial_6418_5775" cx="0" cy="0" r="1" gradientUnits="userSpaceOnUse" gradientTransform="translate(30.8414 41.0569) scale(60.4639)">
<stop stop-color="#304053"/>
<stop offset="0.23" stop-color="#2C3C4F"/>
<stop offset="0.52" stop-color="#0D1D30"/>
<stop offset="1" stop-color="#060D29"/>
</radialGradient>
<linearGradient id="paint6_linear_6418_5775" x1="35.4035" y1="25.9852" x2="76.3483" y2="88.8404" gradientUnits="userSpaceOnUse">
<stop stop-color="#EEBE47"/>
<stop offset="0.12" stop-color="#F8DB76"/>
<stop offset="0.21" stop-color="#FFEE96"/>
<stop offset="0.45" stop-color="#A2621E"/>
<stop offset="0.67" stop-color="#EEA54C"/>
<stop offset="1" stop-color="#EEBE47"/>
</linearGradient>
<radialGradient id="paint7_radial_6418_5775" cx="0" cy="0" r="1" gradientUnits="userSpaceOnUse" gradientTransform="translate(79.9065 49.0622) scale(101.217 101.217)">
<stop stop-color="#FFC94C"/>
<stop offset="0.14" stop-color="#A2621E"/>
<stop offset="0.16" stop-color="#955A1B"/>
<stop offset="0.25" stop-color="#6E4214"/>
<stop offset="0.34" stop-color="#4C2E0E"/>
<stop offset="0.44" stop-color="#301D08"/>
<stop offset="0.55" stop-color="#1A1004"/>
<stop offset="0.66" stop-color="#0B0702"/>
<stop offset="0.8" stop-color="#020100"/>
<stop offset="1"/>
</radialGradient>
<radialGradient id="paint8_radial_6418_5775" cx="0" cy="0" r="1" gradientUnits="userSpaceOnUse" gradientTransform="translate(25.628 27.254) scale(206.535 206.535)">
<stop offset="0.06" stop-color="#2C3C4F"/>
<stop offset="0.52" stop-color="#0D1D30"/>
<stop offset="1" stop-color="#060D29"/>
</radialGradient>
<radialGradient id="paint9_radial_6418_5775" cx="0" cy="0" r="1" gradientUnits="userSpaceOnUse" gradientTransform="translate(25.6216 0.318758) scale(206.542 206.542)">
<stop offset="0.06" stop-color="#2C3C4F"/>
<stop offset="0.52" stop-color="#0D1D30"/>
<stop offset="1" stop-color="#060D29"/>
</radialGradient>
<radialGradient id="paint10_radial_6418_5775" cx="0" cy="0" r="1" gradientUnits="userSpaceOnUse" gradientTransform="translate(-14.6842 -39.3036) scale(206.542 206.542)">
<stop offset="0.06" stop-color="#2C3C4F"/>
<stop offset="0.52" stop-color="#0D1D30"/>
<stop offset="1" stop-color="#060D29"/>
</radialGradient>
<radialGradient id="paint11_radial_6418_5775" cx="0" cy="0" r="1" gradientUnits="userSpaceOnUse" gradientTransform="translate(-14.6842 40.6964) scale(206.542 206.542)">
<stop offset="0.06" stop-color="#2C3C4F"/>
<stop offset="0.52" stop-color="#0D1D30"/>
<stop offset="1" stop-color="#060D29"/>
</radialGradient>
<clipPath id="clip0_6418_5775">
<rect width="106" height="106" fill="white"/>
</clipPath>
</defs>
</svg>
