<svg xmlns="http://www.w3.org/2000/svg" width="24" height="24" viewBox="0 0 24 24" fill="none">
    <g clip-path="url(#clip0_6040_21261)">
        <path d="M11.9999 13.0468L6.65282 18.3905C6.51617 18.5301 6.32717 18.6061 6.13188 18.5996C5.93818 18.5979 5.75288 18.52 5.61609 18.383C5.4793 18.2458 5.40199 18.0604 5.4007 17.8668C5.39942 17.6732 5.47445 17.4867 5.60953 17.3479L10.9566 12.0041L5.60953 6.66036C5.46989 6.52379 5.39386 6.33491 5.40028 6.13974C5.39586 5.94458 5.47146 5.75597 5.60968 5.61784C5.7479 5.47972 5.93661 5.40416 6.1319 5.40858C6.32717 5.40216 6.51616 5.47814 6.65284 5.6177L11.9999 10.9615L17.347 5.6177C17.4845 5.47857 17.6718 5.40017 17.8675 5.40002C18.063 5.39988 18.2506 5.47814 18.3881 5.61713C18.5257 5.75612 18.6018 5.94429 18.5995 6.13972C18.6059 6.33488 18.5299 6.52374 18.3903 6.66034L13.0432 12.0041L18.3903 17.3478C18.5664 17.5362 18.6315 17.8024 18.5619 18.0506C18.4924 18.2987 18.2984 18.4925 18.0502 18.562C17.8019 18.6315 17.5354 18.5665 17.347 18.3905L11.9999 13.0468Z" fill="white" />
    </g>
    <defs>
        <clipPath id="clip0_6040_21261">
        <rect width="24" height="24" fill="white" />
        </clipPath>
    </defs>
</svg>