<svg width="120" height="140" viewBox="0 0 120 140" fill="none" xmlns="http://www.w3.org/2000/svg">
<g id="Frame">
<g clip-path="url(#clip0_6035_20567)">
<g id="Group">
<g id="Layer 1">
<g id="Group_2">
<g id="Group_3">
<g id="Group_4" opacity="0.2">
<path id="Vector" d="M105.062 78.2199L58.7536 112.464C56.1089 114.419 52.3537 113.877 50.3809 111.255L5.83541 52.028C3.86364 49.4056 4.40985 45.6822 7.05459 43.7259L53.3632 9.48209C56.0079 7.52695 59.763 8.06857 61.7359 10.691L106.282 69.919C108.254 72.5414 107.708 76.2648 105.063 78.2211L105.062 78.2199ZM7.3148 44.0707C4.86186 45.8846 4.3549 49.3377 6.18423 51.77L50.7297 110.998C52.559 113.429 56.0416 113.933 58.4945 112.119L104.803 77.8752C107.256 76.0613 107.763 72.6081 105.934 70.177L61.3871 10.9479C59.5578 8.51676 56.0752 8.01296 53.6234 9.82685L7.3148 44.0707Z" fill="white"/>
</g>
<path id="Vector_2" opacity="0.1" d="M105.975 77.2768L57.5804 113.063C55.6041 114.525 52.8069 114.121 51.3331 112.161L5.232 50.8647C3.75821 48.9051 4.16535 46.1314 6.14161 44.6701L54.5364 8.88263C56.5126 7.42129 59.3099 7.82499 60.7837 9.78458L106.886 71.0811C108.36 73.0407 107.953 75.8144 105.976 77.2757L105.975 77.2768Z" fill="white"/>
<g id="Group_5" opacity="0.1">
<path id="Vector_3" d="M90.1595 66.0565L53.6705 93.0392C51.0583 94.9709 47.3481 94.4349 45.3999 91.8447L20.147 58.2693C18.1988 55.6791 18.7394 52.0002 21.3516 50.0684L57.8406 23.0857C60.4528 21.154 64.1631 21.69 66.1113 24.2802L91.3641 57.8556C93.3123 60.4458 92.7717 64.1247 90.1595 66.0565ZM21.5244 50.2986C19.04 52.1359 18.5263 55.6347 20.3792 58.098L45.632 91.6735C47.4849 94.1368 51.0135 94.6462 53.4978 92.809L89.9868 65.8263C92.4711 63.989 92.9848 60.4902 91.132 58.0269L65.8791 24.4515C64.0263 21.9881 60.4977 21.4787 58.0134 23.316L21.5244 50.2986Z" fill="white"/>
</g>
<path id="Subtract" fill-rule="evenodd" clip-rule="evenodd" d="M51.9881 95.4681L90.5633 66.9429C92.5395 65.4815 92.9467 62.7078 91.4729 60.7483L64.6644 25.1043C63.1906 23.1447 60.3934 22.741 58.4171 24.2023L19.8419 52.7275C17.8657 54.1889 17.4585 56.9626 18.9323 58.9221L45.7408 94.5661C47.2146 96.5257 50.0118 96.9294 51.9881 95.4681ZM51.9706 62.2538L51.3981 58.8397L57.3812 54.5945L57.8799 58.061L51.9706 62.2538ZM62.5881 57.7604L62.8543 59.5687L50.5917 68.2697L51.1656 71.6837L63.4006 63.0022L63.3997 62.9959L68.4338 59.417L62.5881 57.7604ZM40.9158 57.4209L45.9844 53.8175L45.9837 53.8214L58.182 45.166L58.68 48.6338L46.4956 57.2794L46.7613 59.0775L40.9158 57.4209Z" fill="#FFDBFD"/>
<path id="Vector_4" d="M50.7039 20.4811C50.8699 20.7013 50.8239 21.0138 50.6018 21.1773C50.3797 21.3419 50.0646 21.2963 49.8997 21.0761C49.7337 20.8559 49.7797 20.5434 50.0018 20.3799C50.2238 20.2153 50.539 20.2609 50.7039 20.4811Z" fill="white"/>
<path id="Vector_5" d="M52.5276 19.1321C52.6936 19.3523 52.6476 19.6648 52.4255 19.8283C52.2035 19.9929 51.8883 19.9473 51.7234 19.7271C51.5574 19.5069 51.6034 19.1944 51.8255 19.0309C52.0476 18.8663 52.3627 18.9119 52.5276 19.1321Z" fill="white"/>
<path id="Vector_6" d="M54.3513 17.7842C54.5173 18.0044 54.4713 18.3169 54.2493 18.4804C54.0272 18.645 53.712 18.5994 53.5472 18.3792C53.3823 18.159 53.4271 17.8465 53.6492 17.683C53.8713 17.5195 54.1865 17.564 54.3513 17.7842Z" fill="white"/>
<g id="Group_6">
<path id="Vector_7" d="M17.9204 48.9661C19.3555 48.1925 19.8864 46.4118 19.1062 44.9888C18.326 43.5658 16.5302 43.0394 15.0951 43.813C13.66 44.5866 13.129 46.3673 13.9092 47.7903C14.6894 49.2133 16.4852 49.7397 17.9204 48.9661Z" fill="white"/>
<g id="Vector_8" style="mix-blend-mode:overlay" opacity="0.65">
<path d="M18.3008 48.775C16.974 49.7559 15.0897 49.4845 14.1004 48.1689C13.1112 46.8532 13.386 44.9848 14.7117 44.0039C16.0386 43.023 17.9229 43.2955 18.9121 44.61C19.9014 45.9257 19.6266 47.7941 18.3008 48.775ZM14.7644 44.0729C13.4757 45.026 13.2099 46.8399 14.17 48.1166C15.1312 49.3944 16.9605 49.658 18.2481 48.7049C19.5368 47.7518 19.8027 45.9379 18.8426 44.6612C17.8814 43.3844 16.052 43.1198 14.7644 44.0717V44.0729Z" fill="#1D3444"/>
</g>
</g>
<path id="Vector_9" d="M94.412 69.5831L83.748 77.4676C83.4555 77.6839 83.3952 78.0943 83.6133 78.3843L85.3907 80.7479C85.6087 81.0379 86.0227 81.0977 86.3152 80.8814L96.9791 72.997C97.2716 72.7807 97.3319 72.3703 97.1138 72.0803L95.3365 69.7167C95.1184 69.4267 94.7044 69.3669 94.412 69.5831Z" fill="white"/>
</g>
</g>
<g id="Group_7">
<g id="Group_8">
<g id="Group_9" opacity="0.2">
<path id="Vector_10" d="M120.001 134.096L98.078 104.947C96.9856 103.494 97.2884 101.432 98.7532 100.349L120.001 84.637V84.3156L98.5973 100.142C97.0181 101.31 96.6917 103.534 97.8694 105.1L120.001 134.525V134.095V134.096Z" fill="white"/>
</g>
<path id="Vector_11" opacity="0.1" d="M120.001 84.4768L99.4934 99.6408C97.5172 101.102 97.11 103.876 98.5838 105.835L120.001 134.311V84.4768Z" fill="white"/>
<g id="Group_10" opacity="0.1">
<path id="Vector_12" d="M120.001 126.605L106.555 108.727C105.449 107.256 105.755 105.167 107.239 104.069L120.001 94.6317V94.4182L107.135 103.931C105.575 105.085 105.252 107.282 106.416 108.829L120.001 126.892V126.605Z" fill="white"/>
</g>
<path id="Vector_13" d="M120.001 95.3391L107.675 104.453C105.699 105.914 105.292 108.688 106.766 110.648L120.001 128.244V95.338V95.3391Z" fill="#FFB09E"/>
<g id="Group_11">
<path id="Vector_14" d="M105.614 102.826C106.228 102.075 106.112 100.972 105.354 100.363C104.596 99.7537 103.483 99.8692 102.869 100.621C102.255 101.372 102.371 102.475 103.129 103.084C103.887 103.694 105 103.578 105.614 102.826Z" fill="white"/>
<g id="Vector_15" style="mix-blend-mode:overlay" opacity="0.65">
<path d="M105.315 103.16C104.523 103.746 103.398 103.583 102.807 102.797C102.216 102.012 102.379 100.895 103.172 100.31C103.964 99.7242 105.089 99.8866 105.68 100.673C106.271 101.458 106.108 102.574 105.315 103.16ZM103.203 100.351C102.433 100.92 102.274 102.004 102.848 102.767C103.421 103.53 104.515 103.688 105.284 103.118C106.054 102.55 106.213 101.466 105.639 100.704C105.066 99.9411 103.972 99.7832 103.203 100.353V100.351Z" fill="#1D3444"/>
</g>
</g>
</g>
</g>
<g id="Group_12">
<g id="Group_13">
<g id="Group_14" opacity="0.2">
<path id="Vector_16" d="M120.001 47.3772L110.527 54.3837C108.485 55.8928 105.586 55.4747 104.064 53.4506L66.9839 4.14955C66.0552 2.91508 65.8522 1.36587 66.2952 0.00128174H65.915C65.4832 1.44484 65.7176 3.06633 66.6934 4.3642L103.773 53.6652C105.415 55.8472 108.541 56.2988 110.743 54.6717L120.002 47.8254V47.3783L120.001 47.3772Z" fill="white"/>
</g>
<path id="Vector_17" opacity="0.1" d="M120.001 0.00109863H65.9644C65.5438 1.31453 65.7445 2.80146 66.6384 3.99033L104.119 53.8241C105.593 55.7837 108.39 56.1874 110.366 54.726L120.001 47.6017V0.00109863Z" fill="white"/>
<g id="Group_15" opacity="0.1">
<path id="Vector_18" d="M120.001 28.2282L106.367 38.3098C104.298 39.839 101.362 39.4152 99.8198 37.3645L78.7999 9.41645C77.2577 7.36567 77.685 4.4541 79.7533 2.92491L83.7069 0.00109863H83.3031L79.6086 2.73362C77.4338 4.34177 76.9841 7.40459 78.6059 9.55992L99.6258 37.5079C101.248 39.6644 104.336 40.1103 106.51 38.5022L120 28.5263V28.2282H120.001Z" fill="white"/>
</g>
<path id="Subtract_2" fill-rule="evenodd" clip-rule="evenodd" d="M99.0963 7.24507L103.212 4.31915L103.211 4.32231L109.301 0.00109863H85.0405L78.9525 4.50303C76.9762 5.96438 76.5691 8.73805 78.0428 10.6976L99.4632 39.1783C100.937 41.1379 103.734 41.5416 105.71 40.0803L120.001 29.5128V9.88971L117.353 11.772L117.354 11.7771L107.419 18.8264L106.953 16.0543L116.91 8.98906L116.694 7.52071L120.001 8.4578V0.00109863H113.505L113.521 0.109976L103.627 7.1302L103.843 8.59026L99.0963 7.24507ZM108.073 11.1694L107.608 8.39714L112.466 4.95003L112.871 7.76485L108.073 11.1694Z" fill="#A9E9F7"/>
<g id="Group_16">
<path id="Vector_19" d="M73.1381 0.00111214C73.1919 0.398145 73.3456 0.786281 73.6035 1.12993C74.4167 2.21093 75.9589 2.43336 77.0491 1.62706C77.6009 1.2189 77.9295 0.626133 78.0159 0H73.1381V0.00111214Z" fill="white"/>
<g id="Vector_20" style="mix-blend-mode:overlay" opacity="0.65">
<path d="M77.9778 0.00128174C77.8914 0.616293 77.5684 1.19905 77.0267 1.59942C75.9544 2.39238 74.4313 2.17217 73.6316 1.10897C73.3781 0.771993 73.2278 0.39053 73.174 0.00128174H73.1011C73.1549 0.4061 73.3097 0.80202 73.5733 1.15234C74.3965 2.2478 75.9656 2.47356 77.0693 1.65725C77.629 1.24354 77.9632 0.639648 78.0496 0.00239388H77.9767L77.9778 0.00128174Z" fill="#1D3444"/>
</g>
</g>
</g>
</g>
</g>
</g>
</g>
</g>
<defs>
<clipPath id="clip0_6035_20567">
<rect width="120" height="140" rx="8" fill="white"/>
</clipPath>
</defs>
</svg>
