<svg width="173" height="34" viewBox="0 0 173 34" fill="none" xmlns="http://www.w3.org/2000/svg">
<g id="Group 4208">
<g id="by JEDISWAP">
<path d="M98.1009 31.0622L99.4639 23.6507H100.66L100.052 26.9545H100.082C100.387 26.6506 100.942 26.2388 101.839 26.2388C103.204 26.2388 103.953 27.3172 103.697 28.7093C103.441 30.1014 102.356 31.1798 100.88 31.1798C100.212 31.1798 99.6313 30.9249 99.387 30.3563H99.3671L99.2373 31.0622H98.1009ZM102.501 28.7093C102.636 27.974 102.232 27.2976 101.355 27.2976C100.478 27.2976 99.8251 27.974 99.6899 28.7093C99.5547 29.4446 99.9586 30.121 100.836 30.121C101.713 30.121 102.366 29.4446 102.501 28.7093Z" fill="white"/>
<path d="M106.416 31.1014L105.245 26.3565H106.561L107.296 29.621H107.316L109.112 26.3565H110.358L107.045 32.0719C106.534 32.9543 106.03 33.415 104.974 33.415C104.665 33.415 104.363 33.3758 104.078 33.2974L104.422 32.2386C104.599 32.3072 104.799 32.3562 105.009 32.3562C105.597 32.3562 105.794 32.1504 106.084 31.6602L106.416 31.1014Z" fill="white"/>
<path d="M119.287 24.1212L118.364 29.1407C118.16 30.2485 117.27 31.2386 115.855 31.2386C114.748 31.2386 114.093 30.7386 114.075 29.6406L115.302 29.3661C115.299 29.8171 115.562 30.121 116 30.121C116.718 30.121 117.021 29.6112 117.174 28.7779L118.031 24.1212H119.287Z" fill="white"/>
<path d="M120.183 31.0622L121.46 24.1212H126.135L125.929 25.2388H122.51L122.196 26.9447H125.436L125.231 28.0623H121.991L121.645 29.9446H125.243L125.038 31.0622H120.183Z" fill="white"/>
<path d="M126.925 31.0622L128.201 24.1212H130.982C132.836 24.1212 134.365 25.2388 133.933 27.5917C133.496 29.9642 131.251 31.0622 129.556 31.0622H126.925ZM128.386 29.9446H129.323C130.898 29.9446 132.307 29.2779 132.617 27.5917C132.927 25.9055 131.933 25.2388 130.398 25.2388H129.252L128.386 29.9446Z" fill="white"/>
<path d="M135.106 31.0622L136.383 24.1212H137.639L136.362 31.0622H135.106Z" fill="white"/>
<path d="M144.112 24.6604L143.02 25.6114C142.819 25.2388 142.373 25.0624 141.885 25.0624C141.307 25.0624 140.682 25.3173 140.564 25.9545C140.308 27.3466 143.804 26.5525 143.349 29.023C143.075 30.5132 141.746 31.2386 140.36 31.2386C139.483 31.2386 138.675 30.9739 138.221 30.2975L139.334 29.3956C139.558 29.8563 140.037 30.121 140.596 30.121C141.174 30.121 141.889 29.8073 142.007 29.1701C142.286 27.6505 138.776 28.523 139.232 26.0427C139.496 24.6114 140.914 23.9448 142.22 23.9448C142.958 23.9448 143.657 24.1506 144.112 24.6604Z" fill="white"/>
<path d="M146.226 31.0622L145.419 24.1212H146.795L147.201 29.1211H147.221L149.725 24.1212H150.961L151.597 29.1211H151.617L153.922 24.1212H155.198L151.868 31.0622H150.672L150.009 25.778H149.989L147.382 31.0622H146.226Z" fill="white"/>
<path d="M154.321 31.0622L158.667 24.1212H159.754L161.518 31.0622H160.082L159.716 29.474H156.656L155.726 31.0622H154.321ZM157.279 28.4152H159.472L158.905 25.5918L157.279 28.4152Z" fill="white"/>
<path d="M162.95 31.0622L164.226 24.1212H166.598C167.964 24.1212 169.114 24.5918 168.831 26.131C168.51 27.876 167.126 28.1897 165.631 28.1897H164.734L164.206 31.0622H162.95ZM164.929 27.1309H165.686C166.404 27.1309 167.338 27.0917 167.511 26.1506C167.668 25.2977 166.862 25.18 166.185 25.18H165.287L164.929 27.1309Z" fill="white"/>
</g>
<g id="MISSIONS">
<path d="M26.542 19.7982H19.3341L20.697 12.0905L14.6096 19.7982H13.3982L9.97592 12.0905L8.61307 19.7982H1.43542L4.91825 0.0906796H12.217L15.8513 7.94952L22.1507 0.0906796H30.0249L26.542 19.7982Z" fill="#EF35FF"/>
<path d="M37.2245 19.7982H30.0469L33.5297 0.0906796H40.7073L37.2245 19.7982Z" fill="#EF35FF"/>
<path d="M40.7355 19.7982L41.7955 13.8739H51.608C51.1436 13.2694 50.6287 12.6447 50.0634 11.9998C49.5183 11.355 49.0034 10.69 48.5189 10.0049C48.0343 9.29963 47.6103 8.5742 47.2469 7.82862C46.9036 7.08303 46.7017 6.3173 46.6412 5.53142V5.35006C46.6412 5.14855 46.6714 4.90674 46.732 4.62463C46.8532 3.9798 47.0753 3.38535 47.3983 2.84127C47.7415 2.27705 48.1453 1.79343 48.6097 1.39041C49.0741 0.987394 49.5889 0.675055 50.1543 0.453394C50.7196 0.211585 51.295 0.0906796 51.8805 0.0906796H64.8124L63.7524 6.01504H55.1817C55.7066 6.76062 56.2416 7.47598 56.7868 8.16111C57.3521 8.84624 57.867 9.54144 58.3313 10.2467C58.7957 10.9319 59.1692 11.6371 59.4519 12.3626C59.7547 13.088 59.9062 13.8537 59.9062 14.6598C59.9062 15.0225 59.8759 15.3953 59.8153 15.7781C59.7144 16.3625 59.5226 16.8965 59.2399 17.3801C58.9572 17.8638 58.614 18.2869 58.2102 18.6496C57.8064 19.0124 57.342 19.2945 56.8171 19.496C56.3123 19.6975 55.7773 19.7982 55.2119 19.7982H40.7355Z" fill="#EF35FF"/>
<path d="M62.2784 19.7982L63.3384 13.8739H73.1508C72.6865 13.2694 72.1716 12.6447 71.6063 11.9998C71.0612 11.355 70.5463 10.69 70.0617 10.0049C69.5772 9.29963 69.1532 8.5742 68.7897 7.82862C68.4465 7.08303 68.2446 6.3173 68.184 5.53142V5.35006C68.184 5.14855 68.2143 4.90674 68.2749 4.62463C68.396 3.9798 68.6181 3.38535 68.9412 2.84127C69.2844 2.27705 69.6882 1.79343 70.1526 1.39041C70.617 0.987394 71.1318 0.675055 71.6972 0.453394C72.2625 0.211585 72.8379 0.0906796 73.4234 0.0906796H86.3553L85.2953 6.01504H76.7245C77.2495 6.76062 77.7845 7.47598 78.3297 8.16111C78.895 8.84624 79.4098 9.54144 79.8742 10.2467C80.3386 10.9319 80.7121 11.6371 80.9948 12.3626C81.2976 13.088 81.4491 13.8537 81.4491 14.6598C81.4491 15.0225 81.4188 15.3953 81.3582 15.7781C81.2572 16.3625 81.0655 16.8965 80.7828 17.3801C80.5001 17.8638 80.1569 18.2869 79.7531 18.6496C79.3493 19.0124 78.8849 19.2945 78.36 19.496C77.8552 19.6975 77.3202 19.7982 76.7548 19.7982H62.2784Z" fill="#EF35FF"/>
<path d="M93.572 19.7982H86.3943L89.8772 0.0906796H97.0548L93.572 19.7982Z" fill="#EF35FF"/>
<path d="M108.803 19.9494C107.229 19.9494 105.805 19.8083 104.533 19.5262C103.261 19.2441 102.181 18.8008 101.293 18.1962C100.404 17.5716 99.7178 16.7857 99.2332 15.8386C98.7689 14.8713 98.5367 13.7026 98.5367 12.3323C98.5367 11.9696 98.5468 11.5968 98.567 11.214C98.6073 10.8311 98.6679 10.4281 98.7487 10.0049V9.94446C99.0717 8.17118 99.6168 6.65987 100.384 5.41051C101.171 4.14101 102.151 3.11331 103.322 2.32743C104.493 1.52139 105.835 0.937016 107.35 0.5743C108.864 0.191433 110.52 0 112.317 0C113.891 0 115.315 0.141056 116.587 0.423168C117.859 0.705281 118.939 1.1486 119.827 1.75313C120.716 2.35765 121.402 3.13346 121.887 4.08055C122.371 5.02764 122.614 6.17624 122.614 7.52635C122.614 7.90922 122.593 8.30216 122.553 8.70518C122.513 9.08805 122.452 9.50114 122.371 9.94446V10.0049C122.048 11.7983 121.493 13.3298 120.706 14.5993C119.918 15.8487 118.939 16.8764 117.768 17.6824C116.617 18.4683 115.274 19.0426 113.74 19.4053C112.226 19.768 110.58 19.9494 108.803 19.9494ZM111.287 5.86391C110.398 5.86391 109.651 5.95459 109.046 6.13594C108.44 6.3173 107.935 6.58934 107.531 6.95205C107.128 7.29462 106.815 7.71779 106.593 8.22156C106.37 8.72533 106.199 9.29963 106.078 9.94446V10.0049C105.997 10.146 105.957 10.5691 105.957 11.2744C105.957 12.1812 106.239 12.8764 106.805 13.36C107.39 13.8235 108.41 14.0552 109.863 14.0552C110.711 14.0552 111.438 13.9646 112.044 13.7832C112.65 13.6018 113.154 13.3399 113.558 12.9973C113.962 12.6548 114.275 12.2316 114.497 11.7278C114.739 11.224 114.921 10.6497 115.042 10.0049V9.94446C115.083 9.74295 115.113 9.54144 115.133 9.33993C115.153 9.13842 115.163 8.93692 115.163 8.73541C115.163 7.82862 114.871 7.12334 114.285 6.61956C113.7 6.11579 112.7 5.86391 111.287 5.86391Z" fill="#EF35FF"/>
<path d="M145.418 19.7982H138.452L132.91 10.7606L131.305 19.7982H124.127L127.61 0.0906796H134.606L140.118 9.09812L141.723 0.0906796H148.9L145.418 19.7982Z" fill="#EF35FF"/>
<path d="M148.923 19.7982L149.983 13.8739H159.796C159.331 13.2694 158.816 12.6447 158.251 11.9998C157.706 11.355 157.191 10.69 156.706 10.0049C156.222 9.29963 155.798 8.5742 155.434 7.82862C155.091 7.08303 154.889 6.3173 154.829 5.53142V5.35006C154.829 5.14855 154.859 4.90674 154.92 4.62463C155.041 3.9798 155.263 3.38535 155.586 2.84127C155.929 2.27705 156.333 1.79343 156.797 1.39041C157.262 0.987394 157.777 0.675055 158.342 0.453394C158.907 0.211585 159.483 0.0906796 160.068 0.0906796H173L171.94 6.01504H163.369C163.894 6.76062 164.429 7.47598 164.974 8.16111C165.54 8.84624 166.055 9.54144 166.519 10.2467C166.983 10.9319 167.357 11.6371 167.639 12.3626C167.942 13.088 168.094 13.8537 168.094 14.6598C168.094 15.0225 168.063 15.3953 168.003 15.7781C167.902 16.3625 167.71 16.8965 167.428 17.3801C167.145 17.8638 166.802 18.2869 166.398 18.6496C165.994 19.0124 165.53 19.2945 165.005 19.496C164.5 19.6975 163.965 19.7982 163.4 19.7982H148.923Z" fill="#EF35FF"/>
</g>
<g id="MISSIONS_2">
<path d="M24.9607 19.7982H17.7946L19.1496 12.0905L13.0976 19.7982H11.8932L8.49084 12.0905L7.13592 19.7982H0L3.46258 0.0906796H10.7189L14.3321 7.94952L20.5948 0.0906796H28.4232L24.9607 19.7982Z" fill="#FCD9FF"/>
<path d="M35.581 19.7982H28.4451L31.9077 0.0906796H39.0436L35.581 19.7982Z" fill="#FCD9FF"/>
<path d="M39.0716 19.7982L40.1254 13.8739H49.8809C49.4192 13.2694 48.9073 12.6447 48.3453 11.9998C47.8033 11.355 47.2915 10.69 46.8097 10.0049C46.328 9.29963 45.9064 8.5742 45.5451 7.82862C45.2039 7.08303 45.0031 6.3173 44.9429 5.53142V5.35006C44.9429 5.14855 44.973 4.90674 45.0332 4.62463C45.1537 3.9798 45.3745 3.38535 45.6957 2.84127C46.0369 2.27705 46.4384 1.79343 46.9 1.39041C47.3617 0.987394 47.8736 0.675055 48.4356 0.453394C48.9976 0.211585 49.5697 0.0906796 50.1518 0.0906796H63.0085L61.9547 6.01504H53.4338C53.9557 6.76062 54.4876 7.47598 55.0296 8.16111C55.5916 8.84624 56.1035 9.54144 56.5651 10.2467C57.0268 10.9319 57.3982 11.6371 57.6792 12.3626C57.9803 13.088 58.1308 13.8537 58.1308 14.6598C58.1308 15.0225 58.1007 15.3953 58.0405 15.7781C57.9401 16.3625 57.7494 16.8965 57.4684 17.3801C57.1874 17.8638 56.8462 18.2869 56.4447 18.6496C56.0432 19.0124 55.5816 19.2945 55.0597 19.496C54.5578 19.6975 54.0259 19.7982 53.4639 19.7982H39.0716Z" fill="#FCD9FF"/>
<path d="M60.4892 19.7982L61.5431 13.8739H71.2985C70.8368 13.2694 70.325 12.6447 69.7629 11.9998C69.2209 11.355 68.7091 10.69 68.2273 10.0049C67.7456 9.29963 67.3241 8.5742 66.9627 7.82862C66.6215 7.08303 66.4208 6.3173 66.3606 5.53142V5.35006C66.3606 5.14855 66.3907 4.90674 66.4509 4.62463C66.5713 3.9798 66.7921 3.38535 67.1133 2.84127C67.4545 2.27705 67.856 1.79343 68.3177 1.39041C68.7793 0.987394 69.2912 0.675055 69.8532 0.453394C70.4153 0.211585 70.9874 0.0906796 71.5695 0.0906796H84.4262L83.3723 6.01504H74.8514C75.3733 6.76062 75.9052 7.47598 76.4472 8.16111C77.0092 8.84624 77.5211 9.54144 77.9828 10.2467C78.4445 10.9319 78.8158 11.6371 79.0968 12.3626C79.3979 13.088 79.5485 13.8537 79.5485 14.6598C79.5485 15.0225 79.5183 15.3953 79.4581 15.7781C79.3578 16.3625 79.1671 16.8965 78.8861 17.3801C78.605 17.8638 78.2638 18.2869 77.8623 18.6496C77.4609 19.0124 76.9992 19.2945 76.4773 19.496C75.9755 19.6975 75.4436 19.7982 74.8815 19.7982H60.4892Z" fill="#FCD9FF"/>
<path d="M91.6009 19.7982H84.465L87.9276 0.0906796H95.0635L91.6009 19.7982Z" fill="#FCD9FF"/>
<path d="M106.744 19.9494C105.178 19.9494 103.763 19.8083 102.498 19.5262C101.234 19.2441 100.16 18.8008 99.2767 18.1962C98.3935 17.5716 97.711 16.7857 97.2292 15.8386C96.7676 14.8713 96.5367 13.7026 96.5367 12.3323C96.5367 11.9696 96.5468 11.5968 96.5668 11.214C96.607 10.8311 96.6672 10.4281 96.7475 10.0049V9.94446C97.0686 8.17118 97.6106 6.65987 98.3734 5.41051C99.1562 4.14101 100.13 3.11331 101.294 2.32743C102.458 1.52139 103.793 0.937016 105.299 0.5743C106.804 0.191433 108.45 0 110.236 0C111.802 0 113.217 0.141056 114.482 0.423168C115.746 0.705281 116.82 1.1486 117.704 1.75313C118.587 2.35765 119.269 3.13346 119.751 4.08055C120.233 5.02764 120.474 6.17624 120.474 7.52635C120.474 7.90922 120.454 8.30216 120.413 8.70518C120.373 9.08805 120.313 9.50114 120.233 9.94446V10.0049C119.912 11.7983 119.36 13.3298 118.577 14.5993C117.794 15.8487 116.82 16.8764 115.656 17.6824C114.512 18.4683 113.177 19.0426 111.652 19.4053C110.146 19.768 108.51 19.9494 106.744 19.9494ZM109.213 5.86391C108.33 5.86391 107.587 5.95459 106.985 6.13594C106.382 6.3173 105.881 6.58934 105.479 6.95205C105.078 7.29462 104.767 7.71779 104.546 8.22156C104.325 8.72533 104.154 9.29963 104.034 9.94446V10.0049C103.954 10.146 103.914 10.5691 103.914 11.2744C103.914 12.1812 104.195 12.8764 104.757 13.36C105.339 13.8235 106.352 14.0552 107.798 14.0552C108.641 14.0552 109.363 13.9646 109.965 13.7832C110.568 13.6018 111.069 13.3399 111.471 12.9973C111.872 12.6548 112.184 12.2316 112.404 11.7278C112.645 11.224 112.826 10.6497 112.946 10.0049V9.94446C112.986 9.74295 113.017 9.54144 113.037 9.33993C113.057 9.13842 113.067 8.93692 113.067 8.73541C113.067 7.82862 112.776 7.12334 112.194 6.61956C111.611 6.11579 110.618 5.86391 109.213 5.86391Z" fill="#FCD9FF"/>
<path d="M143.145 19.7982H136.22L130.71 10.7606L129.114 19.7982H121.978L125.441 0.0906796H132.396L137.876 9.09812L139.472 0.0906796H146.608L143.145 19.7982Z" fill="#FCD9FF"/>
<path d="M146.63 19.7982L147.684 13.8739H157.439C156.978 13.2694 156.466 12.6447 155.904 11.9998C155.362 11.355 154.85 10.69 154.368 10.0049C153.887 9.29963 153.465 8.5742 153.104 7.82862C152.762 7.08303 152.562 6.3173 152.502 5.53142V5.35006C152.502 5.14855 152.532 4.90674 152.592 4.62463C152.712 3.9798 152.933 3.38535 153.254 2.84127C153.596 2.27705 153.997 1.79343 154.459 1.39041C154.92 0.987394 155.432 0.675055 155.994 0.453394C156.556 0.211585 157.128 0.0906796 157.71 0.0906796H170.567L169.513 6.01504H160.992C161.514 6.76062 162.046 7.47598 162.588 8.16111C163.15 8.84624 163.662 9.54144 164.124 10.2467C164.585 10.9319 164.957 11.6371 165.238 12.3626C165.539 13.088 165.689 13.8537 165.689 14.6598C165.689 15.0225 165.659 15.3953 165.599 15.7781C165.499 16.3625 165.308 16.8965 165.027 17.3801C164.746 17.8638 164.405 18.2869 164.003 18.6496C163.602 19.0124 163.14 19.2945 162.618 19.496C162.116 19.6975 161.585 19.7982 161.022 19.7982H146.63Z" fill="#FCD9FF"/>
</g>
</g>
</svg>
