<svg width="316" height="279" viewBox="0 0 316 279" fill="none" xmlns="http://www.w3.org/2000/svg">
<path opacity="0.03" d="M110.41 35.4702C110.41 50.3781 98.318 62.4702 83.4102 62.4702C68.5023 62.4702 56.4102 50.3781 56.4102 35.4702C56.4102 20.5623 68.5023 8.47021 83.4102 8.47021C98.318 8.47021 110.41 20.5623 110.41 35.4702Z" fill="white"/>
<path opacity="0.03" d="M95.0499 35.4102C95.0499 41.7402 89.9199 46.8702 83.5899 46.8702C77.2599 46.8702 72.1299 41.7402 72.1299 35.4102C72.1299 29.0802 77.2599 23.9502 83.5899 23.9502C89.9199 23.9502 95.0499 29.0802 95.0499 35.4102Z" fill="white"/>
<path d="M87.0801 39.4099C82.9901 39.4099 79.6801 36.0999 79.6801 32.0099C79.6801 30.0099 80.4701 28.2099 81.7601 26.8799C77.9401 27.7799 75.0901 31.1999 75.0901 35.2999C75.0901 40.0799 78.9701 43.9599 83.7501 43.9599C87.8001 43.9599 91.1801 41.1799 92.1301 37.4299C90.8101 38.6599 89.0401 39.4199 87.0901 39.4199L87.0801 39.4099Z" fill="#B2A7FF"/>
<path d="M177.72 64.3198L179.09 66.8398L181.61 68.2098L179.09 69.5898L177.72 72.0998L176.34 69.5898L173.82 68.2098L176.34 66.8398L177.72 64.3198Z" fill="#B2A7FF"/>
<path d="M122.59 14.2798L123.97 16.7998L126.49 18.1798L123.97 19.5498L122.59 22.0698L121.22 19.5498L118.7 18.1798L121.22 16.7998L122.59 14.2798Z" fill="#B2A7FF"/>
<path d="M91.0799 51.7998L92.4499 54.3098L94.9699 55.6898L92.4499 57.0598L91.0799 59.5798L89.6999 57.0598L87.1799 55.6898L89.6999 54.3098L91.0799 51.7998Z" fill="#B2A7FF"/>
<path d="M192.12 53.7402L192.81 55.0002L194.07 55.6902L192.81 56.3802L192.12 57.6302L191.43 56.3802L190.17 55.6902L191.43 55.0002L192.12 53.7402Z" fill="#B2A7FF"/>
<path d="M278.66 29.75L279.34 31.01L280.6 31.69L279.34 32.38L278.66 33.64L277.97 32.38L276.71 31.69L277.97 31.01L278.66 29.75Z" fill="#B2A7FF"/>
<path d="M241.65 134.65L242.34 135.91L243.6 136.6L242.34 137.29L241.65 138.54L240.96 137.29L239.71 136.6L240.96 135.91L241.65 134.65Z" fill="#B2A7FF"/>
<path d="M205.87 127.27L206.56 128.53L207.82 129.21L206.56 129.9L205.87 131.16L205.18 129.9L203.93 129.21L205.18 128.53L205.87 127.27Z" fill="#B2A7FF"/>
<path d="M38.16 129.21L38.85 130.47L40.11 131.16L38.85 131.85L38.16 133.1L37.47 131.85L36.21 131.16L37.47 130.47L38.16 129.21Z" fill="#B2A7FF"/>
<path d="M232.88 93.4502L233.57 94.1302L234.82 94.5002L233.57 94.8702L232.88 95.5402L232.19 94.8702L230.93 94.5002L232.19 94.1302L232.88 93.4502Z" fill="#B2A7FF"/>
<path d="M164.38 25.6899L164.84 26.5399L165.69 27.0099L164.84 27.4699L164.38 28.3199L163.91 27.4699L163.06 27.0099L163.91 26.5399L164.38 25.6899Z" fill="#B2A7FF"/>
<path d="M182.63 12.23L182.89 12.71L183.37 12.97L182.89 13.23L182.63 13.7L182.37 13.23L181.9 12.97L182.37 12.71L182.63 12.23Z" fill="#B2A7FF"/>
<path d="M151.63 28.9102L151.9 29.3802L152.37 29.6402L151.9 29.9002L151.63 30.3802L151.37 29.9002L150.9 29.6402L151.37 29.3802L151.63 28.9102Z" fill="#B2A7FF"/>
<path d="M142.72 13.5498L142.98 14.0198L143.45 14.2798L142.98 14.5398L142.72 15.0198L142.45 14.5398L141.98 14.2798L142.45 14.0198L142.72 13.5498Z" fill="#B2A7FF"/>
<path d="M129.11 30.2202L129.37 30.7002L129.85 30.9602L129.37 31.2202L129.11 31.6902L128.85 31.2202L128.37 30.9602L128.85 30.7002L129.11 30.2202Z" fill="#B2A7FF"/>
<path d="M158.59 58.8501L158.85 59.3201L159.32 59.5801L158.85 59.8401L158.59 60.3201L158.33 59.8401L157.85 59.5801L158.33 59.3201L158.59 58.8501Z" fill="#B2A7FF"/>
<path d="M127.15 81.6499L127.41 82.1199L127.88 82.3799L127.41 82.6399L127.15 83.1199L126.89 82.6399L126.41 82.3799L126.89 82.1199L127.15 81.6499Z" fill="#B2A7FF"/>
<path d="M141.16 91.3999L141.42 91.8799L141.89 92.1399L141.42 92.3999L141.16 92.8699L140.9 92.3999L140.42 92.1399L140.9 91.8799L141.16 91.3999Z" fill="#B2A7FF"/>
<path d="M105.73 107.87L106 108.35L106.47 108.61L106 108.87L105.73 109.34L105.47 108.87L105 108.61L105.47 108.35L105.73 107.87Z" fill="#B2A7FF"/>
<path d="M29.75 108.61L30.01 109.08L30.48 109.34L30.01 109.6L29.75 110.08L29.49 109.6L29.01 109.34L29.49 109.08L29.75 108.61Z" fill="#B2A7FF"/>
<path d="M20.3801 124.67L20.6401 125.15L21.1201 125.41L20.6401 125.67L20.3801 126.14L20.1201 125.67L19.6501 125.41L20.1201 125.15L20.3801 124.67Z" fill="#B2A7FF"/>
<path d="M76.8902 114.63L77.1502 115.11L77.6302 115.37L77.1502 115.63L76.8902 116.1L76.6302 115.63L76.1602 115.37L76.6302 115.11L76.8902 114.63Z" fill="#B2A7FF"/>
<path d="M87.9199 123.94L88.1799 124.41L88.6599 124.67L88.1799 124.93L87.9199 125.41L87.6599 124.93L87.1799 124.67L87.6599 124.41L87.9199 123.94Z" fill="#B2A7FF"/>
<path d="M264.15 115.37L264.41 115.84L264.89 116.1L264.41 116.36L264.15 116.84L263.89 116.36L263.41 116.1L263.89 115.84L264.15 115.37Z" fill="#B2A7FF"/>
<path d="M173.34 108.61L173.61 109.08L174.08 109.34L173.61 109.6L173.34 110.08L173.08 109.6L172.61 109.34L173.08 109.08L173.34 108.61Z" fill="#B2A7FF"/>
<path d="M256.66 82.3799L256.92 82.8599L257.4 83.1199L256.92 83.3799L256.66 83.8499L256.4 83.3799L255.92 83.1199L256.4 82.8599L256.66 82.3799Z" fill="#B2A7FF"/>
<path d="M257.4 116.1L257.66 116.58L258.13 116.84L257.66 117.1L257.4 117.58L257.14 117.1L256.66 116.84L257.14 116.58L257.4 116.1Z" fill="#B2A7FF"/>
<path d="M230.93 116.84L231.19 117.32L231.67 117.58L231.19 117.84L230.93 118.31L230.67 117.84L230.2 117.58L230.67 117.32L230.93 116.84Z" fill="#B2A7FF"/>
<path d="M235.53 64.3198L235.79 64.7998L236.26 65.0598L235.79 65.3198L235.53 65.7898L235.27 65.3198L234.79 65.0598L235.27 64.7998L235.53 64.3198Z" fill="#B2A7FF"/>
<path d="M16.77 63.5801L17.03 64.0601L17.51 64.3201L17.03 64.5801L16.77 65.0601L16.51 64.5801L16.04 64.3201L16.51 64.0601L16.77 63.5801Z" fill="#B2A7FF"/>
<path d="M64.8801 38.3599L65.1401 38.8399L65.6101 39.0999L65.1401 39.3599L64.8801 39.8299L64.6201 39.3599L64.1401 39.0999L64.6201 38.8399L64.8801 38.3599Z" fill="#B2A7FF"/>
<path d="M87.1799 28.9102L87.45 29.3802L87.92 29.6402L87.45 29.9002L87.1799 30.3802L86.92 29.9002L86.45 29.6402L86.92 29.3802L87.1799 28.9102Z" fill="#B2A7FF"/>
<path d="M44.3999 11.4902L44.6599 11.9702L45.1399 12.2302L44.6599 12.4902L44.3999 12.9702L44.1399 12.4902L43.6699 12.2302L44.1399 11.9702L44.3999 11.4902Z" fill="#B2A7FF"/>
<path d="M110.63 71.3701L110.89 71.8401L111.37 72.1001L110.89 72.3601L110.63 72.8401L110.37 72.3601L109.9 72.1001L110.37 71.8401L110.63 71.3701Z" fill="#B2A7FF"/>
<path d="M33.0801 66.7402L33.3401 67.2202L33.8101 67.4802L33.3401 67.7402L33.0801 68.2102L32.8201 67.7402L32.3401 67.4802L32.8201 67.2202L33.0801 66.7402Z" fill="#B2A7FF"/>
<path d="M286.94 48.0698L287.2 48.5398L287.67 48.7998L287.2 49.0598L286.94 49.5398L286.68 49.0598L286.2 48.7998L286.68 48.5398L286.94 48.0698Z" fill="#B2A7FF"/>
<path d="M33.8101 21.3301L34.0701 21.8101L34.5501 22.0701L34.0701 22.3301L33.8101 22.8001L33.5501 22.3301L33.0801 22.0701L33.5501 21.8101L33.8101 21.3301Z" fill="#B2A7FF"/>
<path d="M105 88.7202L105.26 89.2002L105.73 89.4602L105.26 89.7202L105 90.1902L104.74 89.7202L104.26 89.4602L104.74 89.2002L105 88.7202Z" fill="#B2A7FF"/>
<path d="M190.17 94.8101L190.43 95.2801L190.91 95.5401L190.43 95.8001L190.17 96.2801L189.91 95.8001L189.44 95.5401L189.91 95.2801L190.17 94.8101Z" fill="#B2A7FF"/>
<path d="M207.58 67.48L207.84 67.95L208.32 68.21L207.84 68.47L207.58 68.95L207.32 68.47L206.84 68.21L207.32 67.95L207.58 67.48Z" fill="#B2A7FF"/>
<path d="M214.11 101.37L214.38 101.84L214.85 102.1L214.38 102.36L214.11 102.84L213.85 102.36L213.38 102.1L213.85 101.84L214.11 101.37Z" fill="#B2A7FF"/>
<path d="M192.12 28.3198L192.59 29.1698L193.44 29.6398L192.59 30.1098L192.12 30.9598L191.66 30.1098L190.8 29.6398L191.66 29.1698L192.12 28.3198Z" fill="#B2A7FF"/>
<path d="M266.2 62.27L266.67 63.12L267.52 63.59L266.67 64.05L266.2 64.9L265.74 64.05L264.89 63.59L265.74 63.12L266.2 62.27Z" fill="#B2A7FF"/>
<path d="M147.54 80.02L148.01 80.87L148.86 81.34L148.01 81.81L147.54 82.66L147.08 81.81L146.23 81.34L147.08 80.87L147.54 80.02Z" fill="#B2A7FF"/>
<path d="M70.29 0L70.75 0.849998L71.6 1.32L70.75 1.78L70.29 2.63L69.82 1.78L68.97 1.32L69.82 0.849998L70.29 0Z" fill="#B2A7FF"/>
<path d="M109.31 32.77L109.78 33.63L110.63 34.09L109.78 34.56L109.31 35.41L108.85 34.56L108 34.09L108.85 33.63L109.31 32.77Z" fill="#B2A7FF"/>
<path d="M125.83 70.79L126.3 71.64L127.15 72.1L126.3 72.57L125.83 73.42L125.37 72.57L124.51 72.1L125.37 71.64L125.83 70.79Z" fill="#B2A7FF"/>
<path d="M136.27 59L136.74 59.85L137.59 60.32L136.74 60.78L136.27 61.63L135.8 60.78L134.95 60.32L135.8 59.85L136.27 59Z" fill="#B2A7FF"/>
<path d="M60.09 92.1401L60.56 92.9901L61.41 93.4501L60.56 93.9201L60.09 94.7701L59.62 93.9201L58.77 93.4501L59.62 92.9901L60.09 92.1401Z" fill="#B2A7FF"/>
<path d="M220.32 27.0098L220.79 27.8598L221.64 28.3198L220.79 28.7898L220.32 29.6398L219.85 28.7898L219 28.3198L219.85 27.8598L220.32 27.0098Z" fill="#B2A7FF"/>
<path d="M170.61 52.4302L171.07 53.2802L171.93 53.7402L171.07 54.2102L170.61 55.0602L170.14 54.2102L169.29 53.7402L170.14 53.2802L170.61 52.4302Z" fill="#B2A7FF"/>
<g opacity="0.3">
<path d="M59.01 180.83C59.01 180.83 58.91 180.83 58.86 180.81C52.36 179.11 48.78 176.58 48.78 173.69C48.78 168.65 60.36 164.7 75.13 164.7C79.16 164.7 83.03 164.99 86.61 165.57C86.93 165.62 87.15 165.92 87.1 166.24C87.05 166.56 86.74 166.78 86.42 166.73C82.89 166.16 79.09 165.87 75.12 165.87C60.06 165.87 49.94 169.91 49.94 173.68C49.94 175.92 53.38 178.15 59.14 179.66C59.46 179.74 59.64 180.06 59.56 180.38C59.49 180.65 59.25 180.82 58.99 180.82L59.01 180.83Z" fill="white"/>
<path d="M75.1401 179.22C67.5001 179.22 59.3901 177.28 59.3901 173.69C59.3901 170.1 67.5101 168.15 75.1401 168.15C82.7701 168.15 90.8901 170.09 90.8901 173.69C90.8901 177.29 82.7701 179.22 75.1401 179.22ZM75.1401 169.33C66.5501 169.33 60.5601 171.63 60.5601 173.69C60.5601 175.75 66.5501 178.04 75.1401 178.04C83.7301 178.04 89.7201 175.75 89.7201 173.69C89.7201 171.63 83.7301 169.33 75.1401 169.33Z" fill="white"/>
<path d="M75.9501 176.53C72.0201 176.53 67.8501 175.53 67.8501 173.69C67.8501 171.85 72.0201 170.85 75.9501 170.85C76.1101 170.85 76.2401 170.98 76.2401 171.15C76.2401 171.32 76.1101 171.44 75.9501 171.44C71.5201 171.44 68.4401 172.63 68.4401 173.69C68.4401 174.75 71.5201 175.94 75.9501 175.94C76.1101 175.94 76.2401 176.07 76.2401 176.23C76.2401 176.39 76.1101 176.52 75.9501 176.52V176.53Z" fill="white"/>
</g>
<g opacity="0.3">
<path d="M236.61 186.32C231.46 186.32 226.46 186 221.73 185.37C221.24 185.3 220.9 184.86 220.97 184.37C221.03 183.88 221.48 183.54 221.97 183.61C226.62 184.23 231.54 184.55 236.61 184.55C259.37 184.55 274.66 178.44 274.66 172.74C274.66 170.59 272.46 168.34 268.48 166.43C268.04 166.22 267.85 165.68 268.06 165.24C268.27 164.8 268.81 164.61 269.25 164.82C273.96 167.08 276.44 169.82 276.44 172.74C276.44 180.36 258.94 186.33 236.61 186.33V186.32Z" fill="white"/>
<path d="M212.23 183.53C212.15 183.53 212.08 183.53 212 183.5C202.18 180.92 196.77 177.11 196.77 172.74C196.77 165.12 214.27 159.15 236.6 159.15C242.69 159.15 248.53 159.59 253.96 160.47C254.44 160.55 254.77 161.01 254.69 161.49C254.61 161.97 254.15 162.31 253.67 162.23C248.34 161.37 242.59 160.94 236.59 160.94C213.83 160.94 198.54 167.05 198.54 172.75C198.54 176.13 203.74 179.51 212.44 181.79C212.92 181.92 213.2 182.4 213.07 182.88C212.97 183.28 212.6 183.54 212.21 183.54L212.23 183.53Z" fill="white"/>
<path d="M236.61 181.1C225.07 181.1 212.8 178.17 212.8 172.74C212.8 167.31 225.07 164.38 236.61 164.38C248.15 164.38 260.42 167.31 260.42 172.74C260.42 178.17 248.15 181.1 236.61 181.1ZM236.61 166.15C223.63 166.15 214.58 169.62 214.58 172.73C214.58 175.84 223.63 179.31 236.61 179.31C249.59 179.31 258.64 175.84 258.64 172.73C258.64 169.62 249.59 166.15 236.61 166.15Z" fill="white"/>
<path d="M233.02 177.03C227.08 177.03 220.78 175.53 220.78 172.74C220.78 169.95 227.09 168.45 233.02 168.45C233.27 168.45 233.47 168.65 233.47 168.9C233.47 169.15 233.27 169.34 233.02 169.34C226.33 169.34 221.67 171.13 221.67 172.74C221.67 174.35 226.33 176.14 233.02 176.14C233.27 176.14 233.47 176.34 233.47 176.58C233.47 176.82 233.27 177.03 233.02 177.03Z" fill="white"/>
<path d="M247.82 174.41C249.85 174.41 252.03 173.89 252.03 172.74C252.03 171.59 249.85 171.07 247.82 171.07C247.57 171.07 247.37 171.27 247.37 171.51C247.37 171.75 247.57 171.95 247.82 171.95C249.96 171.95 251.08 172.52 251.14 172.74C251.08 172.94 249.96 173.51 247.82 173.51C247.57 173.51 247.37 173.71 247.37 173.95C247.37 174.19 247.57 174.4 247.82 174.4V174.41Z" fill="white"/>
</g>
<path d="M177.3 52.0602L177.46 52.8402L114.38 64.8302L110.25 44.4802L173.17 31.7002L173.33 32.4902L171.12 42.7202L177.3 52.0602Z" fill="#FFA53E"/>
<path d="M177.46 52.8402L114.54 65.6202L110.41 45.2602L173.33 32.4902L171.28 43.5002L177.46 52.8402Z" fill="#FFD85C"/>
<path d="M143.98 59.6404L150.07 58.4004L166.29 33.9204L160.2 35.1504L143.98 59.6404Z" fill="#FFE45C"/>
<path d="M148.41 37.5503L128.47 41.6003C124.51 47.3403 118.87 56.1103 114.14 63.5803L114.55 65.6203L132.19 62.0403L148.41 37.5503Z" fill="#FFE45C"/>
<g style="mix-blend-mode:multiply" opacity="0.4">
<path d="M111.335 44.22L110.237 44.4429L114.538 65.6205L115.636 65.3976L111.335 44.22Z" fill="#FFA53E"/>
</g>
<path d="M130.45 140.33C130.53 140.72 130.28 141.1 129.89 141.18C129.5 141.26 129.12 141.01 129.04 140.62L109.58 44.7902C109.5 44.4002 109.75 44.0202 110.14 43.9402C110.53 43.8602 110.91 44.1102 110.99 44.5002L130.45 140.33Z" fill="white"/>
<path d="M106.11 41.7202C106.5 43.6302 108.36 44.8702 110.28 44.4802C112.19 44.0902 113.43 42.2202 113.04 40.3102C112.65 38.4002 110.78 37.1602 108.87 37.5502C106.96 37.9402 105.72 39.8102 106.11 41.7202Z" fill="#FFD85C"/>
<path d="M107.22 40.0903C107.37 40.8303 108.1 41.3103 108.84 41.1603C109.58 41.0103 110.06 40.2803 109.91 39.5403C109.76 38.8003 109.03 38.3203 108.29 38.4703C107.55 38.6203 107.07 39.3503 107.22 40.0903Z" fill="#FFE45C"/>
<path d="M109.29 39.41C109.36 39.76 109.71 39.99 110.06 39.92C110.41 39.85 110.64 39.5 110.57 39.15C110.5 38.8 110.15 38.57 109.8 38.64C109.45 38.71 109.22 39.06 109.29 39.41Z" fill="#FFE45C"/>
<path d="M109.97 42.7703C110.04 43.1203 110.39 43.3503 110.74 43.2803C111.09 43.2103 111.32 42.8603 111.25 42.5103C111.18 42.1603 110.83 41.9303 110.48 42.0003C110.13 42.0703 109.9 42.4203 109.97 42.7703Z" fill="#FFE45C"/>
<mask id="mask0_6225_8531" style="mask-type:luminance" maskUnits="userSpaceOnUse" x="78" y="110" width="145" height="109">
<path d="M218.88 201.45C218.88 211.11 188.2 218.93 150.36 218.93C112.52 218.93 81.8401 211.1 81.8401 201.45C76.3401 188.6 68.2401 110.29 150.36 110.29C238.9 110.29 222.35 192.38 218.88 201.45Z" fill="white"/>
</mask>
<g mask="url(#mask0_6225_8531)">
<path d="M81.74 196.49C81.74 234.39 112.46 265.11 150.35 265.11C188.24 265.11 218.96 234.39 218.96 196.49C218.96 158.59 188.24 127.88 150.35 127.88C112.46 127.88 81.74 158.6 81.74 196.49Z" fill="#C6B9FF"/>
<g opacity="0.4">
<path d="M93.02 158.8C95.01 160.59 97.56 161.58 100.23 161.58C103.79 161.58 107.13 159.8 109.13 156.89C110.14 157.42 111.26 157.7 112.42 157.7C116.34 157.7 119.54 154.51 119.54 150.59C119.54 146.67 116.35 143.47 112.42 143.47C111.18 143.47 109.98 143.79 108.92 144.4C108.52 143.87 108.06 143.36 107.54 142.89C101.91 147.4 97 152.77 93.02 158.81V158.8Z" fill="#DAD0FF"/>
<path d="M134.11 142.57C134.11 146.07 136.95 148.91 140.45 148.91C143.95 148.91 146.79 146.07 146.79 142.57C146.79 139.07 143.95 136.23 140.45 136.23C136.95 136.23 134.11 139.07 134.11 142.57Z" fill="#DAD0FF"/>
<path d="M167.49 183.33C167.49 176.89 162.25 171.64 155.8 171.64C154.53 171.64 153.29 171.84 152.1 172.24C147.18 163.8 138.15 158.58 128.35 158.58C113.2 158.58 100.88 170.91 100.88 186.06C100.88 201.21 113.21 213.53 128.35 213.53C140.21 213.53 150.57 206.08 154.36 194.92C161.46 195.81 167.49 190.24 167.49 183.32V183.33Z" fill="#DAD0FF"/>
<path d="M154.81 206.14C154.81 209.64 157.65 212.48 161.15 212.48C164.65 212.48 167.49 209.64 167.49 206.14C167.49 202.64 164.65 199.8 161.15 199.8C157.65 199.8 154.81 202.64 154.81 206.14Z" fill="#DAD0FF"/>
<path d="M212.76 213.11C212.76 208.09 208.68 204.01 203.66 204.01C201.08 204.01 198.67 205.09 196.96 206.96C194.59 201.86 189.46 198.53 183.74 198.53C175.7 198.53 169.15 205.07 169.15 213.12C169.15 221.17 175.69 227.7 183.74 227.7C189.46 227.7 194.59 224.37 196.96 219.27C198.67 221.14 201.08 222.22 203.66 222.22C208.68 222.22 212.76 218.14 212.76 213.12V213.11Z" fill="#DAD0FF"/>
<path d="M189.1 194.14C189.1 197.64 191.94 200.48 195.44 200.48C198.94 200.48 201.78 197.64 201.78 194.14C201.78 190.64 198.94 187.8 195.44 187.8C191.94 187.8 189.1 190.64 189.1 194.14Z" fill="#DAD0FF"/>
<path d="M177.04 133.25C171.96 138.62 169.16 145.62 169.16 153.01C169.16 168.87 182.06 181.77 197.92 181.77C204.36 181.77 210.66 179.58 215.71 175.6C209.6 156.48 195.35 141 177.03 133.26L177.04 133.25Z" fill="#DAD0FF"/>
</g>
<path d="M155.81 172.519C154.36 172.519 152.98 172.809 151.71 173.329C147.2 165.069 138.43 159.459 128.36 159.459C113.67 159.459 101.77 171.369 101.77 186.059C101.77 200.749 113.68 212.649 128.36 212.649C140.3 212.649 150.41 204.769 153.77 193.929C154.43 194.059 155.11 194.129 155.81 194.129C161.78 194.129 166.62 189.289 166.62 183.319C166.62 177.349 161.78 172.509 155.81 172.509V172.519Z" fill="#B2A7FF"/>
<path d="M140.45 148.03C143.47 148.03 145.91 145.59 145.91 142.57C145.91 139.55 143.47 137.11 140.45 137.11C137.43 137.11 134.99 139.55 134.99 142.57C134.99 145.59 137.43 148.03 140.45 148.03Z" fill="#B2A7FF"/>
<path d="M189.98 194.14C189.98 197.16 192.43 199.6 195.44 199.6C198.45 199.6 200.9 197.16 200.9 194.14C200.9 191.12 198.45 188.68 195.44 188.68C192.43 188.68 189.98 191.12 189.98 194.14Z" fill="#B2A7FF"/>
<path d="M161.15 200.68C158.13 200.68 155.69 203.12 155.69 206.14C155.69 209.16 158.13 211.6 161.15 211.6C164.17 211.6 166.61 209.16 166.61 206.14C166.61 203.12 164.16 200.68 161.15 200.68Z" fill="#B2A7FF"/>
<path d="M197.92 180.89C204.55 180.89 210.63 178.57 215.42 174.71C209.26 156.3 195.51 141.37 177.88 133.64C173.03 138.66 170.04 145.48 170.04 153.01C170.04 168.41 182.53 180.89 197.92 180.89Z" fill="#B2A7FF"/>
<path d="M203.66 204.89C200.74 204.89 198.18 206.42 196.72 208.72C194.89 203.31 189.78 199.41 183.75 199.41C176.18 199.41 170.04 205.54 170.04 213.12C170.04 220.7 176.18 226.82 183.75 226.82C189.78 226.82 194.89 222.92 196.72 217.51C198.18 219.81 200.74 221.34 203.66 221.34C208.2 221.34 211.88 217.66 211.88 213.12C211.88 208.58 208.2 204.9 203.66 204.9V204.89Z" fill="#B2A7FF"/>
<path d="M108.85 155.689C109.86 156.399 111.09 156.819 112.42 156.819C115.86 156.819 118.66 154.029 118.66 150.589C118.66 147.149 115.87 144.349 112.42 144.349C111.01 144.349 109.72 144.819 108.68 145.609C108.18 144.799 107.56 144.069 106.85 143.439C101.73 147.639 97.23 152.569 93.51 158.059C95.28 159.699 97.64 160.709 100.24 160.709C103.93 160.709 107.15 158.689 108.85 155.689Z" fill="#B2A7FF"/>
<path d="M189.98 194.14C189.98 197.16 192.43 199.6 195.44 199.6C198.45 199.6 200.9 197.16 200.9 194.14C200.9 191.12 198.45 188.68 195.44 188.68C192.43 188.68 189.98 191.12 189.98 194.14ZM197.92 180.89C204.55 180.89 210.63 178.57 215.42 174.71C209.26 156.3 195.51 141.37 177.88 133.64C173.03 138.66 170.04 145.48 170.04 153.01C170.04 168.41 182.53 180.89 197.92 180.89ZM140.44 148.04C143.46 148.04 145.9 145.6 145.9 142.58C145.9 139.56 143.46 137.12 140.44 137.12C137.42 137.12 134.98 139.56 134.98 142.58C134.98 145.6 137.42 148.04 140.44 148.04ZM155.8 172.53C154.35 172.53 152.97 172.82 151.7 173.34C147.19 165.08 138.42 159.47 128.35 159.47C113.66 159.47 101.76 171.38 101.76 186.07C101.76 200.76 113.67 212.66 128.35 212.66C140.29 212.66 150.4 204.78 153.76 193.94C154.42 194.07 155.1 194.14 155.8 194.14C161.77 194.14 166.61 189.3 166.61 183.33C166.61 177.36 161.77 172.52 155.8 172.52V172.53ZM203.66 204.9C200.74 204.9 198.18 206.43 196.72 208.73C194.89 203.32 189.78 199.42 183.75 199.42C176.18 199.42 170.04 205.55 170.04 213.13C170.04 220.71 176.18 226.83 183.75 226.83C189.78 226.83 194.89 222.93 196.72 217.52C198.18 219.82 200.74 221.35 203.66 221.35C208.2 221.35 211.88 217.67 211.88 213.13C211.88 208.59 208.2 204.91 203.66 204.91V204.9ZM161.15 200.69C158.13 200.69 155.69 203.13 155.69 206.15C155.69 209.17 158.13 211.61 161.15 211.61C164.17 211.61 166.61 209.17 166.61 206.15C166.61 203.13 164.16 200.69 161.15 200.69ZM108.85 155.7C109.86 156.41 111.09 156.83 112.42 156.83C115.86 156.83 118.66 154.04 118.66 150.6C118.66 147.16 115.87 144.36 112.42 144.36C111.01 144.36 109.72 144.83 108.68 145.62C108.18 144.81 107.56 144.08 106.85 143.45C101.73 147.65 97.23 152.58 93.51 158.07C95.28 159.71 97.64 160.72 100.24 160.72C103.93 160.72 107.15 158.7 108.85 155.7Z" fill="#B2A7FF"/>
<g style="mix-blend-mode:multiply" opacity="0.4">
<path d="M108.85 155.69C109.86 156.4 111.09 156.82 112.42 156.82C115.86 156.82 118.66 154.03 118.66 150.59C118.66 150.47 118.65 150.35 118.64 150.24C118.46 153.52 115.75 156.12 112.42 156.12C111.09 156.12 109.86 155.7 108.85 154.99C107.14 157.98 103.93 160.01 100.24 160.01C97.79 160.01 95.55 159.1 93.82 157.63C93.72 157.78 93.61 157.92 93.51 158.07C95.28 159.71 97.64 160.72 100.24 160.72C103.93 160.72 107.15 158.7 108.85 155.7V155.69Z" fill="#B2A7FF"/>
<path d="M195.44 199.6C198.46 199.6 200.9 197.16 200.9 194.14C200.9 194.02 200.89 193.9 200.88 193.79C200.7 196.64 198.34 198.9 195.44 198.9C192.54 198.9 190.18 196.64 190 193.79C190 193.91 189.98 194.02 189.98 194.14C189.98 197.16 192.43 199.6 195.44 199.6Z" fill="#B2A7FF"/>
<path d="M140.45 148.03C143.47 148.03 145.91 145.59 145.91 142.57C145.91 142.45 145.9 142.34 145.89 142.22C145.71 145.07 143.34 147.33 140.45 147.33C137.56 147.33 135.19 145.07 135.01 142.22C135.01 142.34 134.99 142.45 134.99 142.57C134.99 145.59 137.43 148.03 140.45 148.03Z" fill="#B2A7FF"/>
<path d="M161.15 210.89C158.25 210.89 155.89 208.63 155.71 205.78C155.71 205.9 155.69 206.01 155.69 206.13C155.69 209.15 158.13 211.59 161.15 211.59C164.17 211.59 166.61 209.15 166.61 206.13C166.61 206.01 166.61 205.89 166.59 205.78C166.41 208.63 164.04 210.89 161.15 210.89Z" fill="#B2A7FF"/>
<path d="M197.92 180.18C182.64 180.18 170.23 167.89 170.05 152.65C170.05 152.77 170.05 152.89 170.05 153.01C170.05 168.41 182.54 180.89 197.93 180.89C204.56 180.89 210.64 178.57 215.43 174.71C215.37 174.52 215.29 174.34 215.23 174.16C210.48 177.93 204.47 180.18 197.93 180.18H197.92Z" fill="#B2A7FF"/>
<path d="M203.66 220.63C200.74 220.63 198.18 219.1 196.72 216.8C194.89 222.21 189.78 226.11 183.75 226.11C176.3 226.11 170.25 220.16 170.06 212.76C170.06 212.88 170.04 212.99 170.04 213.11C170.04 220.68 176.18 226.81 183.75 226.81C189.78 226.81 194.89 222.91 196.72 217.5C198.18 219.8 200.74 221.33 203.66 221.33C208.2 221.33 211.88 217.65 211.88 213.11C211.88 212.99 211.87 212.88 211.86 212.76C211.68 217.14 208.08 220.63 203.66 220.63Z" fill="#B2A7FF"/>
<path d="M155.81 193.43C155.11 193.43 154.43 193.36 153.77 193.23C150.41 204.07 140.31 211.95 128.36 211.95C113.79 211.95 101.96 200.23 101.78 185.71C101.78 185.83 101.78 185.94 101.78 186.06C101.78 200.75 113.69 212.65 128.37 212.65C140.31 212.65 150.42 204.77 153.78 193.93C154.44 194.06 155.12 194.13 155.82 194.13C161.79 194.13 166.63 189.29 166.63 183.32C166.63 183.2 166.62 183.09 166.61 182.97C166.42 188.78 161.67 193.43 155.82 193.43H155.81Z" fill="#B2A7FF"/>
</g>
</g>
<g opacity="0.3">
<g style="mix-blend-mode:multiply" opacity="0.4">
<path d="M150.35 218.93C114.21 218.93 84.6198 211.79 82.0298 202.74C85.1898 237.7 114.56 265.1 150.35 265.1C186.14 265.1 215.51 237.7 218.67 202.74C216.08 211.79 186.49 218.93 150.35 218.93Z" fill="white"/>
</g>
<path d="M111.34 227.78C111.34 227.78 111.25 227.78 111.2 227.78C76.4499 223.33 54.8699 213.57 54.8699 202.32C54.8699 197.08 59.5899 192.04 68.5299 187.75C69.0699 187.49 69.7099 187.72 69.9699 188.26C70.2299 188.8 69.9999 189.44 69.4599 189.7C61.3299 193.61 57.0299 197.98 57.0299 202.32C57.0299 212.09 78.9099 221.46 111.48 225.63C112.07 225.7 112.49 226.25 112.42 226.84C112.35 227.39 111.88 227.78 111.35 227.78H111.34Z" fill="white"/>
<path d="M137.23 229.88C137.23 229.88 137.2 229.88 137.19 229.88C132.91 229.72 128.63 229.47 124.48 229.14C123.89 229.09 123.44 228.57 123.49 227.98C123.54 227.39 124.06 226.95 124.65 226.99C128.78 227.32 133.02 227.57 137.27 227.73C137.87 227.75 138.33 228.25 138.31 228.85C138.29 229.43 137.81 229.89 137.23 229.89V229.88Z" fill="white"/>
<path d="M149.83 230.12C147.99 230.12 146.17 230.11 144.36 230.08C143.76 230.08 143.29 229.58 143.3 228.98C143.3 228.38 143.81 227.96 144.4 227.92C146.2 227.95 148.01 227.96 149.84 227.96C163.03 227.96 175.78 227.19 187.74 225.68C188.33 225.61 188.87 226.02 188.95 226.62C189.03 227.21 188.61 227.75 188.01 227.83C175.96 229.35 163.12 230.12 149.84 230.12H149.83Z" fill="white"/>
<path d="M208.84 224.18C208.35 224.18 207.9 223.84 207.79 223.34C207.66 222.76 208.02 222.18 208.6 222.05C229.91 217.14 242.63 209.76 242.63 202.31C242.63 197.94 238.3 193.56 230.1 189.64C229.56 189.38 229.34 188.74 229.59 188.2C229.85 187.66 230.49 187.44 231.03 187.69C240.03 192 244.79 197.05 244.79 202.31C244.79 210.96 231.78 218.92 209.08 224.15C209 224.17 208.91 224.18 208.84 224.18Z" fill="white"/>
<path d="M149.83 224.18C119.72 224.18 92.1998 219.68 77.9998 212.43C71.3798 209.05 68.0198 205.28 68.0198 201.22C68.0198 197.9 70.2798 194.76 74.7398 191.87C75.2398 191.55 75.9098 191.69 76.2298 192.19C76.5498 192.69 76.4098 193.36 75.9098 193.68C72.0998 196.15 70.1698 198.68 70.1698 201.22C70.1698 204.36 73.2098 207.57 78.9698 210.51C92.8898 217.61 120.04 222.02 149.82 222.02C165.68 222.02 181.01 220.77 194.16 218.41C194.74 218.3 195.31 218.7 195.41 219.28C195.52 219.87 195.13 220.43 194.54 220.53C181.26 222.91 165.8 224.17 149.82 224.17L149.83 224.18Z" fill="white"/>
<path d="M218.49 188.5C218.59 189.34 218.67 190.19 218.73 191.05C225.67 194.21 229.48 197.76 229.48 201.22C229.48 206.42 221.25 211.65 206.89 215.58C206.31 215.74 205.98 216.33 206.13 216.91C206.26 217.39 206.7 217.71 207.17 217.71C207.26 217.71 207.36 217.7 207.46 217.67C216.49 215.2 231.64 209.78 231.64 201.23C231.64 196.26 226.66 191.98 218.49 188.51V188.5Z" fill="white"/>
<path d="M74.0699 183.28C77.0999 182.3 80.2999 181.39 83.6199 180.54C83.8199 179.7 84.0299 178.87 84.2599 178.05C57.9099 184.54 41.1299 194.95 41.1299 206.88C41.1299 212.87 45.2699 218.52 53.4399 223.67C53.6199 223.78 53.8199 223.84 54.0099 223.84C54.3699 223.84 54.7199 223.66 54.9299 223.34C55.2499 222.84 55.0999 222.17 54.5899 221.85C47.1899 217.19 43.2899 212.01 43.2899 206.89C43.2899 198.22 54.4999 189.62 74.0599 183.29L74.0699 183.28Z" fill="white"/>
<path d="M149.83 242.79C124.98 242.79 100.7 239.99 81.4799 234.9C80.8999 234.75 80.56 234.16 80.71 233.58C80.86 233 81.45 232.66 82.03 232.81C101.08 237.85 125.15 240.63 149.83 240.63C152.62 240.63 155.45 240.59 158.25 240.52H158.28C158.86 240.52 159.34 240.99 159.36 241.57C159.37 242.17 158.9 242.66 158.31 242.68C155.5 242.75 152.65 242.79 149.84 242.79H149.83Z" fill="white"/>
<path d="M174.06 241.9C173.5 241.9 173.03 241.47 172.98 240.9C172.94 240.31 173.38 239.79 173.98 239.74C221.71 236.18 256.35 222.36 256.35 206.87C256.35 202.92 254.1 199.01 249.67 195.26C249.22 194.87 249.16 194.19 249.54 193.74C249.92 193.28 250.61 193.23 251.06 193.61C256 197.79 258.51 202.25 258.51 206.87C258.51 223.79 223.82 238.19 174.14 241.89C174.11 241.89 174.09 241.89 174.06 241.89V241.9Z" fill="white"/>
</g>
<g style="mix-blend-mode:multiply" opacity="0.5">
<path d="M215.23 262.62C215.23 263.99 214.12 265.1 212.75 265.1C211.38 265.1 210.27 263.99 210.27 262.62C210.27 261.25 211.38 260.14 212.75 260.14C214.12 260.14 215.23 261.25 215.23 262.62Z" fill="white"/>
</g>
<g style="mix-blend-mode:multiply" opacity="0.5">
<path d="M231.61 242.79C231.61 244.16 230.5 245.27 229.13 245.27C227.76 245.27 226.65 244.16 226.65 242.79C226.65 241.42 227.76 240.31 229.13 240.31C230.5 240.31 231.61 241.42 231.61 242.79Z" fill="white"/>
</g>
<g style="mix-blend-mode:multiply" opacity="0.5">
<path d="M163.6 253.58C163.6 254.95 162.49 256.06 161.12 256.06C159.75 256.06 158.64 254.95 158.64 253.58C158.64 252.21 159.75 251.1 161.12 251.1C162.49 251.1 163.6 252.21 163.6 253.58Z" fill="white"/>
</g>
<g style="mix-blend-mode:multiply" opacity="0.5">
<path d="M105.07 232.77C105.07 234.14 103.96 235.25 102.59 235.25C101.22 235.25 100.11 234.14 100.11 232.77C100.11 231.4 101.22 230.29 102.59 230.29C103.96 230.29 105.07 231.4 105.07 232.77Z" fill="white"/>
</g>
<g style="mix-blend-mode:multiply" opacity="0.5">
<path d="M76.1099 227.9C76.1099 229.27 74.9999 230.38 73.6299 230.38C72.2599 230.38 71.1499 229.27 71.1499 227.9C71.1499 226.53 72.2599 225.42 73.6299 225.42C74.9999 225.42 76.1099 226.53 76.1099 227.9Z" fill="white"/>
</g>
<g style="mix-blend-mode:multiply" opacity="0.5">
<path d="M166.6 267.5C166.6 268.87 165.49 269.98 164.12 269.98C162.75 269.98 161.64 268.87 161.64 267.5C161.64 266.13 162.75 265.02 164.12 265.02C165.49 265.02 166.6 266.13 166.6 267.5Z" fill="white"/>
</g>
<g style="mix-blend-mode:multiply" opacity="0.5">
<path d="M245.65 234.59C245.65 235.12 245.22 235.55 244.69 235.55C244.16 235.55 243.74 235.12 243.74 234.59C243.74 234.06 244.17 233.63 244.69 233.63C245.21 233.63 245.65 234.06 245.65 234.59Z" fill="white"/>
</g>
<g style="mix-blend-mode:multiply" opacity="0.5">
<path d="M273.56 194.32C273.56 194.85 273.13 195.28 272.6 195.28C272.07 195.28 271.65 194.85 271.65 194.32C271.65 193.79 272.08 193.36 272.6 193.36C273.12 193.36 273.56 193.79 273.56 194.32Z" fill="white"/>
</g>
<g style="mix-blend-mode:multiply" opacity="0.5">
<path d="M52.0599 185.11C52.0599 185.64 51.6299 186.07 51.0999 186.07C50.5699 186.07 50.1399 185.64 50.1399 185.11C50.1399 184.58 50.5699 184.15 51.0999 184.15C51.6299 184.15 52.0599 184.58 52.0599 185.11Z" fill="white"/>
</g>
<g style="mix-blend-mode:multiply" opacity="0.5">
<path d="M4.29988 203.1C4.29988 203.63 3.86988 204.06 3.33988 204.06C2.80988 204.06 2.37988 203.63 2.37988 203.1C2.37988 202.57 2.80988 202.14 3.33988 202.14C3.86988 202.14 4.29988 202.57 4.29988 203.1Z" fill="white"/>
</g>
<g style="mix-blend-mode:multiply" opacity="0.5">
<path d="M217.35 224.72C217.35 225.25 216.92 225.68 216.39 225.68C215.86 225.68 215.44 225.25 215.44 224.72C215.44 224.19 215.87 223.76 216.39 223.76C216.91 223.76 217.35 224.19 217.35 224.72Z" fill="white"/>
</g>
<g style="mix-blend-mode:multiply" opacity="0.5">
<path d="M230.62 212.16C230.62 212.69 230.19 213.12 229.67 213.12C229.15 213.12 228.71 212.69 228.71 212.16C228.71 211.63 229.14 211.2 229.67 211.2C230.2 211.2 230.62 211.63 230.62 212.16Z" fill="white"/>
</g>
<g style="mix-blend-mode:multiply" opacity="0.5">
<path d="M68.2701 242.79C68.2701 243.32 67.8401 243.75 67.3201 243.75C66.8001 243.75 66.3601 243.32 66.3601 242.79C66.3601 242.26 66.7901 241.83 67.3201 241.83C67.8501 241.83 68.2701 242.26 68.2701 242.79Z" fill="white"/>
</g>
<g style="mix-blend-mode:multiply" opacity="0.5">
<path d="M88.93 252.63C88.93 253.16 88.5 253.59 87.98 253.59C87.46 253.59 87.02 253.16 87.02 252.63C87.02 252.1 87.45 251.67 87.98 251.67C88.51 251.67 88.93 252.1 88.93 252.63Z" fill="white"/>
</g>
<g style="mix-blend-mode:multiply" opacity="0.5">
<path d="M129.56 250.72C129.56 251.25 129.13 251.67 128.6 251.67C128.07 251.67 127.65 251.24 127.65 250.72C127.65 250.2 128.08 249.76 128.6 249.76C129.12 249.76 129.56 250.19 129.56 250.72Z" fill="white"/>
</g>
<g style="mix-blend-mode:multiply" opacity="0.5">
<path d="M111.48 249.76C111.48 250.29 111.05 250.72 110.52 250.72C109.99 250.72 109.56 250.29 109.56 249.76C109.56 249.23 109.99 248.8 110.52 248.8C111.05 248.8 111.48 249.23 111.48 249.76Z" fill="white"/>
</g>
<path d="M269.13 224.18C269.13 225.55 268.02 226.66 266.65 226.66C265.28 226.66 264.17 225.55 264.17 224.18C264.17 222.81 265.28 221.7 266.65 221.7C268.02 221.7 269.13 222.81 269.13 224.18Z" fill="white"/>
<path d="M211.3 248.8C211.3 250.17 210.19 251.28 208.82 251.28C207.45 251.28 206.34 250.17 206.34 248.8C206.34 247.43 207.45 246.32 208.82 246.32C210.19 246.32 211.3 247.43 211.3 248.8Z" fill="white"/>
<path d="M256.3 188.83C256.3 189.57 255.7 190.17 254.96 190.17C254.22 190.17 253.62 189.57 253.62 188.83C253.62 188.09 254.22 187.49 254.96 187.49C255.7 187.49 256.3 188.09 256.3 188.83Z" fill="white"/>
<path d="M258.34 226.98C258.34 227.72 257.74 228.32 257 228.32C256.26 228.32 255.66 227.72 255.66 226.98C255.66 226.24 256.26 225.64 257 225.64C257.74 225.64 258.34 226.24 258.34 226.98Z" fill="white"/>
<path d="M40.71 241.9C40.71 242.64 40.11 243.24 39.37 243.24C38.63 243.24 38.03 242.64 38.03 241.9C38.03 241.16 38.63 240.56 39.37 240.56C40.11 240.56 40.71 241.16 40.71 241.9Z" fill="white"/>
<path d="M25.64 223.76C25.64 224.5 25.04 225.1 24.3 225.1C23.56 225.1 22.96 224.5 22.96 223.76C22.96 223.02 23.56 222.42 24.3 222.42C25.04 222.42 25.64 223.02 25.64 223.76Z" fill="white"/>
<path d="M41.14 190.07C41.14 190.81 40.54 191.41 39.8 191.41C39.06 191.41 38.46 190.81 38.46 190.07C38.46 189.33 39.06 188.73 39.8 188.73C40.54 188.73 41.14 189.33 41.14 190.07Z" fill="white"/>
<path d="M39.8001 203.1C39.8001 203.84 39.2001 204.44 38.4601 204.44C37.7201 204.44 37.1201 203.84 37.1201 203.1C37.1201 202.36 37.7201 201.76 38.4601 201.76C39.2001 201.76 39.8001 202.36 39.8001 203.1Z" fill="white"/>
<g opacity="0.3">
<path d="M268.56 278.77C262.44 278.77 256.49 278.39 250.87 277.64C250.29 277.56 249.88 277.03 249.96 276.45C250.04 275.87 250.57 275.47 251.15 275.54C256.67 276.28 262.53 276.65 268.55 276.65C295.61 276.65 313.78 269.39 313.78 262.61C313.78 260.05 311.17 257.38 306.43 255.1C305.9 254.85 305.68 254.21 305.94 253.69C306.19 253.16 306.83 252.94 307.35 253.19C312.94 255.88 315.9 259.14 315.9 262.6C315.9 271.66 295.1 278.75 268.55 278.75L268.56 278.77Z" fill="white"/>
<path d="M239.59 275.45C239.5 275.45 239.41 275.44 239.32 275.42C227.64 272.36 221.21 267.82 221.21 262.62C221.21 253.56 242.01 246.47 268.56 246.47C275.8 246.47 282.75 247 289.19 248.04C289.77 248.13 290.16 248.68 290.07 249.25C289.98 249.83 289.43 250.22 288.86 250.13C282.52 249.11 275.69 248.59 268.56 248.59C241.5 248.59 223.32 255.85 223.32 262.63C223.32 266.65 229.5 270.67 239.85 273.38C240.42 273.53 240.75 274.11 240.61 274.67C240.49 275.15 240.06 275.46 239.59 275.46V275.45Z" fill="white"/>
<path d="M268.56 272.56C254.84 272.56 240.25 269.08 240.25 262.62C240.25 256.16 254.84 252.68 268.56 252.68C282.28 252.68 296.86 256.16 296.86 262.62C296.86 269.08 282.28 272.56 268.56 272.56ZM268.56 254.79C253.13 254.79 242.37 258.91 242.37 262.62C242.37 266.33 253.13 270.45 268.56 270.45C283.99 270.45 294.75 266.33 294.75 262.62C294.75 258.91 283.99 254.79 268.56 254.79Z" fill="white"/>
<path d="M270.02 267.72C262.96 267.72 255.47 265.93 255.47 262.62C255.47 259.31 262.97 257.52 270.02 257.52C270.31 257.52 270.55 257.76 270.55 258.05C270.55 258.34 270.31 258.58 270.02 258.58C262.07 258.58 256.52 260.71 256.52 262.62C256.52 264.53 262.06 266.66 270.02 266.66C270.31 266.66 270.55 266.9 270.55 267.19C270.55 267.48 270.31 267.72 270.02 267.72Z" fill="white"/>
<path d="M270.02 264.61C269.73 264.61 269.49 264.37 269.49 264.08C269.49 263.79 269.73 263.55 270.02 263.55C272.56 263.55 273.89 262.87 273.97 262.61C273.9 262.37 272.57 261.69 270.02 261.69C269.73 261.69 269.49 261.45 269.49 261.16C269.49 260.87 269.73 260.63 270.02 260.63C272.43 260.63 275.02 261.25 275.02 262.62C275.02 263.99 272.43 264.61 270.02 264.61Z" fill="white"/>
<path d="M270.02 264.61C267.61 264.61 265.02 263.99 265.02 262.62C265.02 261.25 267.61 260.63 270.02 260.63C270.31 260.63 270.55 260.87 270.55 261.16C270.55 261.45 270.31 261.69 270.02 261.69C267.47 261.69 266.15 262.37 266.07 262.63C266.14 262.87 267.47 263.55 270.02 263.55C270.31 263.55 270.55 263.79 270.55 264.08C270.55 264.37 270.31 264.61 270.02 264.61Z" fill="white"/>
</g>
<g opacity="0.3">
<path d="M96.48 264.49C92.62 264.49 88.86 264.25 85.32 263.78C84.95 263.73 84.7 263.39 84.75 263.03C84.8 262.66 85.13 262.41 85.5 262.46C88.99 262.93 92.68 263.16 96.48 263.16C113.56 263.16 125.03 258.58 125.03 254.3C125.03 252.68 123.38 251 120.39 249.56C120.06 249.4 119.92 249 120.08 248.67C120.24 248.34 120.64 248.2 120.97 248.36C124.5 250.06 126.37 252.11 126.37 254.3C126.37 260.02 113.24 264.49 96.49 264.49H96.48Z" fill="white"/>
<path d="M78.1901 262.39C78.1301 262.39 78.0801 262.39 78.0201 262.37C70.6501 260.44 66.5901 257.57 66.5901 254.29C66.5901 248.57 79.7201 244.1 96.4701 244.1C101.04 244.1 105.42 244.43 109.49 245.09C109.85 245.15 110.1 245.49 110.04 245.86C109.98 246.22 109.64 246.47 109.28 246.41C105.28 245.77 100.97 245.44 96.4701 245.44C79.3901 245.44 67.9201 250.02 67.9201 254.3C67.9201 256.84 71.8201 259.37 78.3501 261.08C78.7101 261.17 78.9201 261.54 78.8301 261.89C78.7501 262.19 78.4801 262.39 78.1901 262.39Z" fill="white"/>
<path d="M96.4801 260.57C87.8201 260.57 78.6201 258.37 78.6201 254.3C78.6201 250.23 87.8301 248.02 96.4801 248.02C105.13 248.02 114.34 250.22 114.34 254.3C114.34 258.38 105.13 260.57 96.4801 260.57ZM96.4801 249.36C86.7401 249.36 79.9501 251.96 79.9501 254.3C79.9501 256.64 86.7401 259.24 96.4801 259.24C106.22 259.24 113.01 256.64 113.01 254.3C113.01 251.96 106.22 249.36 96.4801 249.36Z" fill="white"/>
<path d="M97.4002 257.52C92.9502 257.52 88.2102 256.39 88.2102 254.3C88.2102 252.21 92.9402 251.08 97.4002 251.08C97.5802 251.08 97.7302 251.23 97.7302 251.41C97.7302 251.59 97.5802 251.74 97.4002 251.74C92.3802 251.74 88.8802 253.08 88.8802 254.29C88.8802 255.5 92.3802 256.84 97.4002 256.84C97.5802 256.84 97.7302 256.99 97.7302 257.17C97.7302 257.35 97.5802 257.5 97.4002 257.5V257.52Z" fill="white"/>
<path d="M97.4001 255.55C97.2101 255.55 97.0701 255.4 97.0701 255.22C97.0701 255.04 97.2201 254.89 97.4001 254.89C99.0101 254.89 99.8401 254.46 99.8901 254.3C99.8501 254.15 99.0101 253.72 97.4001 253.72C97.2101 253.72 97.0701 253.57 97.0701 253.39C97.0701 253.21 97.2201 253.06 97.4001 253.06C98.9201 253.06 100.56 253.45 100.56 254.31C100.56 255.17 98.9201 255.56 97.4001 255.56V255.55Z" fill="white"/>
<path d="M97.4 255.55C95.88 255.55 94.24 255.16 94.24 254.3C94.24 253.44 95.88 253.05 97.4 253.05C97.58 253.05 97.73 253.2 97.73 253.38C97.73 253.56 97.58 253.71 97.4 253.71C95.79 253.71 94.95 254.14 94.91 254.3C94.96 254.45 95.79 254.88 97.4 254.88C97.58 254.88 97.73 255.03 97.73 255.21C97.73 255.39 97.58 255.54 97.4 255.54V255.55Z" fill="white"/>
</g>
<g opacity="0.3">
<path d="M14.6401 211.65C12.7501 211.65 10.9101 211.53 9.17011 211.3C8.99011 211.28 8.87011 211.11 8.89011 210.93C8.91011 210.75 9.08011 210.63 9.26011 210.65C10.9701 210.88 12.7801 210.99 14.6501 210.99C23.0201 210.99 28.6501 208.74 28.6501 206.65C28.6501 205.86 27.8401 205.03 26.3701 204.33C26.2101 204.25 26.1401 204.06 26.2201 203.89C26.3001 203.73 26.5001 203.66 26.6601 203.74C28.3901 204.57 29.3101 205.58 29.3101 206.65C29.3101 209.45 22.8701 211.65 14.6601 211.65H14.6401Z" fill="white"/>
<path d="M5.68 210.62C5.68 210.62 5.63 210.62 5.6 210.62C1.99 209.67 0 208.27 0 206.66C0 203.86 6.44 201.66 14.65 201.66C16.89 201.66 19.04 201.82 21.03 202.14C21.21 202.17 21.33 202.34 21.3 202.52C21.27 202.7 21.1 202.82 20.93 202.79C18.97 202.47 16.86 202.31 14.65 202.31C6.28 202.31 0.65 204.56 0.65 206.65C0.65 207.9 2.56 209.14 5.77 209.98C5.94 210.03 6.05 210.2 6 210.38C5.96 210.53 5.83 210.62 5.68 210.62Z" fill="white"/>
<path d="M14.6399 209.73C10.3899 209.73 5.87988 208.65 5.87988 206.65C5.87988 204.65 10.3899 203.57 14.6399 203.57C18.8899 203.57 23.3999 204.65 23.3999 206.65C23.3999 208.65 18.8899 209.73 14.6399 209.73ZM14.6399 204.23C9.85988 204.23 6.53988 205.51 6.53988 206.65C6.53988 207.79 9.86988 209.07 14.6399 209.07C19.4099 209.07 22.7399 207.79 22.7399 206.65C22.7399 205.51 19.4099 204.23 14.6399 204.23Z" fill="white"/>
<path d="M15.1001 208.23C12.9201 208.23 10.6001 207.68 10.6001 206.65C10.6001 205.62 12.9201 205.07 15.1001 205.07C15.1901 205.07 15.2601 205.14 15.2601 205.23C15.2601 205.32 15.1901 205.39 15.1001 205.39C12.6401 205.39 10.9201 206.05 10.9201 206.64C10.9201 207.23 12.6301 207.89 15.1001 207.89C15.1901 207.89 15.2601 207.96 15.2601 208.05C15.2601 208.14 15.1901 208.21 15.1001 208.21V208.23Z" fill="white"/>
<path d="M15.0999 207.27C15.0099 207.27 14.9399 207.2 14.9399 207.11C14.9399 207.02 15.0099 206.95 15.0999 206.95C15.8899 206.95 16.2999 206.74 16.3199 206.66C16.2999 206.58 15.8899 206.37 15.0999 206.37C15.0099 206.37 14.9399 206.3 14.9399 206.21C14.9399 206.12 15.0099 206.05 15.0999 206.05C15.8499 206.05 16.6499 206.24 16.6499 206.67C16.6499 207.1 15.8499 207.29 15.0999 207.29V207.27Z" fill="white"/>
<path d="M15.1 207.27C14.35 207.27 13.55 207.08 13.55 206.65C13.55 206.22 14.35 206.03 15.1 206.03C15.1901 206.03 15.26 206.1 15.26 206.19C15.26 206.28 15.1901 206.35 15.1 206.35C14.31 206.35 13.9 206.56 13.88 206.64C13.9 206.71 14.31 206.92 15.1 206.92C15.1901 206.92 15.26 206.99 15.26 207.08C15.26 207.17 15.1901 207.24 15.1 207.24V207.27Z" fill="white"/>
</g>
<g opacity="0.3">
<path d="M188.79 146.5C203.05 158.33 212.33 173.57 213.26 192.34C213.68 200.86 200.47 200.81 200.05 192.34C199.29 177 190.95 165.38 179.45 155.84C172.89 150.4 182.29 141.11 188.79 146.5Z" fill="white"/>
</g>
<g opacity="0.3">
<path d="M168.02 148.23C167.56 147.96 167.1 147.7 166.63 147.46C165.95 147.15 166 147.16 166.77 147.5C166.45 147.38 166.13 147.26 165.8 147.14C164.54 146.69 163.26 146.31 162.01 145.85C158.63 144.62 156.38 141.41 157.4 137.73C158.3 134.47 162.14 131.88 165.52 133.12C168.62 134.25 171.83 135.11 174.69 136.82C177.77 138.66 178.89 142.73 177.06 145.85C175.26 148.93 171.12 150.07 168.03 148.22L168.02 148.23Z" fill="white"/>
</g>
<g opacity="0.3">
<path d="M99.5399 194.92C99.4699 194.39 99.4099 193.87 99.3799 193.34C99.3599 192.59 99.3499 192.64 99.3599 193.49C99.3599 193.15 99.3799 192.8 99.4099 192.46C99.4799 191.13 99.6299 189.8 99.6999 188.46C99.8799 184.87 97.7999 181.55 94.0099 181.05C90.6599 180.61 86.78 183.14 86.6 186.74C86.44 190.04 85.9799 193.33 86.4499 196.63C86.9499 200.19 90.26 202.8 93.85 202.33C97.39 201.86 100.05 198.49 99.5399 194.93V194.92Z" fill="white"/>
</g>
<path d="M124.909 59.3221C124.105 59.4897 123.366 59.502 122.694 59.3589C122.019 59.2054 121.451 58.9098 120.989 58.4721C120.525 58.024 120.211 57.4303 120.046 56.6911L122.16 56.2503C122.288 56.7577 122.561 57.1529 122.979 57.4361C123.406 57.7067 123.928 57.7778 124.544 57.6494C125.076 57.5384 125.473 57.3249 125.734 57.009C125.993 56.6827 126.078 56.3054 125.989 55.8773C125.895 55.4283 125.681 55.1079 125.347 54.916C125.023 54.722 124.615 54.5945 124.123 54.5337C123.631 54.4728 123.105 54.408 122.546 54.3393C121.64 54.2233 120.914 53.9823 120.369 53.6164C119.835 53.2484 119.488 52.6832 119.329 51.9209C119.184 51.2757 119.22 50.6907 119.437 50.1659C119.663 49.6286 120.027 49.1769 120.528 48.8109C121.027 48.4345 121.637 48.1712 122.357 48.021C123.088 47.8687 123.757 47.8653 124.365 48.011C124.984 48.1546 125.498 48.4286 125.91 48.8332C126.331 49.2356 126.62 49.7584 126.776 50.4015L124.63 50.8487C124.539 50.4646 124.317 50.1567 123.963 49.9253C123.618 49.6812 123.19 49.6125 122.678 49.7192C122.238 49.8002 121.89 49.9871 121.635 50.2799C121.388 50.5602 121.309 50.9143 121.399 51.3425C121.475 51.7079 121.651 51.9764 121.926 52.1478C122.199 52.3087 122.55 52.421 122.977 52.4845C123.404 52.5479 123.891 52.6099 124.438 52.6703C125.02 52.7451 125.561 52.861 126.063 53.018C126.564 53.175 126.994 53.4341 127.352 53.7952C127.709 54.1459 127.954 54.6449 128.089 55.2923C128.209 55.8666 128.174 56.4297 127.984 56.9814C127.794 57.5331 127.443 58.0203 126.932 58.4428C126.419 58.8549 125.744 59.148 124.909 59.3221Z" fill="#FFA53E"/>
<path d="M135.649 57.0835C134.552 57.312 133.542 57.2721 132.617 56.9637C131.702 56.6531 130.922 56.1239 130.275 55.376C129.637 54.6155 129.202 53.6766 128.969 52.5593C128.736 51.442 128.761 50.4125 129.045 49.4709C129.336 48.5167 129.839 47.7146 130.553 47.0645C131.278 46.4122 132.189 45.9718 133.285 45.7432C134.371 45.5169 135.377 45.5579 136.302 45.8663C137.227 46.1747 138.008 46.7091 138.646 47.4696C139.282 48.2197 139.716 49.1534 139.949 50.2707C140.182 51.388 140.158 52.4227 139.877 53.3747C139.594 54.3163 139.09 55.1132 138.365 55.7655C137.64 56.4178 136.735 56.8571 135.649 57.0835ZM135.273 55.2822C136.318 55.0646 137.076 54.5469 137.548 53.7293C138.031 52.9095 138.148 51.8992 137.897 50.6984C137.647 49.4975 137.137 48.6178 136.366 48.0592C135.607 47.4984 134.705 47.3269 133.661 47.5445C132.616 47.7622 131.853 48.2809 131.37 49.1007C130.887 49.9204 130.771 50.9308 131.021 52.1316C131.271 53.3325 131.782 54.2122 132.552 54.7708C133.322 55.3294 134.229 55.4999 135.273 55.2822Z" fill="#FFA53E"/>
<path d="M142.862 55.3839L140.577 44.4195L144.602 43.5805C145.479 43.3976 146.231 43.3989 146.858 43.5842C147.494 43.7568 148.006 44.0696 148.394 44.5225C148.781 44.965 149.038 45.4943 149.166 46.1104C149.306 46.7787 149.256 47.4265 149.016 48.054C148.787 48.6792 148.327 49.1944 147.638 49.5996L150.866 53.7156L148.563 54.1955L145.626 50.2968L143.966 50.6429L144.867 54.966L142.862 55.3839ZM143.659 49.1705L145.554 48.7755C146.223 48.6362 146.68 48.372 146.925 47.983C147.171 47.594 147.239 47.1333 147.128 46.6007C147.019 46.0786 146.775 45.6935 146.396 45.4456C146.028 45.1954 145.5 45.1422 144.811 45.2858L142.931 45.6776L143.659 49.1705Z" fill="#FFA53E"/>
<path d="M152.621 53.3497L150.336 42.3854L154.361 41.5463C155.238 41.3635 155.99 41.3647 156.617 41.55C157.253 41.7227 157.765 42.0355 158.153 42.4884C158.54 42.9309 158.797 43.4601 158.925 44.0762C159.065 44.7445 159.015 45.3924 158.775 46.0198C158.546 46.6451 158.086 47.1603 157.397 47.5655L160.625 51.6814L158.322 52.1614L155.385 48.2627L153.725 48.6088L154.626 52.9319L152.621 53.3497ZM153.418 47.1364L155.313 46.7414C155.982 46.6021 156.439 46.3379 156.684 45.9489C156.93 45.5599 156.998 45.0991 156.887 44.5666C156.778 44.0445 156.534 43.6594 156.155 43.4114C155.787 43.1613 155.259 43.108 154.57 43.2517L152.69 43.6435L153.418 47.1364Z" fill="#FFA53E"/>
<path d="M164.833 50.8044L164.02 46.9042L158.866 40.6073L161.138 40.1339L164.62 44.6871L165.978 39.125L168.217 38.6582L166.025 46.4863L166.838 50.3865L164.833 50.8044Z" fill="#FFA53E"/>
<path d="M123.909 58.3221C123.105 58.4897 122.366 58.502 121.694 58.3589C121.019 58.2054 120.451 57.9098 119.989 57.4721C119.525 57.024 119.211 56.4303 119.046 55.6911L121.16 55.2503C121.288 55.7577 121.561 56.1529 121.979 56.4361C122.406 56.7067 122.928 56.7778 123.544 56.6494C124.076 56.5384 124.473 56.3249 124.734 56.009C124.993 55.6827 125.078 55.3054 124.989 54.8773C124.895 54.4283 124.681 54.1079 124.347 53.916C124.023 53.722 123.615 53.5945 123.123 53.5337C122.631 53.4728 122.105 53.408 121.546 53.3393C120.64 53.2233 119.914 52.9823 119.369 52.6164C118.835 52.2484 118.488 51.6832 118.329 50.9209C118.184 50.2757 118.22 49.6907 118.437 49.1659C118.663 48.6286 119.027 48.1769 119.528 47.8109C120.027 47.4345 120.637 47.1712 121.357 47.021C122.088 46.8687 122.757 46.8653 123.365 47.011C123.984 47.1546 124.498 47.4286 124.91 47.8332C125.331 48.2356 125.62 48.7584 125.776 49.4015L123.63 49.8487C123.539 49.4646 123.317 49.1567 122.963 48.9253C122.618 48.6812 122.19 48.6125 121.678 48.7192C121.238 48.8002 120.89 48.9871 120.635 49.2799C120.388 49.5602 120.309 49.9143 120.399 50.3425C120.475 50.7079 120.651 50.9764 120.926 51.1478C121.199 51.3087 121.55 51.421 121.977 51.4845C122.404 51.5479 122.891 51.6099 123.438 51.6703C124.02 51.7451 124.561 51.861 125.063 52.018C125.564 52.175 125.994 52.4341 126.352 52.7952C126.709 53.1459 126.954 53.6449 127.089 54.2923C127.209 54.8666 127.174 55.4297 126.984 55.9814C126.794 56.5331 126.443 57.0203 125.932 57.4428C125.419 57.8549 124.744 58.148 123.909 58.3221Z" fill="#FF3257"/>
<path d="M134.649 56.0835C133.552 56.312 132.542 56.2721 131.617 55.9637C130.702 55.6531 129.922 55.1239 129.275 54.376C128.637 53.6155 128.202 52.6766 127.969 51.5593C127.736 50.442 127.761 49.4125 128.045 48.4709C128.336 47.5167 128.839 46.7146 129.553 46.0645C130.278 45.4122 131.189 44.9718 132.285 44.7432C133.371 44.5169 134.377 44.5579 135.302 44.8663C136.227 45.1747 137.008 45.7091 137.646 46.4696C138.282 47.2197 138.716 48.1534 138.949 49.2707C139.182 50.388 139.158 51.4227 138.877 52.3747C138.594 53.3163 138.09 54.1132 137.365 54.7655C136.64 55.4178 135.735 55.8571 134.649 56.0835ZM134.273 54.2822C135.318 54.0646 136.076 53.5469 136.548 52.7293C137.031 51.9095 137.148 50.8992 136.897 49.6984C136.647 48.4975 136.137 47.6178 135.366 47.0592C134.607 46.4984 133.705 46.3269 132.661 46.5445C131.616 46.7622 130.853 47.2809 130.37 48.1007C129.887 48.9204 129.771 49.9308 130.021 51.1316C130.271 52.3325 130.782 53.2122 131.552 53.7708C132.322 54.3294 133.229 54.4999 134.273 54.2822Z" fill="#FF3257"/>
<path d="M141.862 54.3839L139.577 43.4195L143.602 42.5805C144.479 42.3976 145.231 42.3989 145.858 42.5842C146.494 42.7568 147.006 43.0696 147.394 43.5225C147.781 43.965 148.038 44.4943 148.166 45.1104C148.306 45.7787 148.256 46.4265 148.016 47.054C147.787 47.6792 147.327 48.1944 146.638 48.5996L149.866 52.7156L147.563 53.1955L144.626 49.2968L142.966 49.6429L143.867 53.966L141.862 54.3839ZM142.659 48.1705L144.554 47.7755C145.223 47.6362 145.68 47.372 145.925 46.983C146.171 46.594 146.239 46.1333 146.128 45.6007C146.019 45.0786 145.775 44.6935 145.396 44.4456C145.028 44.1954 144.5 44.1422 143.811 44.2858L141.931 44.6776L142.659 48.1705Z" fill="#FF3257"/>
<path d="M151.621 52.3497L149.336 41.3854L153.361 40.5463C154.238 40.3635 154.99 40.3647 155.617 40.55C156.253 40.7227 156.765 41.0355 157.153 41.4884C157.54 41.9309 157.797 42.4601 157.925 43.0762C158.065 43.7445 158.015 44.3924 157.775 45.0198C157.546 45.6451 157.086 46.1603 156.397 46.5655L159.625 50.6814L157.322 51.1614L154.385 47.2627L152.725 47.6088L153.626 51.9319L151.621 52.3497ZM152.418 46.1364L154.313 45.7414C154.982 45.6021 155.439 45.3379 155.684 44.9489C155.93 44.5599 155.998 44.0991 155.887 43.5666C155.778 43.0445 155.534 42.6594 155.155 42.4114C154.787 42.1613 154.259 42.108 153.57 42.2517L151.69 42.6435L152.418 46.1364Z" fill="#FF3257"/>
<path d="M163.833 49.8044L163.02 45.9042L157.866 39.6073L160.138 39.1339L163.62 43.6871L164.978 38.125L167.217 37.6582L165.025 45.4863L165.838 49.3865L163.833 49.8044Z" fill="#FF3257"/>
</svg>
