<svg xmlns="http://www.w3.org/2000/svg" width="16" height="16" viewBox="0 0 16 16" fill="none">
  <path d="M16.0002 8C16.0002 12.4183 12.4186 16 8.00024 16C3.58191 16 0 12.4183 0 8C0 3.58168 3.58191 0 8.00024 0C12.4186 0 16.0002 3.58168 16.0002 8Z" fill="#29296E"/>
  <path d="M11.7229 5.86067L11.5195 5.23218C11.4782 5.10435 11.3773 5.00488 11.249 4.96566L10.6174 4.77144C10.53 4.74475 10.5293 4.62141 10.616 4.59329L11.2447 4.38986C11.3723 4.34851 11.4718 4.24763 11.5112 4.11933L11.7052 3.48777C11.7319 3.40058 11.8553 3.39964 11.8834 3.48659L12.0868 4.11508C12.1282 4.24266 12.229 4.34213 12.3573 4.38159L12.9889 4.57557C13.0763 4.60251 13.0773 4.72561 12.9903 4.75372L12.3616 4.95716C12.234 4.9985 12.1345 5.09963 12.0951 5.22793L11.9011 5.85925C11.8744 5.94667 11.7511 5.94762 11.7229 5.86067Z" fill="#FAFAFA"/>
  <path d="M0.727509 7.87325C0.917709 7.50065 1.29386 7.21995 1.68465 7.04251C2.07947 6.86696 2.5135 6.75922 2.93974 6.72425C3.80025 6.64652 4.63855 6.79041 5.40219 7.0392C5.79559 7.1564 6.14763 7.31919 6.51126 7.48364C6.68799 7.56869 6.85409 7.66509 7.02515 7.75819L7.4977 8.03203C8.01656 8.35005 8.51959 8.63169 8.99214 8.85048C9.46587 9.06738 9.89399 9.21411 10.2975 9.28901C10.7011 9.36485 11.1113 9.3639 11.6157 9.24813C12.1161 9.13495 12.6792 8.89088 13.2677 8.57782C13.8599 8.26452 14.4671 7.88034 15.1598 7.5049C15.0904 8.28957 14.8683 9.02532 14.5214 9.7358C14.1661 10.4378 13.6718 11.1225 12.9511 11.677C12.2442 12.236 11.2734 12.6257 10.285 12.6843C9.29622 12.7511 8.35561 12.5333 7.55535 12.2056C6.75202 11.8731 6.05785 11.4363 5.44259 10.954C5.27271 10.8208 5.18151 10.7452 5.05605 10.6391L4.70565 10.3322C4.46962 10.1474 4.2409 9.92647 4.00723 9.74336C3.54106 9.35374 3.07985 8.96342 2.57423 8.62507C2.31929 8.45307 2.05631 8.29358 1.75814 8.15229C1.60999 8.08401 1.45263 8.02045 1.2837 7.97036C1.11074 7.91389 0.934957 7.88034 0.727509 7.87325Z" fill="#FF4F0A"/>
  <path d="M0.727509 7.87366C0.824617 7.06631 1.201 6.30906 1.80421 5.6645C2.40434 5.02609 3.34188 4.53393 4.38219 4.46872C4.89562 4.43446 5.41684 4.49164 5.896 4.62442C6.37304 4.75674 6.82007 4.94954 7.22292 5.1766C7.42422 5.29072 7.61253 5.41547 7.80013 5.5414L8.30009 5.91991L9.0805 6.53564C9.58707 6.93896 10.0705 7.31204 10.5173 7.62014C10.9683 7.92871 11.3525 8.15412 11.7194 8.2862C12.0831 8.43032 12.5424 8.46718 13.1496 8.31455C13.4511 8.24508 13.7656 8.11821 14.1011 7.98069C14.4347 7.83988 14.7811 7.67188 15.1598 7.50531C15.1142 7.91123 15.0318 8.31549 14.8751 8.6933C14.7246 9.0763 14.5264 9.45103 14.2492 9.80048C14.1075 9.97059 13.9555 10.1417 13.7783 10.2995C13.6011 10.4535 13.4048 10.5998 13.1879 10.7281C12.7553 10.9788 12.2421 11.1619 11.7157 11.2271C11.1892 11.2933 10.6607 11.2602 10.1794 11.1581C9.69552 11.0589 9.25464 10.8989 8.8499 10.7141C8.04326 10.3389 7.36846 9.86734 6.77187 9.36809C6.47227 9.11883 6.19134 8.85845 5.9253 8.59406L5.61106 8.27864C5.51631 8.1872 5.42062 8.09529 5.32587 8.01117C4.94405 7.67354 4.58964 7.41553 4.19932 7.25462C3.81183 7.08616 3.31589 7.01693 2.70748 7.13082C2.10144 7.24352 1.43657 7.50555 0.727509 7.87366Z" fill="#FAFAFA"/>
  <path d="M3.9248 12.0371C3.9248 12.276 3.73105 12.4697 3.49218 12.4697C3.25331 12.4697 3.0598 12.276 3.0598 12.0371C3.0598 11.7982 3.25331 11.6045 3.49218 11.6045C3.73105 11.6045 3.9248 11.7982 3.9248 12.0371Z" fill="#FAFAFA"/>
  <path d="M3.9248 12.0371C3.9248 12.276 3.73105 12.4697 3.49218 12.4697C3.25331 12.4697 3.0598 12.276 3.0598 12.0371C3.0598 11.7982 3.25331 11.6045 3.49218 11.6045C3.73105 11.6045 3.9248 11.7982 3.9248 12.0371Z" fill="#FAFAFA"/>
</svg>