<svg width="480" height="335" viewBox="0 0 480 335" fill="none" xmlns="http://www.w3.org/2000/svg">
<g opacity="0.2">
<path d="M138.21 202.402L80.6159 202.309C77.327 202.303 74.634 199.631 74.6122 196.349L74.1296 122.242C74.1087 118.961 76.766 116.296 80.0556 116.301L137.65 116.394C140.939 116.4 143.632 119.072 143.654 122.354L144.137 196.463C144.157 199.744 141.5 202.409 138.211 202.404L138.21 202.402ZM80.0591 116.733C77.0084 116.728 74.5436 119.199 74.5635 122.243L75.0454 196.351C75.0659 199.393 77.5625 201.873 80.6133 201.878L138.208 201.971C141.258 201.976 143.723 199.505 143.703 196.462L143.221 122.353C143.2 119.31 140.703 116.83 137.654 116.826L80.0591 116.733Z" fill="white"/>
</g>
<path opacity="0.1" d="M139.506 202.189L79.3166 202.092C76.8587 202.088 74.8528 200.097 74.8369 197.645L74.3382 120.948C74.3223 118.496 76.302 116.512 78.7598 116.516L138.949 116.612C141.407 116.616 143.413 118.607 143.429 121.059L143.929 197.756C143.945 200.208 141.965 202.193 139.507 202.189L139.506 202.189Z" fill="white"/>
<g opacity="0.1">
<path d="M133.49 183.754L88.1082 183.681C84.8593 183.676 82.1991 181.034 82.1779 177.793L81.9041 135.782C81.8829 132.541 84.5092 129.909 87.7581 129.914L133.14 129.987C136.389 129.992 139.049 132.633 139.07 135.874L139.344 177.886C139.365 181.127 136.739 183.759 133.49 183.754ZM87.7597 130.202C84.6698 130.197 82.1724 132.701 82.1926 135.783L82.4664 177.794C82.4866 180.876 85.0168 183.388 88.1067 183.393L133.488 183.466C136.578 183.471 139.076 180.967 139.056 177.885L138.782 135.874C138.762 132.791 136.231 130.28 133.141 130.275L87.7597 130.202Z" fill="white"/>
</g>
<path fill-rule="evenodd" clip-rule="evenodd" d="M85.3097 184.629L133.286 184.706C135.744 184.71 137.724 182.725 137.708 180.274L137.417 135.674C137.401 133.222 135.395 131.231 132.937 131.227L84.9612 131.15C82.5033 131.146 80.5236 133.131 80.5395 135.583L80.8301 180.182C80.846 182.634 82.8519 184.625 85.3097 184.629ZM105.119 158.038L106.628 154.923L113.964 154.924L112.364 158.039L105.119 158.038ZM116.378 160.519L115.548 162.148L100.512 162.146L99.0045 165.262L114.007 165.264L114.01 165.258L120.186 165.253L116.378 160.519ZM98.9007 147.699L105.12 147.694L105.117 147.697L120.074 147.698L118.473 150.815L103.533 150.813L102.709 152.433L98.9007 147.699Z" fill="#FFDBFD"/>
<path d="M128.96 123.643C128.963 123.918 128.739 124.142 128.464 124.141C128.187 124.141 127.961 123.916 127.96 123.641C127.958 123.366 128.181 123.142 128.457 123.143C128.733 123.143 128.959 123.368 128.96 123.643Z" fill="white"/>
<path d="M131.229 123.646C131.231 123.922 131.008 124.145 130.732 124.144C130.456 124.144 130.23 123.92 130.229 123.645C130.227 123.369 130.45 123.145 130.725 123.146C131.002 123.147 131.228 123.371 131.229 123.646Z" fill="white"/>
<path d="M133.497 123.65C133.499 123.926 133.276 124.15 133 124.149C132.724 124.148 132.498 123.924 132.496 123.649C132.495 123.374 132.717 123.15 132.993 123.151C133.269 123.152 133.496 123.375 133.497 123.65Z" fill="white"/>
<path d="M85.6594 126.984C87.2728 127.218 88.7603 126.104 88.9816 124.497C89.203 122.889 88.0745 121.396 86.461 121.162C84.8475 120.928 83.3601 122.042 83.1387 123.65C82.9174 125.257 84.0459 126.75 85.6594 126.984Z" fill="white"/>
<g style="mix-blend-mode:overlay" opacity="0.65">
<path d="M86.0788 127.057C84.4288 127.054 83.0772 125.714 83.0667 124.068C83.0562 122.422 84.3902 121.085 86.0394 121.087C87.6894 121.09 89.0403 122.432 89.0515 124.077C89.062 125.723 87.728 127.059 86.0788 127.057ZM86.0406 121.174C84.4377 121.171 83.1434 122.47 83.1537 124.067C83.1642 125.666 84.4763 126.968 86.0782 126.97C87.6811 126.972 88.9754 125.674 88.9651 124.076C88.954 122.478 87.6426 121.176 86.0413 121.173L86.0406 121.174Z" fill="#1D3444"/>
</g>
<path d="M134.804 189.12L121.541 189.098C121.178 189.097 120.885 189.391 120.887 189.753L120.906 192.711C120.908 193.074 121.205 193.368 121.569 193.369L134.831 193.391C135.195 193.392 135.488 193.098 135.485 192.735L135.466 189.778C135.464 189.415 135.167 189.121 134.804 189.12Z" fill="white"/>
<g opacity="0.2">
<path d="M234.21 260.402L176.616 260.309C173.327 260.303 170.634 257.631 170.612 254.349L170.13 180.242C170.109 176.961 172.766 174.296 176.056 174.301L233.65 174.394C236.939 174.4 239.632 177.072 239.654 180.354L240.137 254.463C240.157 257.744 237.5 260.409 234.211 260.404L234.21 260.402ZM176.059 174.733C173.008 174.728 170.544 177.199 170.563 180.243L171.045 254.351C171.066 257.393 173.563 259.873 176.613 259.878L234.208 259.971C237.258 259.976 239.723 257.505 239.703 254.462L239.221 180.353C239.2 177.31 236.703 174.83 233.654 174.826L176.059 174.733Z" fill="white"/>
</g>
<path opacity="0.1" d="M235.506 260.189L175.317 260.092C172.859 260.088 170.853 258.097 170.837 255.645L170.338 178.948C170.322 176.496 172.302 174.512 174.76 174.516L234.949 174.612C237.407 174.616 239.413 176.607 239.429 179.059L239.929 255.756C239.945 258.208 237.965 260.193 235.507 260.189L235.506 260.189Z" fill="white"/>
<g opacity="0.1">
<path d="M229.49 241.754L184.108 241.681C180.859 241.676 178.199 239.034 178.178 235.793L177.904 193.782C177.883 190.541 180.509 187.909 183.758 187.914L229.14 187.987C232.389 187.992 235.049 190.633 235.07 193.874L235.344 235.886C235.365 239.127 232.739 241.759 229.49 241.754ZM183.76 188.202C180.67 188.197 178.172 190.701 178.193 193.783L178.466 235.794C178.487 238.876 181.017 241.388 184.107 241.393L229.488 241.466C232.578 241.471 235.076 238.967 235.056 235.885L234.782 193.874C234.762 190.791 232.231 188.28 229.141 188.275L183.76 188.202Z" fill="white"/>
</g>
<path fill-rule="evenodd" clip-rule="evenodd" d="M181.31 242.629L229.286 242.706C231.744 242.71 233.724 240.725 233.708 238.274L233.417 193.674C233.401 191.222 231.395 189.231 228.937 189.227L180.961 189.15C178.503 189.146 176.524 191.131 176.54 193.583L176.83 238.182C176.846 240.634 178.852 242.625 181.31 242.629ZM201.119 216.038L202.628 212.923L209.964 212.924L208.364 216.039L201.119 216.038ZM212.378 218.519L211.548 220.148L196.512 220.146L195.005 223.262L210.007 223.264L210.01 223.258L216.186 223.253L212.378 218.519ZM194.901 205.699L201.12 205.694L201.117 205.697L216.074 205.698L214.473 208.815L199.533 208.813L198.709 210.433L194.901 205.699Z" fill="#FFE8AB"/>
<path d="M224.96 181.643C224.963 181.918 224.739 182.142 224.464 182.141C224.187 182.141 223.961 181.916 223.96 181.641C223.958 181.366 224.181 181.142 224.457 181.143C224.733 181.143 224.959 181.368 224.96 181.643Z" fill="white"/>
<path d="M227.229 181.646C227.231 181.922 227.008 182.145 226.732 182.144C226.456 182.144 226.23 181.92 226.229 181.645C226.227 181.369 226.45 181.145 226.725 181.146C227.002 181.147 227.228 181.371 227.229 181.646Z" fill="white"/>
<path d="M229.497 181.65C229.499 181.926 229.276 182.15 229 182.149C228.724 182.148 228.498 181.924 228.496 181.649C228.495 181.374 228.717 181.15 228.993 181.151C229.269 181.152 229.496 181.375 229.497 181.65Z" fill="white"/>
<path d="M181.659 184.984C183.273 185.218 184.76 184.104 184.982 182.497C185.203 180.889 184.074 179.396 182.461 179.162C180.848 178.928 179.36 180.042 179.139 181.65C178.917 183.257 180.046 184.75 181.659 184.984Z" fill="white"/>
<g style="mix-blend-mode:overlay" opacity="0.65">
<path d="M182.079 185.057C180.429 185.054 179.077 183.714 179.067 182.068C179.056 180.422 180.39 179.085 182.039 179.087C183.689 179.09 185.04 180.432 185.051 182.077C185.062 183.723 183.728 185.059 182.079 185.057ZM182.041 179.174C180.438 179.171 179.143 180.47 179.154 182.067C179.164 183.666 180.476 184.968 182.078 184.97C183.681 184.972 184.975 183.674 184.965 182.076C184.954 180.478 183.643 179.176 182.041 179.173L182.041 179.174Z" fill="#1D3444"/>
</g>
<path d="M230.804 247.12L217.541 247.098C217.178 247.097 216.885 247.391 216.887 247.753L216.906 250.711C216.908 251.074 217.205 251.368 217.569 251.369L230.831 251.391C231.195 251.392 231.488 251.098 231.485 250.735L231.466 247.778C231.464 247.415 231.167 247.121 230.804 247.12Z" fill="white"/>
<g opacity="0.2">
<path d="M242.272 152.93L166.604 152.808C162.283 152.801 158.745 149.29 158.716 144.978L158.082 47.6153C158.054 43.3047 161.546 39.8037 165.868 39.8101L241.536 39.9322C245.857 39.9397 249.395 43.4509 249.424 47.7623L250.058 145.127C250.085 149.438 246.594 152.939 242.272 152.932L242.272 152.93ZM165.872 40.3776C161.864 40.3711 158.626 43.6177 158.652 47.6161L159.285 144.98C159.312 148.977 162.592 152.235 166.6 152.242L242.269 152.364C246.277 152.37 249.515 149.124 249.488 145.127L248.854 47.7603C248.828 43.7631 245.547 40.5052 241.541 40.4996L165.872 40.3776Z" fill="white"/>
</g>
<path opacity="0.1" d="M243.974 152.65L164.897 152.523C161.668 152.517 159.032 149.901 159.011 146.68L158.356 45.9156C158.335 42.6943 160.936 40.0865 164.165 40.0917L243.243 40.2183C246.472 40.2235 249.108 42.8393 249.129 46.0606L249.785 146.826C249.806 150.047 247.205 152.655 243.976 152.65L243.974 152.65Z" fill="white"/>
<g opacity="0.1">
<path d="M236.071 128.43L176.447 128.334C172.179 128.327 168.684 124.857 168.656 120.599L168.296 65.4043C168.269 61.1463 171.719 57.6878 175.987 57.6946L235.611 57.7906C239.879 57.7973 243.374 61.2675 243.402 65.5256L243.762 120.72C243.79 124.978 240.339 128.437 236.071 128.43ZM175.989 58.0727C171.93 58.0663 168.649 61.3557 168.675 65.4054L169.035 120.6C169.062 124.65 172.386 127.95 176.445 127.956L236.069 128.052C240.128 128.058 243.409 124.769 243.383 120.719L243.023 65.5245C242.996 61.4749 239.672 58.1751 235.613 58.1687L175.989 58.0727Z" fill="white"/>
</g>
<path fill-rule="evenodd" clip-rule="evenodd" d="M172.771 129.58L235.803 129.682C239.032 129.687 241.633 127.079 241.612 123.858L241.23 65.2625C241.209 62.0412 238.574 59.4254 235.345 59.4201L172.313 59.3185C169.084 59.3132 166.483 61.921 166.504 65.1423L166.885 123.738C166.906 126.959 169.542 129.575 172.771 129.58ZM198.796 94.6449L200.778 90.5517L210.417 90.5529L208.315 94.6462L198.796 94.6449ZM213.588 97.9042L212.498 100.044L192.744 100.042L190.763 104.136L210.473 104.138L210.477 104.131L218.591 104.124L213.588 97.9042ZM190.626 81.0608L198.797 81.0543L198.793 81.0579L218.444 81.06L216.341 85.1541L196.712 85.152L195.63 87.2806L190.626 81.0608Z" fill="#A9E9F6"/>
<path d="M230.12 49.4554C230.122 49.8177 229.829 50.1114 229.467 50.1101C229.104 50.1099 228.807 49.8151 228.805 49.4536C228.803 49.0914 229.096 48.7976 229.458 48.799C229.821 48.7992 230.118 49.094 230.12 49.4554Z" fill="white"/>
<path d="M233.1 49.4598C233.103 49.8221 232.81 50.1158 232.447 50.1145C232.084 50.1143 231.787 49.8195 231.786 49.458C231.783 49.0958 232.076 48.802 232.438 48.8034C232.802 48.8036 233.098 49.0984 233.1 49.4598Z" fill="white"/>
<path d="M236.079 49.4653C236.082 49.8276 235.789 50.1213 235.427 50.1199C235.064 50.1198 234.767 49.8249 234.765 49.4635C234.764 49.1021 235.056 48.8075 235.418 48.8088C235.78 48.8102 236.078 49.1039 236.079 49.4653Z" fill="white"/>
<path d="M173.23 53.8454C175.35 54.1526 177.304 52.6894 177.595 50.5773C177.886 48.4651 176.403 46.5037 174.283 46.1965C172.164 45.8892 170.209 47.3524 169.918 49.4646C169.628 51.5768 171.11 53.5381 173.23 53.8454Z" fill="white"/>
<g style="mix-blend-mode:overlay" opacity="0.65">
<path d="M173.781 53.9414C171.613 53.9376 169.838 52.1761 169.824 50.0136C169.81 47.851 171.563 46.0947 173.729 46.0976C175.897 46.1014 177.672 47.864 177.687 50.0254C177.7 52.188 175.948 53.9443 173.781 53.9414ZM173.731 46.2117C171.625 46.2084 169.925 47.9142 169.938 50.0128C169.952 52.1136 171.676 53.8238 173.78 53.8262C175.886 53.8294 177.587 52.1237 177.573 50.025C177.559 47.9254 175.836 46.214 173.732 46.2105L173.731 46.2117Z" fill="#1D3444"/>
</g>
<path d="M237.796 135.48L220.372 135.451C219.895 135.45 219.51 135.836 219.513 136.312L219.538 140.198C219.541 140.674 219.931 141.062 220.409 141.062L237.832 141.092C238.31 141.092 238.695 140.707 238.692 140.23L238.667 136.345C238.664 135.868 238.274 135.481 237.796 135.48Z" fill="white"/>
<path d="M8.00033 100.631C7.88428 102.121 6.32758 103.033 6.32758 103.033C3.35212 102.099 0.622256 99.883 0.622256 99.883C1.34295 99.38 2.32959 97.1369 2.32959 97.1369C3.86433 99.072 8.00035 100.632 8.00035 100.632L8.00033 100.631Z" fill="url(#paint0_linear_6229_10850)"/>
<path d="M70.4287 80.8393C70.3518 81.814 69.3326 82.4022 69.3326 82.4022C67.3838 81.7938 65.5913 80.3467 65.5913 80.3467C66.0682 80.0144 66.7149 78.5416 66.7149 78.5416C67.7159 79.8138 70.4295 80.8393 70.4295 80.8393L70.4287 80.8393Z" fill="url(#paint1_linear_6229_10850)"/>
<path d="M100.091 105.413C99.4225 104.51 97.4529 103.838 97.4529 103.838C97.5589 105.433 96.9705 106.101 97.1834 106.226C98.2751 106.852 99.0397 107.245 99.0397 107.245C100.16 106.6 100.091 105.413 100.091 105.413Z" fill="url(#paint2_linear_6229_10850)"/>
<path d="M68.7239 96.9189C66.9226 97.7047 64.3159 96.5906 64.3159 96.5906C64.7688 100.289 64.7857 100.843 64.7857 100.843C67.2095 101.514 68.4579 100.926 68.4579 100.926L68.7239 96.9189Z" fill="url(#paint3_linear_6229_10850)"/>
<path d="M74.1262 139.712C73.9132 138.804 72.692 137.798 72.692 137.798C71.9797 138.634 69.5874 138.69 69.5874 138.69C70.8213 140.121 70.5751 140.455 70.5751 140.455C72.2434 139.65 74.1262 139.712 74.1262 139.712Z" fill="url(#paint4_linear_6229_10850)"/>
<path d="M123.643 81.3833C122.086 81.6976 120.298 83.76 120.298 83.76C121.667 85.0519 121.602 89.2198 121.602 89.2198C124.112 87.1613 124.663 87.6119 124.663 87.6119C123.41 84.6582 123.643 81.3841 123.643 81.3841L123.643 81.3833Z" fill="url(#paint5_linear_6229_10850)"/>
<path d="M56.9412 61.457L58.4785 64.6712C58.4785 64.6712 57.2558 66.6736 55.3534 65.6222C55.3534 65.6222 55.4162 64.4428 54.1404 62.6985C54.1404 62.6985 55.7296 62.8849 56.9412 61.457Z" fill="url(#paint6_linear_6229_10850)"/>
<path d="M23.4343 125.363L24.2296 129.98C24.2296 129.98 21.9871 132.056 19.9568 130.049C19.9568 130.049 20.4555 128.575 19.4633 125.912C19.4633 125.912 21.3985 126.732 23.4343 125.363Z" fill="url(#paint7_linear_6229_10850)"/>
<path d="M56.8076 120.431C56.1263 119.803 54.5543 119.672 54.5543 119.672C54.4319 120.768 52.4901 122.182 52.4901 122.182C54.307 122.659 54.2896 123.074 54.2896 123.074C55.2191 121.455 56.8076 120.43 56.8076 120.43L56.8076 120.431Z" fill="url(#paint8_linear_6229_10850)"/>
<path d="M90.0831 128.871L95.0694 132.509C95.0694 132.509 94.8368 136.592 91.0608 136.579C91.0608 136.579 90.1861 134.719 86.8049 133.128C86.8049 133.128 89.3958 132.076 90.0838 128.871L90.0831 128.871Z" fill="url(#paint9_linear_6229_10850)"/>
<path d="M91.4952 80.5123C90.5249 81.8832 90.4304 84.6304 90.4851 85.2593C90.5397 85.8883 91.0924 89.9421 90.971 91.0069C91.7963 90.3573 93.262 88.9892 93.282 87.629C93.302 86.2674 92.8313 82.8066 92.8846 81.5183C92.9373 80.2308 93.0844 78.8106 93.5195 77.8325C92.8957 78.5878 91.767 79.9793 91.496 80.5122L91.4952 80.5123Z" fill="url(#paint10_linear_6229_10850)"/>
<path d="M81.5801 98.5725C80.9071 99.8598 80.7416 102.352 82.2274 104.298C83.7132 106.242 85.9062 108.494 89.5806 108.838C88.541 108.508 87.7884 108.328 87.0045 107.466C86.2207 106.605 84.2374 103.632 83.8762 102.812C83.515 101.993 82.0239 98.9864 82.8355 96.4933C82.3252 97.2292 81.5816 98.5725 81.5816 98.5725L81.5801 98.5725Z" fill="url(#paint11_linear_6229_10850)"/>
<path d="M92.7046 89.2268C92.2844 89.9614 90.293 92.915 90.042 93.2306C89.7909 93.5469 88.8619 94.5323 86.7298 95.3847C84.5978 96.2363 82.3716 96.9915 81.573 98.5662C82.1688 97.27 83.3158 94.8032 83.8504 94.2438C84.3858 93.6851 85.1182 92.998 86.2144 92.517C87.3098 92.0367 89.9175 90.8166 90.2962 90.6848C90.6742 90.553 92.1626 89.8728 92.7053 89.2268L92.7046 89.2268Z" fill="url(#paint12_linear_6229_10850)"/>
<path d="M105.351 71.8679C104.116 73.1436 102.353 74.8823 102.014 75.1949C101.674 75.5083 100.181 76.4675 99.0109 76.7577C97.8397 77.0479 95.842 77.4685 94.8293 77.8179C93.8166 78.1672 92.2638 79.0891 91.4856 80.5129C92.6626 78.6159 94.373 76.3258 94.8642 75.8878C95.3547 75.4491 97.0808 74.1371 99.8377 73.5299C102.594 72.9234 104.416 72.543 105.351 71.8687L105.351 71.8679Z" fill="url(#paint13_linear_6229_10850)"/>
<g style="mix-blend-mode:soft-light" opacity="0.8">
<path d="M8.00054 100.63C7.88414 102.119 6.32698 103.032 6.32698 103.032C3.35121 102.099 0.621367 99.884 0.621367 99.884C1.34229 99.3809 2.32959 97.1383 2.32959 97.1383C3.86417 99.0724 8.00055 100.631 8.00055 100.631L8.00054 100.63Z" fill="url(#paint14_linear_6229_10850)"/>
<path d="M70.429 80.8386C70.3518 81.813 69.3323 82.4013 69.3323 82.4013C67.3833 81.7935 65.5908 80.3473 65.5908 80.3473C66.0679 80.015 66.715 78.5425 66.715 78.5425C67.7159 79.8141 70.4297 80.8386 70.4297 80.8386L70.429 80.8386Z" fill="url(#paint15_linear_6229_10850)"/>
<path d="M100.091 105.412C99.4225 104.51 97.4525 103.838 97.4525 103.838C97.5581 105.433 96.9694 106.101 97.1824 106.226C98.2742 106.852 99.0389 107.245 99.0389 107.245C100.159 106.599 100.091 105.412 100.091 105.412Z" fill="url(#paint16_linear_6229_10850)"/>
<path d="M68.7247 96.9188C66.9229 97.7049 64.3159 96.5917 64.3159 96.5917C64.768 100.29 64.7849 100.843 64.7849 100.843C67.209 101.513 68.4579 100.925 68.4579 100.925L68.7247 96.9188Z" fill="url(#paint17_linear_6229_10850)"/>
<path d="M74.1265 139.711C73.9137 138.803 72.6926 137.798 72.6926 137.798C71.98 138.634 69.5874 138.691 69.5874 138.691C70.8211 140.12 70.5748 140.455 70.5748 140.455C72.2435 139.65 74.1265 139.711 74.1265 139.711Z" fill="url(#paint18_linear_6229_10850)"/>
<path d="M123.644 81.3836C122.087 81.6982 120.298 83.7608 120.298 83.7608C121.667 85.0522 121.601 89.2195 121.601 89.2195C124.112 87.1606 124.663 87.611 124.663 87.611C123.411 84.658 123.644 81.3843 123.644 81.3843L123.644 81.3836Z" fill="url(#paint19_linear_6229_10850)"/>
<path d="M56.942 61.4574L58.479 64.6705C58.479 64.6705 57.2556 66.6727 55.3531 65.622C55.3531 65.622 55.4161 64.4428 54.1404 62.6993C54.1404 62.6993 55.7299 62.8852 56.942 61.4574Z" fill="url(#paint20_linear_6229_10850)"/>
<path d="M23.4351 125.364L24.2296 129.979C24.2296 129.979 21.9861 132.055 19.9557 130.05C19.9557 130.05 20.4549 128.576 19.463 125.913C19.463 125.913 21.3985 126.732 23.4351 125.364Z" fill="url(#paint21_linear_6229_10850)"/>
<path d="M56.8084 120.431C56.1271 119.803 54.5549 119.673 54.5549 119.673C54.4322 120.769 52.4898 122.183 52.4898 122.183C54.3069 122.659 54.2894 123.074 54.2894 123.074C55.2195 121.455 56.8084 120.431 56.8084 120.431L56.8084 120.431Z" fill="url(#paint22_linear_6229_10850)"/>
<path d="M90.0841 128.873L95.0705 132.508C95.0705 132.508 94.837 136.59 91.0603 136.578C91.0603 136.578 90.1858 134.718 86.8042 133.129C86.8042 133.129 89.3959 132.076 90.0848 128.872L90.0841 128.873Z" fill="url(#paint23_linear_6229_10850)"/>
<path d="M91.4957 80.5126C90.5244 81.8837 90.4292 84.6307 90.4838 85.2597C90.5383 85.8886 91.0906 89.942 90.9689 91.0068C91.795 90.3571 93.2621 88.9887 93.2825 87.6286C93.3028 86.267 92.8324 82.8065 92.886 81.5183C92.939 80.2308 93.0865 78.8107 93.5222 77.8325C92.8978 78.5879 91.7678 79.9796 91.4965 80.5126L91.4957 80.5126Z" fill="url(#paint24_linear_6229_10850)"/>
<path d="M81.5802 98.574C80.9068 99.8613 80.7407 102.353 82.2266 104.298C83.7124 106.242 85.9056 108.493 89.581 108.836C88.5411 108.507 87.7884 108.326 87.0045 107.465C86.2206 106.604 84.2373 103.632 83.8762 102.812C83.515 101.994 82.0241 98.9877 82.8364 96.4949C82.3259 97.2308 81.5817 98.574 81.5817 98.574L81.5802 98.574Z" fill="url(#paint25_linear_6229_10850)"/>
<path d="M92.7068 89.2268C92.2864 89.9613 90.2941 92.9145 90.0429 93.23C89.7918 93.5463 88.8623 94.5317 86.7298 95.3844C84.5972 96.2363 82.3705 96.9917 81.5714 98.5662C82.1676 97.2702 83.3153 94.8038 83.8501 94.2445C84.3857 93.6858 85.1184 92.9988 86.2148 92.5176C87.3106 92.0372 89.9189 90.8168 90.2977 90.685C90.6758 90.5532 92.1646 89.8727 92.7075 89.2268L92.7068 89.2268Z" fill="url(#paint26_linear_6229_10850)"/>
<path d="M105.353 71.8679C104.118 73.1434 102.354 74.8818 102.015 75.1944C101.674 75.5078 100.182 76.467 99.0111 76.7573C97.8397 77.0477 95.8416 77.4686 94.8288 77.8181C93.8159 78.1676 92.2627 79.0895 91.4841 80.5129C92.6616 78.6163 94.3728 76.3268 94.8641 75.8888C95.3547 75.4501 97.0813 74.1383 99.8387 73.5306C102.595 72.9236 104.417 72.5429 105.353 71.8687L105.353 71.8679Z" fill="url(#paint27_linear_6229_10850)"/>
</g>
<path d="M468.609 84.469C468.762 86.4411 470.823 87.6484 470.823 87.6484C474.762 86.4126 478.376 83.4786 478.376 83.4786C477.422 82.8127 476.116 79.8434 476.116 79.8434C474.084 82.405 468.609 84.47 468.609 84.47L468.609 84.469Z" fill="url(#paint28_linear_6229_10850)"/>
<path d="M385.968 58.2688C386.07 59.5591 387.419 60.3377 387.419 60.3377C389.999 59.5323 392.371 57.6167 392.371 57.6167C391.74 57.1768 390.884 55.2272 390.884 55.2272C389.559 56.9113 385.967 58.2688 385.967 58.2688L385.968 58.2688Z" fill="url(#paint29_linear_6229_10850)"/>
<path d="M346.701 90.7986C347.586 89.6039 350.194 88.7134 350.194 88.7134C350.053 90.8249 350.832 91.7091 350.55 91.8753C349.105 92.7036 348.093 93.2245 348.093 93.2245C346.61 92.3697 346.701 90.7986 346.701 90.7986Z" fill="url(#paint30_linear_6229_10850)"/>
<path d="M388.225 79.5546C390.609 80.5949 394.06 79.1201 394.06 79.1201C393.46 84.0164 393.438 84.7489 393.438 84.7489C390.229 85.6371 388.577 84.8586 388.577 84.8586L388.225 79.5546Z" fill="url(#paint31_linear_6229_10850)"/>
<path d="M381.073 136.203C381.355 135.001 382.972 133.67 382.972 133.67C383.915 134.776 387.081 134.851 387.081 134.851C385.448 136.744 385.774 137.187 385.774 137.187C383.566 136.121 381.073 136.203 381.073 136.203Z" fill="url(#paint32_linear_6229_10850)"/>
<path d="M315.524 58.9891C317.585 59.4051 319.952 62.1353 319.952 62.1353C318.14 63.8455 318.226 69.3627 318.226 69.3627C314.904 66.6377 314.174 67.2343 314.174 67.2343C315.832 63.3242 315.524 58.99 315.524 58.99L315.524 58.9891Z" fill="url(#paint33_linear_6229_10850)"/>
<path d="M403.822 32.611L401.787 36.8659C401.787 36.8659 403.406 39.5165 405.924 38.1247C405.924 38.1247 405.841 36.5635 407.53 34.2544C407.53 34.2544 405.426 34.5011 403.822 32.611Z" fill="url(#paint34_linear_6229_10850)"/>
<path d="M448.178 117.209L447.125 123.321C447.125 123.321 450.094 126.068 452.781 123.412C452.781 123.412 452.121 121.461 453.435 117.935C453.435 117.935 450.873 119.02 448.178 117.209Z" fill="url(#paint35_linear_6229_10850)"/>
<path d="M403.999 110.68C404.901 109.848 406.982 109.674 406.982 109.674C407.144 111.126 409.714 112.998 409.714 112.998C407.309 113.628 407.332 114.179 407.332 114.179C406.102 112.035 403.999 110.679 403.999 110.679L403.999 110.68Z" fill="url(#paint36_linear_6229_10850)"/>
<path d="M359.95 121.853L353.349 126.669C353.349 126.669 353.657 132.073 358.656 132.056C358.656 132.056 359.814 129.593 364.29 127.488C364.29 127.488 360.86 126.094 359.949 121.852L359.95 121.853Z" fill="url(#paint37_linear_6229_10850)"/>
<path d="M358.08 57.8359C359.365 59.6507 359.49 63.2874 359.418 64.12C359.345 64.9527 358.614 70.3189 358.774 71.7284C357.682 70.8686 355.742 69.0575 355.715 67.257C355.689 65.4545 356.312 60.8732 356.241 59.1678C356.171 57.4633 355.977 55.5833 355.401 54.2886C356.226 55.2884 357.721 57.1305 358.079 57.8359L358.08 57.8359Z" fill="url(#paint38_linear_6229_10850)"/>
<path d="M371.206 81.7435C372.097 83.4476 372.316 86.7469 370.349 89.3222C368.382 91.8965 365.479 94.8773 360.615 95.3321C361.991 94.8965 362.987 94.6575 364.025 93.5171C365.063 92.3767 367.688 88.4408 368.166 87.3557C368.644 86.2716 370.618 82.2914 369.544 78.9911C370.219 79.9653 371.204 81.7435 371.204 81.7435L371.206 81.7435Z" fill="url(#paint39_linear_6229_10850)"/>
<path d="M356.479 69.3721C357.035 70.3445 359.672 74.2544 360.004 74.6721C360.336 75.0909 361.566 76.3954 364.388 77.5238C367.211 78.6511 370.158 79.6507 371.215 81.7354C370.426 80.0194 368.908 76.7539 368.2 76.0134C367.491 75.2739 366.522 74.3643 365.071 73.7275C363.621 73.0917 360.169 71.4766 359.667 71.3021C359.167 71.1277 357.197 70.2272 356.478 69.3721L356.479 69.3721Z" fill="url(#paint40_linear_6229_10850)"/>
<path d="M339.738 46.3928C341.373 48.0815 343.707 50.3831 344.156 50.797C344.606 51.2119 346.582 52.4816 348.131 52.8658C349.682 53.25 352.326 53.8067 353.667 54.2692C355.007 54.7317 357.063 55.952 358.093 57.8369C356.535 55.3256 354.271 52.2941 353.62 51.7143C352.971 51.1335 350.686 49.3968 347.037 48.5929C343.388 47.79 340.976 47.2864 339.738 46.3938L339.738 46.3928Z" fill="url(#paint41_linear_6229_10850)"/>
<g style="mix-blend-mode:soft-light" opacity="0.8">
<path d="M468.609 84.4673C468.763 86.4389 470.824 87.6463 470.824 87.6463C474.763 86.4119 478.377 83.4796 478.377 83.4796C477.423 82.8137 476.116 79.845 476.116 79.845C474.084 82.4053 468.609 84.4683 468.609 84.4683L468.609 84.4673Z" fill="url(#paint42_linear_6229_10850)"/>
<path d="M385.967 58.2679C386.069 59.5578 387.419 60.3366 387.419 60.3366C389.999 59.532 392.372 57.6175 392.372 57.6175C391.74 57.1776 390.884 55.2284 390.884 55.2284C389.559 56.9117 385.966 58.2679 385.966 58.2679L385.967 58.2679Z" fill="url(#paint43_linear_6229_10850)"/>
<path d="M346.702 90.7981C347.586 89.6039 350.194 88.7143 350.194 88.7143C350.054 90.8253 350.834 91.7095 350.552 91.8756C349.107 92.7033 348.094 93.2239 348.094 93.2239C346.611 92.3689 346.702 90.7981 346.702 90.7981Z" fill="url(#paint44_linear_6229_10850)"/>
<path d="M388.223 79.5545C390.609 80.5951 394.06 79.1215 394.06 79.1215C393.461 84.0166 393.439 84.7489 393.439 84.7489C390.23 85.6361 388.577 84.8574 388.577 84.8574L388.223 79.5545Z" fill="url(#paint45_linear_6229_10850)"/>
<path d="M381.072 136.202C381.354 135 382.971 133.67 382.971 133.67C383.914 134.776 387.081 134.852 387.081 134.852C385.448 136.744 385.774 137.187 385.774 137.187C383.565 136.121 381.072 136.202 381.072 136.202Z" fill="url(#paint46_linear_6229_10850)"/>
<path d="M315.522 58.9894C317.583 59.4058 319.953 62.1363 319.953 62.1363C318.14 63.8458 318.227 69.3623 318.227 69.3623C314.903 66.6369 314.173 67.2331 314.173 67.2331C315.831 63.324 315.522 58.9903 315.522 58.9903L315.522 58.9894Z" fill="url(#paint47_linear_6229_10850)"/>
<path d="M403.821 32.6115L401.786 36.8649C401.786 36.8649 403.406 39.5153 405.924 38.1244C405.924 38.1244 405.841 36.5635 407.53 34.2555C407.53 34.2555 405.425 34.5016 403.821 32.6115Z" fill="url(#paint48_linear_6229_10850)"/>
<path d="M448.177 117.209L447.125 123.319C447.125 123.319 450.095 126.067 452.783 123.412C452.783 123.412 452.122 121.461 453.435 117.936C453.435 117.936 450.873 119.02 448.177 117.209Z" fill="url(#paint49_linear_6229_10850)"/>
<path d="M403.998 110.68C404.9 109.849 406.981 109.675 406.981 109.675C407.143 111.127 409.715 112.999 409.715 112.999C407.309 113.629 407.332 114.179 407.332 114.179C406.101 112.035 403.998 110.679 403.998 110.679L403.998 110.68Z" fill="url(#paint50_linear_6229_10850)"/>
<path d="M359.948 121.854L353.347 126.667C353.347 126.667 353.656 132.071 358.656 132.055C358.656 132.055 359.814 129.593 364.29 127.489C364.29 127.489 360.859 126.095 359.947 121.853L359.948 121.854Z" fill="url(#paint51_linear_6229_10850)"/>
<path d="M358.08 57.8364C359.365 59.6514 359.491 63.2879 359.419 64.1205C359.347 64.953 358.616 70.3188 358.777 71.7283C357.683 70.8683 355.741 69.0568 355.714 67.2564C355.687 65.4539 356.31 60.8731 356.239 59.1677C356.169 57.4633 355.974 55.5834 355.397 54.2886C356.224 55.2885 357.719 57.1309 358.079 57.8364L358.08 57.8364Z" fill="url(#paint52_linear_6229_10850)"/>
<path d="M371.206 81.7456C372.097 83.4496 372.317 86.7484 370.35 89.3228C368.383 91.8963 365.48 94.8759 360.614 95.3295C361.991 94.8943 362.987 94.6555 364.025 93.5156C365.063 92.3756 367.688 88.4409 368.166 87.3561C368.644 86.2723 370.618 82.2932 369.543 78.9932C370.219 79.9674 371.204 81.7455 371.204 81.7455L371.206 81.7456Z" fill="url(#paint53_linear_6229_10850)"/>
<path d="M356.477 69.3721C357.033 70.3443 359.67 74.2537 360.003 74.6715C360.335 75.0902 361.566 76.3946 364.389 77.5233C367.212 78.6511 370.16 79.6511 371.217 81.7354C370.428 80.0197 368.909 76.7548 368.201 76.0143C367.492 75.2748 366.522 74.3653 365.07 73.7283C363.62 73.0924 360.167 71.4769 359.666 71.3024C359.165 71.1279 357.194 70.2271 356.476 69.3721L356.477 69.3721Z" fill="url(#paint54_linear_6229_10850)"/>
<path d="M339.736 46.3928C341.371 48.0812 343.706 50.3826 344.155 50.7964C344.605 51.2112 346.581 52.4809 348.131 52.8653C349.682 53.2498 352.327 53.8069 353.667 54.2695C355.008 54.7321 357.064 55.9525 358.095 57.8369C356.536 55.3262 354.271 52.2953 353.621 51.7156C352.971 51.1349 350.686 49.3983 347.035 48.5938C343.386 47.7904 340.974 47.2864 339.736 46.3938L339.736 46.3928Z" fill="url(#paint55_linear_6229_10850)"/>
</g>
<g opacity="0.2">
<path d="M375.106 279.15L273.6 278.986C267.804 278.976 263.057 274.266 263.019 268.482L262.168 137.874C262.132 132.091 266.815 127.395 272.613 127.404L374.118 127.567C379.915 127.578 384.661 132.288 384.699 138.071L385.55 268.682C385.587 274.465 380.904 279.161 375.106 279.153L375.106 279.15ZM272.619 128.165C267.242 128.156 262.898 132.511 262.933 137.875L263.783 268.485C263.819 273.847 268.219 278.217 273.595 278.226L375.101 278.39C380.478 278.398 384.822 274.043 384.786 268.681L383.936 138.068C383.9 132.706 379.5 128.336 374.125 128.329L272.619 128.165Z" fill="white"/>
</g>
<path opacity="0.1" d="M377.389 278.774L271.31 278.602C266.979 278.595 263.443 275.086 263.415 270.765L262.536 135.594C262.508 131.272 265.997 127.774 270.329 127.781L376.409 127.951C380.74 127.958 384.276 131.467 384.304 135.788L385.184 270.961C385.212 275.282 381.723 278.78 377.392 278.773L377.389 278.774Z" fill="white"/>
<g opacity="0.1">
<path d="M366.787 246.283L286.805 246.155C281.079 246.145 276.39 241.49 276.353 235.778L275.871 161.737C275.833 156.025 280.462 151.385 286.188 151.395L366.17 151.523C371.896 151.532 376.584 156.187 376.621 161.899L377.104 235.941C377.141 241.653 372.513 246.292 366.787 246.283ZM286.19 151.902C280.745 151.893 276.343 156.306 276.379 161.738L276.862 235.78C276.897 241.212 281.356 245.639 286.802 245.647L366.784 245.776C372.23 245.785 376.631 241.372 376.596 235.94L376.113 161.898C376.077 156.466 371.618 152.039 366.172 152.031L286.19 151.902Z" fill="white"/>
</g>
<path fill-rule="evenodd" clip-rule="evenodd" d="M281.873 247.826L366.427 247.962C370.759 247.969 374.248 244.471 374.22 240.15L373.708 161.547C373.68 157.226 370.145 153.717 365.813 153.709L281.258 153.573C276.927 153.566 273.437 157.064 273.466 161.386L273.978 239.989C274.006 244.31 277.541 247.819 281.873 247.826ZM316.784 200.962L319.444 195.471L332.373 195.473L329.554 200.964L316.784 200.962ZM336.628 205.334L335.166 208.205L308.666 208.202L306.009 213.694L332.449 213.697L332.454 213.687L343.339 213.678L336.628 205.334ZM305.826 182.739L316.786 182.731L316.781 182.736L343.142 182.738L340.32 188.231L313.99 188.228L312.537 191.083L305.826 182.739Z" fill="#FFB09E"/>
<path d="M358.804 140.342C358.808 140.828 358.414 141.222 357.928 141.22C357.441 141.22 357.043 140.825 357.041 140.34C357.037 139.854 357.43 139.46 357.916 139.462C358.404 139.462 358.802 139.857 358.804 140.342Z" fill="white"/>
<path d="M362.802 140.348C362.806 140.834 362.412 141.228 361.926 141.226C361.439 141.226 361.041 140.831 361.039 140.346C361.035 139.86 361.428 139.466 361.914 139.468C362.402 139.468 362.8 139.863 362.802 140.348Z" fill="white"/>
<path d="M366.799 140.356C366.802 140.842 366.409 141.236 365.923 141.234C365.436 141.234 365.038 140.838 365.036 140.353C365.033 139.868 365.425 139.473 365.911 139.475C366.397 139.477 366.796 139.871 366.799 140.356Z" fill="white"/>
<path d="M282.489 146.231C285.333 146.643 287.954 144.68 288.344 141.847C288.734 139.014 286.745 136.383 283.902 135.97C281.058 135.558 278.437 137.521 278.047 140.354C277.656 143.188 279.645 145.819 282.489 146.231Z" fill="white"/>
<g style="mix-blend-mode:overlay" opacity="0.65">
<path d="M283.228 146.36C280.32 146.355 277.938 143.992 277.92 141.091C277.901 138.19 280.252 135.834 283.159 135.838C286.067 135.843 288.448 138.207 288.467 141.107C288.486 144.008 286.135 146.364 283.228 146.36ZM283.161 135.991C280.336 135.986 278.055 138.275 278.073 141.09C278.091 143.908 280.404 146.202 283.227 146.205C286.052 146.21 288.333 143.922 288.315 141.106C288.295 138.29 285.984 135.994 283.162 135.989L283.161 135.991Z" fill="#1D3444"/>
</g>
<path d="M369.102 255.741L345.728 255.701C345.087 255.7 344.571 256.218 344.575 256.857L344.609 262.069C344.613 262.709 345.136 263.228 345.777 263.229L369.15 263.269C369.791 263.27 370.308 262.752 370.304 262.113L370.27 256.901C370.266 256.261 369.743 255.742 369.102 255.741Z" fill="white"/>
<defs>
<linearGradient id="paint0_linear_6229_10850" x1="7.77448" y1="101.501" x2="1.03746" y2="98.8486" gradientUnits="userSpaceOnUse">
<stop stop-color="#F2C692"/>
<stop offset="0.07" stop-color="#F4CEA3"/>
<stop offset="0.19" stop-color="#F9E2C9"/>
<stop offset="0.41" stop-color="#F4E8D9"/>
<stop offset="0.59" stop-color="#EFB777"/>
<stop offset="0.78" stop-color="#F3E4D2"/>
<stop offset="0.79" stop-color="#F4E8D9"/>
<stop offset="0.95" stop-color="#EABE81"/>
</linearGradient>
<linearGradient id="paint1_linear_6229_10850" x1="70.2819" y1="81.4014" x2="65.8641" y2="79.6623" gradientUnits="userSpaceOnUse">
<stop stop-color="#F2C692"/>
<stop offset="0.07" stop-color="#F4CEA3"/>
<stop offset="0.19" stop-color="#F9E2C9"/>
<stop offset="0.41" stop-color="#F4E8D9"/>
<stop offset="0.59" stop-color="#EFB777"/>
<stop offset="0.78" stop-color="#F3E4D2"/>
<stop offset="0.79" stop-color="#F4E8D9"/>
<stop offset="0.95" stop-color="#EABE81"/>
</linearGradient>
<linearGradient id="paint2_linear_6229_10850" x1="100.304" y1="106.597" x2="97.5711" y2="104.359" gradientUnits="userSpaceOnUse">
<stop stop-color="#F5C38A"/>
<stop offset="0.21" stop-color="#F5D4AD"/>
<stop offset="0.23" stop-color="#F5D7B4"/>
<stop offset="0.27" stop-color="#F8E2C9"/>
<stop offset="0.31" stop-color="#FCF1E4"/>
<stop offset="0.39" stop-color="#F2C692"/>
<stop offset="0.53" stop-color="#EFB777"/>
<stop offset="1" stop-color="#F9E2C9"/>
</linearGradient>
<linearGradient id="paint3_linear_6229_10850" x1="68.9222" y1="99.7593" x2="63.8587" y2="97.766" gradientUnits="userSpaceOnUse">
<stop stop-color="#F5C38A"/>
<stop offset="0.21" stop-color="#F5D4AD"/>
<stop offset="0.23" stop-color="#F5D7B4"/>
<stop offset="0.27" stop-color="#F8E2C9"/>
<stop offset="0.31" stop-color="#FCF1E4"/>
<stop offset="0.39" stop-color="#F2C692"/>
<stop offset="0.53" stop-color="#EFB777"/>
<stop offset="1" stop-color="#F9E2C9"/>
</linearGradient>
<linearGradient id="paint4_linear_6229_10850" x1="72.778" y1="140.65" x2="70.8663" y2="137.841" gradientUnits="userSpaceOnUse">
<stop stop-color="#F5C38A"/>
<stop offset="0.21" stop-color="#F5D4AD"/>
<stop offset="0.23" stop-color="#F5D7B4"/>
<stop offset="0.27" stop-color="#F8E2C9"/>
<stop offset="0.31" stop-color="#FCF1E4"/>
<stop offset="0.39" stop-color="#F2C692"/>
<stop offset="0.53" stop-color="#EFB777"/>
<stop offset="1" stop-color="#F9E2C9"/>
</linearGradient>
<linearGradient id="paint5_linear_6229_10850" x1="125.102" y1="83.7974" x2="120.132" y2="86.8271" gradientUnits="userSpaceOnUse">
<stop stop-color="#F5C38A"/>
<stop offset="0.21" stop-color="#F5D4AD"/>
<stop offset="0.23" stop-color="#F5D7B4"/>
<stop offset="0.27" stop-color="#F8E2C9"/>
<stop offset="0.31" stop-color="#FCF1E4"/>
<stop offset="0.39" stop-color="#F2C692"/>
<stop offset="0.53" stop-color="#EFB777"/>
<stop offset="1" stop-color="#F9E2C9"/>
</linearGradient>
<linearGradient id="paint6_linear_6229_10850" x1="57.7572" y1="65.5228" x2="54.8907" y2="62.1335" gradientUnits="userSpaceOnUse">
<stop stop-color="#F5C38A"/>
<stop offset="0.21" stop-color="#F5D4AD"/>
<stop offset="0.23" stop-color="#F5D7B4"/>
<stop offset="0.27" stop-color="#F8E2C9"/>
<stop offset="0.31" stop-color="#FCF1E4"/>
<stop offset="0.39" stop-color="#F2C692"/>
<stop offset="0.53" stop-color="#EFB777"/>
<stop offset="1" stop-color="#F9E2C9"/>
</linearGradient>
<linearGradient id="paint7_linear_6229_10850" x1="23.0237" y1="130.711" x2="20.6179" y2="125.387" gradientUnits="userSpaceOnUse">
<stop stop-color="#F5C38A"/>
<stop offset="0.21" stop-color="#F5D4AD"/>
<stop offset="0.23" stop-color="#F5D7B4"/>
<stop offset="0.27" stop-color="#F8E2C9"/>
<stop offset="0.31" stop-color="#FCF1E4"/>
<stop offset="0.39" stop-color="#F2C692"/>
<stop offset="0.53" stop-color="#EFB777"/>
<stop offset="1" stop-color="#F9E2C9"/>
</linearGradient>
<linearGradient id="paint8_linear_6229_10850" x1="56.2113" y1="121.962" x2="53.0705" y2="120.725" gradientUnits="userSpaceOnUse">
<stop stop-color="#F5C38A"/>
<stop offset="0.21" stop-color="#F5D4AD"/>
<stop offset="0.23" stop-color="#F5D7B4"/>
<stop offset="0.27" stop-color="#F8E2C9"/>
<stop offset="0.31" stop-color="#FCF1E4"/>
<stop offset="0.39" stop-color="#F2C692"/>
<stop offset="0.53" stop-color="#EFB777"/>
<stop offset="1" stop-color="#F9E2C9"/>
</linearGradient>
<linearGradient id="paint9_linear_6229_10850" x1="94.5942" y1="134.349" x2="87.4383" y2="131.532" gradientUnits="userSpaceOnUse">
<stop stop-color="#F5C38A"/>
<stop offset="0.21" stop-color="#F5D4AD"/>
<stop offset="0.23" stop-color="#F5D7B4"/>
<stop offset="0.27" stop-color="#F8E2C9"/>
<stop offset="0.31" stop-color="#FCF1E4"/>
<stop offset="0.39" stop-color="#F2C692"/>
<stop offset="0.53" stop-color="#EFB777"/>
<stop offset="1" stop-color="#F9E2C9"/>
</linearGradient>
<linearGradient id="paint10_linear_6229_10850" x1="91.2994" y1="78.6582" x2="93.4141" y2="91.1345" gradientUnits="userSpaceOnUse">
<stop stop-color="#EFB777"/>
<stop offset="0.21" stop-color="#F2C692"/>
<stop offset="0.22" stop-color="#F2CA99"/>
<stop offset="0.25" stop-color="#F5D5AE"/>
<stop offset="0.28" stop-color="#F8E7D0"/>
<stop offset="0.31" stop-color="#FDFCF7"/>
<stop offset="0.39" stop-color="#F5D4AD"/>
<stop offset="0.53" stop-color="#EF9C3B"/>
</linearGradient>
<linearGradient id="paint11_linear_6229_10850" x1="87.5445" y1="109.716" x2="81.3496" y2="98.4309" gradientUnits="userSpaceOnUse">
<stop stop-color="#EFB777"/>
<stop offset="0.08" stop-color="#F4CFA4"/>
<stop offset="0.21" stop-color="#FCF1E4"/>
<stop offset="0.26" stop-color="#FCF5EB"/>
<stop offset="0.31" stop-color="#FDFCF7"/>
<stop offset="0.39" stop-color="#F5D4AD"/>
<stop offset="0.53" stop-color="#F2AF63"/>
</linearGradient>
<linearGradient id="paint12_linear_6229_10850" x1="92.2884" y1="91.2844" x2="83.3007" y2="95.7168" gradientUnits="userSpaceOnUse">
<stop stop-color="#F5C38A"/>
<stop offset="0.21" stop-color="#F5D4AD"/>
<stop offset="0.23" stop-color="#F5D7B4"/>
<stop offset="0.27" stop-color="#F8E2C9"/>
<stop offset="0.31" stop-color="#FCF1E4"/>
<stop offset="0.39" stop-color="#F2C692"/>
<stop offset="0.53" stop-color="#EFB777"/>
<stop offset="1" stop-color="#F9E2C9"/>
</linearGradient>
<linearGradient id="paint13_linear_6229_10850" x1="106.085" y1="72.1153" x2="91.6465" y2="78.5181" gradientUnits="userSpaceOnUse">
<stop stop-color="#F5C38A"/>
<stop offset="0.21" stop-color="#F5D4AD"/>
<stop offset="0.23" stop-color="#F5D7B4"/>
<stop offset="0.27" stop-color="#F8E2C9"/>
<stop offset="0.31" stop-color="#FCF1E4"/>
<stop offset="0.39" stop-color="#F2C692"/>
<stop offset="0.53" stop-color="#EFB777"/>
<stop offset="1" stop-color="#F9E2C9"/>
</linearGradient>
<linearGradient id="paint14_linear_6229_10850" x1="7.17041" y1="101.995" x2="1.41333" y2="98.6624" gradientUnits="userSpaceOnUse">
<stop stop-color="#231F20"/>
<stop offset="0.05" stop-color="#444041"/>
<stop offset="0.14" stop-color="#7C7A7A"/>
<stop offset="0.22" stop-color="#ABA9AA"/>
<stop offset="0.31" stop-color="#CFCECE"/>
<stop offset="0.38" stop-color="#E9E9E9"/>
<stop offset="0.45" stop-color="#F9F9F9"/>
<stop offset="0.5" stop-color="white"/>
<stop offset="1" stop-color="#231F20"/>
</linearGradient>
<linearGradient id="paint15_linear_6229_10850" x1="69.8849" y1="81.7269" x2="66.1101" y2="79.5425" gradientUnits="userSpaceOnUse">
<stop stop-color="#231F20"/>
<stop offset="0.05" stop-color="#444041"/>
<stop offset="0.14" stop-color="#7C7A7A"/>
<stop offset="0.22" stop-color="#ABA9AA"/>
<stop offset="0.31" stop-color="#CFCECE"/>
<stop offset="0.38" stop-color="#E9E9E9"/>
<stop offset="0.45" stop-color="#F9F9F9"/>
<stop offset="0.5" stop-color="white"/>
<stop offset="1" stop-color="#231F20"/>
</linearGradient>
<linearGradient id="paint16_linear_6229_10850" x1="98.6313" y1="106.579" x2="99.4629" y2="104.614" gradientUnits="userSpaceOnUse">
<stop stop-color="#231F20"/>
<stop offset="0.05" stop-color="#444041"/>
<stop offset="0.14" stop-color="#7C7A7A"/>
<stop offset="0.22" stop-color="#ABA9AA"/>
<stop offset="0.31" stop-color="#CFCECE"/>
<stop offset="0.38" stop-color="#E9E9E9"/>
<stop offset="0.45" stop-color="#F9F9F9"/>
<stop offset="0.5" stop-color="white"/>
<stop offset="1" stop-color="#231F20"/>
</linearGradient>
<linearGradient id="paint17_linear_6229_10850" x1="68.513" y1="98.8769" x2="64.6297" y2="98.8796" gradientUnits="userSpaceOnUse">
<stop stop-color="#231F20"/>
<stop offset="0.05" stop-color="#444041"/>
<stop offset="0.14" stop-color="#7C7A7A"/>
<stop offset="0.22" stop-color="#ABA9AA"/>
<stop offset="0.31" stop-color="#CFCECE"/>
<stop offset="0.38" stop-color="#E9E9E9"/>
<stop offset="0.45" stop-color="#F9F9F9"/>
<stop offset="0.5" stop-color="white"/>
<stop offset="1" stop-color="#231F20"/>
</linearGradient>
<linearGradient id="paint18_linear_6229_10850" x1="73.593" y1="138.736" x2="70.6906" y2="139.347" gradientUnits="userSpaceOnUse">
<stop stop-color="#231F20"/>
<stop offset="0.05" stop-color="#444041"/>
<stop offset="0.14" stop-color="#7C7A7A"/>
<stop offset="0.22" stop-color="#ABA9AA"/>
<stop offset="0.31" stop-color="#CFCECE"/>
<stop offset="0.38" stop-color="#E9E9E9"/>
<stop offset="0.45" stop-color="#F9F9F9"/>
<stop offset="0.5" stop-color="white"/>
<stop offset="1" stop-color="#231F20"/>
</linearGradient>
<linearGradient id="paint19_linear_6229_10850" x1="121.912" y1="82.26" x2="122.815" y2="87.3373" gradientUnits="userSpaceOnUse">
<stop stop-color="#231F20"/>
<stop offset="0.05" stop-color="#444041"/>
<stop offset="0.14" stop-color="#7C7A7A"/>
<stop offset="0.22" stop-color="#ABA9AA"/>
<stop offset="0.31" stop-color="#CFCECE"/>
<stop offset="0.38" stop-color="#E9E9E9"/>
<stop offset="0.45" stop-color="#F9F9F9"/>
<stop offset="0.5" stop-color="white"/>
<stop offset="1" stop-color="#231F20"/>
</linearGradient>
<linearGradient id="paint20_linear_6229_10850" x1="57.1459" y1="65.7265" x2="55.6865" y2="62.2726" gradientUnits="userSpaceOnUse">
<stop stop-color="#231F20"/>
<stop offset="0.05" stop-color="#444041"/>
<stop offset="0.14" stop-color="#7C7A7A"/>
<stop offset="0.22" stop-color="#ABA9AA"/>
<stop offset="0.31" stop-color="#CFCECE"/>
<stop offset="0.38" stop-color="#E9E9E9"/>
<stop offset="0.45" stop-color="#F9F9F9"/>
<stop offset="0.5" stop-color="white"/>
<stop offset="1" stop-color="#231F20"/>
</linearGradient>
<linearGradient id="paint21_linear_6229_10850" x1="22.1784" y1="130.747" x2="21.5852" y2="125.854" gradientUnits="userSpaceOnUse">
<stop stop-color="#231F20"/>
<stop offset="0.05" stop-color="#444041"/>
<stop offset="0.14" stop-color="#7C7A7A"/>
<stop offset="0.22" stop-color="#ABA9AA"/>
<stop offset="0.31" stop-color="#CFCECE"/>
<stop offset="0.38" stop-color="#E9E9E9"/>
<stop offset="0.45" stop-color="#F9F9F9"/>
<stop offset="0.5" stop-color="white"/>
<stop offset="1" stop-color="#231F20"/>
</linearGradient>
<linearGradient id="paint22_linear_6229_10850" x1="55.8161" y1="119.92" x2="53.7485" y2="122.07" gradientUnits="userSpaceOnUse">
<stop stop-color="#231F20"/>
<stop offset="0.05" stop-color="#444041"/>
<stop offset="0.14" stop-color="#7C7A7A"/>
<stop offset="0.22" stop-color="#ABA9AA"/>
<stop offset="0.31" stop-color="#CFCECE"/>
<stop offset="0.38" stop-color="#E9E9E9"/>
<stop offset="0.45" stop-color="#F9F9F9"/>
<stop offset="0.5" stop-color="white"/>
<stop offset="1" stop-color="#231F20"/>
</linearGradient>
<linearGradient id="paint23_linear_6229_10850" x1="93.8207" y1="135.181" x2="88.7456" y2="131.127" gradientUnits="userSpaceOnUse">
<stop stop-color="#231F20"/>
<stop offset="0.05" stop-color="#444041"/>
<stop offset="0.14" stop-color="#7C7A7A"/>
<stop offset="0.22" stop-color="#ABA9AA"/>
<stop offset="0.31" stop-color="#CFCECE"/>
<stop offset="0.38" stop-color="#E9E9E9"/>
<stop offset="0.45" stop-color="#F9F9F9"/>
<stop offset="0.5" stop-color="white"/>
<stop offset="1" stop-color="#231F20"/>
</linearGradient>
<linearGradient id="paint24_linear_6229_10850" x1="91.3002" y1="78.6587" x2="93.4157" y2="91.1335" gradientUnits="userSpaceOnUse">
<stop stop-color="#231F20"/>
<stop offset="0.05" stop-color="#444041"/>
<stop offset="0.14" stop-color="#7C7A7A"/>
<stop offset="0.22" stop-color="#ABA9AA"/>
<stop offset="0.31" stop-color="#CFCECE"/>
<stop offset="0.38" stop-color="#E9E9E9"/>
<stop offset="0.45" stop-color="#F9F9F9"/>
<stop offset="0.5" stop-color="white"/>
<stop offset="1" stop-color="#231F20"/>
</linearGradient>
<linearGradient id="paint25_linear_6229_10850" x1="87.5441" y1="109.714" x2="81.3513" y2="98.4317" gradientUnits="userSpaceOnUse">
<stop stop-color="#231F20"/>
<stop offset="0.05" stop-color="#444041"/>
<stop offset="0.14" stop-color="#7C7A7A"/>
<stop offset="0.22" stop-color="#ABA9AA"/>
<stop offset="0.31" stop-color="#CFCECE"/>
<stop offset="0.38" stop-color="#E9E9E9"/>
<stop offset="0.45" stop-color="#F9F9F9"/>
<stop offset="0.5" stop-color="white"/>
<stop offset="1" stop-color="#231F20"/>
</linearGradient>
<linearGradient id="paint26_linear_6229_10850" x1="92.2901" y1="91.284" x2="83.3004" y2="95.7179" gradientUnits="userSpaceOnUse">
<stop stop-color="#231F20"/>
<stop offset="0.05" stop-color="#444041"/>
<stop offset="0.14" stop-color="#7C7A7A"/>
<stop offset="0.22" stop-color="#ABA9AA"/>
<stop offset="0.31" stop-color="#CFCECE"/>
<stop offset="0.38" stop-color="#E9E9E9"/>
<stop offset="0.45" stop-color="#F9F9F9"/>
<stop offset="0.5" stop-color="white"/>
<stop offset="1" stop-color="#231F20"/>
</linearGradient>
<linearGradient id="paint27_linear_6229_10850" x1="106.087" y1="72.115" x2="91.6459" y2="78.5199" gradientUnits="userSpaceOnUse">
<stop stop-color="#231F20"/>
<stop offset="0.05" stop-color="#444041"/>
<stop offset="0.14" stop-color="#7C7A7A"/>
<stop offset="0.22" stop-color="#ABA9AA"/>
<stop offset="0.31" stop-color="#CFCECE"/>
<stop offset="0.38" stop-color="#E9E9E9"/>
<stop offset="0.45" stop-color="#F9F9F9"/>
<stop offset="0.5" stop-color="white"/>
<stop offset="1" stop-color="#231F20"/>
</linearGradient>
<linearGradient id="paint28_linear_6229_10850" x1="468.908" y1="85.6202" x2="477.826" y2="82.1093" gradientUnits="userSpaceOnUse">
<stop stop-color="#F2C692"/>
<stop offset="0.07" stop-color="#F4CEA3"/>
<stop offset="0.19" stop-color="#F9E2C9"/>
<stop offset="0.41" stop-color="#F4E8D9"/>
<stop offset="0.59" stop-color="#EFB777"/>
<stop offset="0.78" stop-color="#F3E4D2"/>
<stop offset="0.79" stop-color="#F4E8D9"/>
<stop offset="0.95" stop-color="#EABE81"/>
</linearGradient>
<linearGradient id="paint29_linear_6229_10850" x1="386.162" y1="59.013" x2="392.01" y2="56.7107" gradientUnits="userSpaceOnUse">
<stop stop-color="#F2C692"/>
<stop offset="0.07" stop-color="#F4CEA3"/>
<stop offset="0.19" stop-color="#F9E2C9"/>
<stop offset="0.41" stop-color="#F4E8D9"/>
<stop offset="0.59" stop-color="#EFB777"/>
<stop offset="0.78" stop-color="#F3E4D2"/>
<stop offset="0.79" stop-color="#F4E8D9"/>
<stop offset="0.95" stop-color="#EABE81"/>
</linearGradient>
<linearGradient id="paint30_linear_6229_10850" x1="346.42" y1="92.3663" x2="350.037" y2="89.4041" gradientUnits="userSpaceOnUse">
<stop stop-color="#F5C38A"/>
<stop offset="0.21" stop-color="#F5D4AD"/>
<stop offset="0.23" stop-color="#F5D7B4"/>
<stop offset="0.27" stop-color="#F8E2C9"/>
<stop offset="0.31" stop-color="#FCF1E4"/>
<stop offset="0.39" stop-color="#F2C692"/>
<stop offset="0.53" stop-color="#EFB777"/>
<stop offset="1" stop-color="#F9E2C9"/>
</linearGradient>
<linearGradient id="paint31_linear_6229_10850" x1="387.962" y1="83.3147" x2="394.665" y2="80.676" gradientUnits="userSpaceOnUse">
<stop stop-color="#F5C38A"/>
<stop offset="0.21" stop-color="#F5D4AD"/>
<stop offset="0.23" stop-color="#F5D7B4"/>
<stop offset="0.27" stop-color="#F8E2C9"/>
<stop offset="0.31" stop-color="#FCF1E4"/>
<stop offset="0.39" stop-color="#F2C692"/>
<stop offset="0.53" stop-color="#EFB777"/>
<stop offset="1" stop-color="#F9E2C9"/>
</linearGradient>
<linearGradient id="paint32_linear_6229_10850" x1="382.858" y1="137.445" x2="385.389" y2="133.726" gradientUnits="userSpaceOnUse">
<stop stop-color="#F5C38A"/>
<stop offset="0.21" stop-color="#F5D4AD"/>
<stop offset="0.23" stop-color="#F5D7B4"/>
<stop offset="0.27" stop-color="#F8E2C9"/>
<stop offset="0.31" stop-color="#FCF1E4"/>
<stop offset="0.39" stop-color="#F2C692"/>
<stop offset="0.53" stop-color="#EFB777"/>
<stop offset="1" stop-color="#F9E2C9"/>
</linearGradient>
<linearGradient id="paint33_linear_6229_10850" x1="313.592" y1="62.1847" x2="320.172" y2="66.1954" gradientUnits="userSpaceOnUse">
<stop stop-color="#F5C38A"/>
<stop offset="0.21" stop-color="#F5D4AD"/>
<stop offset="0.23" stop-color="#F5D7B4"/>
<stop offset="0.27" stop-color="#F8E2C9"/>
<stop offset="0.31" stop-color="#FCF1E4"/>
<stop offset="0.39" stop-color="#F2C692"/>
<stop offset="0.53" stop-color="#EFB777"/>
<stop offset="1" stop-color="#F9E2C9"/>
</linearGradient>
<linearGradient id="paint34_linear_6229_10850" x1="402.742" y1="37.9931" x2="406.537" y2="33.5065" gradientUnits="userSpaceOnUse">
<stop stop-color="#F5C38A"/>
<stop offset="0.21" stop-color="#F5D4AD"/>
<stop offset="0.23" stop-color="#F5D7B4"/>
<stop offset="0.27" stop-color="#F8E2C9"/>
<stop offset="0.31" stop-color="#FCF1E4"/>
<stop offset="0.39" stop-color="#F2C692"/>
<stop offset="0.53" stop-color="#EFB777"/>
<stop offset="1" stop-color="#F9E2C9"/>
</linearGradient>
<linearGradient id="paint35_linear_6229_10850" x1="448.722" y1="124.288" x2="451.906" y2="117.24" gradientUnits="userSpaceOnUse">
<stop stop-color="#F5C38A"/>
<stop offset="0.21" stop-color="#F5D4AD"/>
<stop offset="0.23" stop-color="#F5D7B4"/>
<stop offset="0.27" stop-color="#F8E2C9"/>
<stop offset="0.31" stop-color="#FCF1E4"/>
<stop offset="0.39" stop-color="#F2C692"/>
<stop offset="0.53" stop-color="#EFB777"/>
<stop offset="1" stop-color="#F9E2C9"/>
</linearGradient>
<linearGradient id="paint36_linear_6229_10850" x1="404.788" y1="112.706" x2="408.946" y2="111.069" gradientUnits="userSpaceOnUse">
<stop stop-color="#F5C38A"/>
<stop offset="0.21" stop-color="#F5D4AD"/>
<stop offset="0.23" stop-color="#F5D7B4"/>
<stop offset="0.27" stop-color="#F8E2C9"/>
<stop offset="0.31" stop-color="#FCF1E4"/>
<stop offset="0.39" stop-color="#F2C692"/>
<stop offset="0.53" stop-color="#EFB777"/>
<stop offset="1" stop-color="#F9E2C9"/>
</linearGradient>
<linearGradient id="paint37_linear_6229_10850" x1="353.978" y1="129.104" x2="363.451" y2="125.374" gradientUnits="userSpaceOnUse">
<stop stop-color="#F5C38A"/>
<stop offset="0.21" stop-color="#F5D4AD"/>
<stop offset="0.23" stop-color="#F5D7B4"/>
<stop offset="0.27" stop-color="#F8E2C9"/>
<stop offset="0.31" stop-color="#FCF1E4"/>
<stop offset="0.39" stop-color="#F2C692"/>
<stop offset="0.53" stop-color="#EFB777"/>
<stop offset="1" stop-color="#F9E2C9"/>
</linearGradient>
<linearGradient id="paint38_linear_6229_10850" x1="358.34" y1="55.3816" x2="355.54" y2="71.8974" gradientUnits="userSpaceOnUse">
<stop stop-color="#EFB777"/>
<stop offset="0.21" stop-color="#F2C692"/>
<stop offset="0.22" stop-color="#F2CA99"/>
<stop offset="0.25" stop-color="#F5D5AE"/>
<stop offset="0.28" stop-color="#F8E7D0"/>
<stop offset="0.31" stop-color="#FDFCF7"/>
<stop offset="0.39" stop-color="#F5D4AD"/>
<stop offset="0.53" stop-color="#EF9C3B"/>
</linearGradient>
<linearGradient id="paint39_linear_6229_10850" x1="363.31" y1="96.4948" x2="371.511" y2="81.5561" gradientUnits="userSpaceOnUse">
<stop stop-color="#EFB777"/>
<stop offset="0.08" stop-color="#F4CFA4"/>
<stop offset="0.21" stop-color="#FCF1E4"/>
<stop offset="0.26" stop-color="#FCF5EB"/>
<stop offset="0.31" stop-color="#FDFCF7"/>
<stop offset="0.39" stop-color="#F5D4AD"/>
<stop offset="0.53" stop-color="#F2AF63"/>
</linearGradient>
<linearGradient id="paint40_linear_6229_10850" x1="357.03" y1="72.0959" x2="368.928" y2="77.9633" gradientUnits="userSpaceOnUse">
<stop stop-color="#F5C38A"/>
<stop offset="0.21" stop-color="#F5D4AD"/>
<stop offset="0.23" stop-color="#F5D7B4"/>
<stop offset="0.27" stop-color="#F8E2C9"/>
<stop offset="0.31" stop-color="#FCF1E4"/>
<stop offset="0.39" stop-color="#F2C692"/>
<stop offset="0.53" stop-color="#EFB777"/>
<stop offset="1" stop-color="#F9E2C9"/>
</linearGradient>
<linearGradient id="paint41_linear_6229_10850" x1="338.767" y1="46.7202" x2="357.88" y2="55.1961" gradientUnits="userSpaceOnUse">
<stop stop-color="#F5C38A"/>
<stop offset="0.21" stop-color="#F5D4AD"/>
<stop offset="0.23" stop-color="#F5D7B4"/>
<stop offset="0.27" stop-color="#F8E2C9"/>
<stop offset="0.31" stop-color="#FCF1E4"/>
<stop offset="0.39" stop-color="#F2C692"/>
<stop offset="0.53" stop-color="#EFB777"/>
<stop offset="1" stop-color="#F9E2C9"/>
</linearGradient>
<linearGradient id="paint42_linear_6229_10850" x1="469.708" y1="86.2737" x2="477.329" y2="81.8625" gradientUnits="userSpaceOnUse">
<stop stop-color="#231F20"/>
<stop offset="0.05" stop-color="#444041"/>
<stop offset="0.14" stop-color="#7C7A7A"/>
<stop offset="0.22" stop-color="#ABA9AA"/>
<stop offset="0.31" stop-color="#CFCECE"/>
<stop offset="0.38" stop-color="#E9E9E9"/>
<stop offset="0.45" stop-color="#F9F9F9"/>
<stop offset="0.5" stop-color="white"/>
<stop offset="1" stop-color="#231F20"/>
</linearGradient>
<linearGradient id="paint43_linear_6229_10850" x1="386.687" y1="59.4438" x2="391.685" y2="56.5521" gradientUnits="userSpaceOnUse">
<stop stop-color="#231F20"/>
<stop offset="0.05" stop-color="#444041"/>
<stop offset="0.14" stop-color="#7C7A7A"/>
<stop offset="0.22" stop-color="#ABA9AA"/>
<stop offset="0.31" stop-color="#CFCECE"/>
<stop offset="0.38" stop-color="#E9E9E9"/>
<stop offset="0.45" stop-color="#F9F9F9"/>
<stop offset="0.5" stop-color="white"/>
<stop offset="1" stop-color="#231F20"/>
</linearGradient>
<linearGradient id="paint44_linear_6229_10850" x1="348.634" y1="92.3429" x2="347.533" y2="89.7408" gradientUnits="userSpaceOnUse">
<stop stop-color="#231F20"/>
<stop offset="0.05" stop-color="#444041"/>
<stop offset="0.14" stop-color="#7C7A7A"/>
<stop offset="0.22" stop-color="#ABA9AA"/>
<stop offset="0.31" stop-color="#CFCECE"/>
<stop offset="0.38" stop-color="#E9E9E9"/>
<stop offset="0.45" stop-color="#F9F9F9"/>
<stop offset="0.5" stop-color="white"/>
<stop offset="1" stop-color="#231F20"/>
</linearGradient>
<linearGradient id="paint45_linear_6229_10850" x1="388.504" y1="82.1466" x2="393.644" y2="82.1501" gradientUnits="userSpaceOnUse">
<stop stop-color="#231F20"/>
<stop offset="0.05" stop-color="#444041"/>
<stop offset="0.14" stop-color="#7C7A7A"/>
<stop offset="0.22" stop-color="#ABA9AA"/>
<stop offset="0.31" stop-color="#CFCECE"/>
<stop offset="0.38" stop-color="#E9E9E9"/>
<stop offset="0.45" stop-color="#F9F9F9"/>
<stop offset="0.5" stop-color="white"/>
<stop offset="1" stop-color="#231F20"/>
</linearGradient>
<linearGradient id="paint46_linear_6229_10850" x1="381.779" y1="134.912" x2="385.621" y2="135.72" gradientUnits="userSpaceOnUse">
<stop stop-color="#231F20"/>
<stop offset="0.05" stop-color="#444041"/>
<stop offset="0.14" stop-color="#7C7A7A"/>
<stop offset="0.22" stop-color="#ABA9AA"/>
<stop offset="0.31" stop-color="#CFCECE"/>
<stop offset="0.38" stop-color="#E9E9E9"/>
<stop offset="0.45" stop-color="#F9F9F9"/>
<stop offset="0.5" stop-color="white"/>
<stop offset="1" stop-color="#231F20"/>
</linearGradient>
<linearGradient id="paint47_linear_6229_10850" x1="317.816" y1="60.1496" x2="316.62" y2="66.8707" gradientUnits="userSpaceOnUse">
<stop stop-color="#231F20"/>
<stop offset="0.05" stop-color="#444041"/>
<stop offset="0.14" stop-color="#7C7A7A"/>
<stop offset="0.22" stop-color="#ABA9AA"/>
<stop offset="0.31" stop-color="#CFCECE"/>
<stop offset="0.38" stop-color="#E9E9E9"/>
<stop offset="0.45" stop-color="#F9F9F9"/>
<stop offset="0.5" stop-color="white"/>
<stop offset="1" stop-color="#231F20"/>
</linearGradient>
<linearGradient id="paint48_linear_6229_10850" x1="403.551" y1="38.2628" x2="405.483" y2="33.6906" gradientUnits="userSpaceOnUse">
<stop stop-color="#231F20"/>
<stop offset="0.05" stop-color="#444041"/>
<stop offset="0.14" stop-color="#7C7A7A"/>
<stop offset="0.22" stop-color="#ABA9AA"/>
<stop offset="0.31" stop-color="#CFCECE"/>
<stop offset="0.38" stop-color="#E9E9E9"/>
<stop offset="0.45" stop-color="#F9F9F9"/>
<stop offset="0.5" stop-color="white"/>
<stop offset="1" stop-color="#231F20"/>
</linearGradient>
<linearGradient id="paint49_linear_6229_10850" x1="449.84" y1="124.335" x2="450.626" y2="117.859" gradientUnits="userSpaceOnUse">
<stop stop-color="#231F20"/>
<stop offset="0.05" stop-color="#444041"/>
<stop offset="0.14" stop-color="#7C7A7A"/>
<stop offset="0.22" stop-color="#ABA9AA"/>
<stop offset="0.31" stop-color="#CFCECE"/>
<stop offset="0.38" stop-color="#E9E9E9"/>
<stop offset="0.45" stop-color="#F9F9F9"/>
<stop offset="0.5" stop-color="white"/>
<stop offset="1" stop-color="#231F20"/>
</linearGradient>
<linearGradient id="paint50_linear_6229_10850" x1="405.311" y1="110.003" x2="408.048" y2="112.85" gradientUnits="userSpaceOnUse">
<stop stop-color="#231F20"/>
<stop offset="0.05" stop-color="#444041"/>
<stop offset="0.14" stop-color="#7C7A7A"/>
<stop offset="0.22" stop-color="#ABA9AA"/>
<stop offset="0.31" stop-color="#CFCECE"/>
<stop offset="0.38" stop-color="#E9E9E9"/>
<stop offset="0.45" stop-color="#F9F9F9"/>
<stop offset="0.5" stop-color="white"/>
<stop offset="1" stop-color="#231F20"/>
</linearGradient>
<linearGradient id="paint51_linear_6229_10850" x1="355.002" y1="130.205" x2="361.72" y2="124.839" gradientUnits="userSpaceOnUse">
<stop stop-color="#231F20"/>
<stop offset="0.05" stop-color="#444041"/>
<stop offset="0.14" stop-color="#7C7A7A"/>
<stop offset="0.22" stop-color="#ABA9AA"/>
<stop offset="0.31" stop-color="#CFCECE"/>
<stop offset="0.38" stop-color="#E9E9E9"/>
<stop offset="0.45" stop-color="#F9F9F9"/>
<stop offset="0.5" stop-color="white"/>
<stop offset="1" stop-color="#231F20"/>
</linearGradient>
<linearGradient id="paint52_linear_6229_10850" x1="358.338" y1="55.3822" x2="355.538" y2="71.8961" gradientUnits="userSpaceOnUse">
<stop stop-color="#231F20"/>
<stop offset="0.05" stop-color="#444041"/>
<stop offset="0.14" stop-color="#7C7A7A"/>
<stop offset="0.22" stop-color="#ABA9AA"/>
<stop offset="0.31" stop-color="#CFCECE"/>
<stop offset="0.38" stop-color="#E9E9E9"/>
<stop offset="0.45" stop-color="#F9F9F9"/>
<stop offset="0.5" stop-color="white"/>
<stop offset="1" stop-color="#231F20"/>
</linearGradient>
<linearGradient id="paint53_linear_6229_10850" x1="363.311" y1="96.4926" x2="371.509" y2="81.5571" gradientUnits="userSpaceOnUse">
<stop stop-color="#231F20"/>
<stop offset="0.05" stop-color="#444041"/>
<stop offset="0.14" stop-color="#7C7A7A"/>
<stop offset="0.22" stop-color="#ABA9AA"/>
<stop offset="0.31" stop-color="#CFCECE"/>
<stop offset="0.38" stop-color="#E9E9E9"/>
<stop offset="0.45" stop-color="#F9F9F9"/>
<stop offset="0.5" stop-color="white"/>
<stop offset="1" stop-color="#231F20"/>
</linearGradient>
<linearGradient id="paint54_linear_6229_10850" x1="357.028" y1="72.0953" x2="368.928" y2="77.9649" gradientUnits="userSpaceOnUse">
<stop stop-color="#231F20"/>
<stop offset="0.05" stop-color="#444041"/>
<stop offset="0.14" stop-color="#7C7A7A"/>
<stop offset="0.22" stop-color="#ABA9AA"/>
<stop offset="0.31" stop-color="#CFCECE"/>
<stop offset="0.38" stop-color="#E9E9E9"/>
<stop offset="0.45" stop-color="#F9F9F9"/>
<stop offset="0.5" stop-color="white"/>
<stop offset="1" stop-color="#231F20"/>
</linearGradient>
<linearGradient id="paint55_linear_6229_10850" x1="338.764" y1="46.7199" x2="357.881" y2="55.1985" gradientUnits="userSpaceOnUse">
<stop stop-color="#231F20"/>
<stop offset="0.05" stop-color="#444041"/>
<stop offset="0.14" stop-color="#7C7A7A"/>
<stop offset="0.22" stop-color="#ABA9AA"/>
<stop offset="0.31" stop-color="#CFCECE"/>
<stop offset="0.38" stop-color="#E9E9E9"/>
<stop offset="0.45" stop-color="#F9F9F9"/>
<stop offset="0.5" stop-color="white"/>
<stop offset="1" stop-color="#231F20"/>
</linearGradient>
</defs>
</svg>
